<svg xmlns="http://www.w3.org/2000/svg" width="497.251" height="516.853" viewBox="0 0 497.251 516.853">
  <g id="water" transform="translate(112.081)">
    <path id="Path_1" data-name="Path 1" d="M130.164,363.1c83.655,0,129.726-49.141,129.726-138.375C259.89,141.179,141.633,8.349,136.6,2.745a8.917,8.917,0,0,0-12.871,0C118.695,8.349.437,141.179.437,224.724.437,313.957,46.509,363.1,130.164,363.1Zm0-341.389c24.759,29.058,112.43,136.6,112.43,203.014,0,55.235-19.51,121.078-112.43,121.078S17.734,279.959,17.734,224.724C17.734,158.311,105.4,50.767,130.164,21.71Zm0,0" transform="translate(9.282 0)" fill="#fff"/>
    <g id="Group_1" data-name="Group 1" transform="translate(-112.081 233.69)">
      <path id="Path_2" data-name="Path 2" d="M335.959,327.4c40.37,0,63.522-26.94,63.522-73.926,0-44.119-55.978-104.767-58.356-107.331a7.272,7.272,0,0,0-10.332,0c-2.378,2.564-58.356,63.212-58.356,107.331C272.437,300.456,295.586,327.4,335.959,327.4Zm0-165.794c13.613,15.839,49.406,60.475,49.406,91.867,0,39.687-16.621,59.81-49.406,59.81s-49.406-20.123-49.406-59.81C286.553,222.077,322.343,177.441,335.959,161.6Zm0,0" transform="translate(-272.437 -143.984)" fill="#fff"/>
      <path id="Path_5" data-name="Path 5" d="M335.5,312.361a49.138,49.138,0,0,0,34.521-14.871,42.185,42.185,0,0,0,7.727-35.7,7.057,7.057,0,0,0-13.916,2.33,28.954,28.954,0,0,1-4.532,24.186,35.136,35.136,0,0,1-23.8,9.939,7.058,7.058,0,0,0,0,14.116Zm0,0" transform="translate(-279.032 -157.182)" fill="#fff"/>
    </g>
    <g id="Group_8" data-name="Group 8" transform="translate(236.167 266.012)">
      <path id="Path_2-2" data-name="Path 2" d="M346.939,359.1c47.348,0,74.5-31.6,74.5-86.7,0-51.746-65.654-122.876-68.443-125.884a8.529,8.529,0,0,0-12.118,0c-2.789,3.007-68.443,74.138-68.443,125.884C272.437,327.5,299.587,359.1,346.939,359.1Zm0-194.452c15.966,18.577,57.946,70.929,57.946,107.747,0,46.547-19.495,70.149-57.946,70.149s-57.946-23.6-57.946-70.149C288.993,235.576,330.969,183.224,346.939,164.647Zm0,0" transform="translate(-272.437 -143.984)" fill="#fff"/>
      <g id="Group_30" data-name="Group 30" transform="translate(39.918 127.053)">
        <g id="Group_29" data-name="Group 29" transform="translate(0 0)">
          <path id="Path_18" data-name="Path 18" d="M355.287,381.643v-24.7a4.941,4.941,0,0,0-7.9-3.952l-16.8,12.6-16.8-12.6a4.941,4.941,0,0,0-7.9,3.952v24.7H296v9.881h14.822a4.941,4.941,0,0,0,4.941-4.941V366.821l11.857,8.893a4.941,4.941,0,0,0,5.929,0l11.857-8.893v19.762a4.941,4.941,0,0,0,4.941,4.941h14.822v-9.881Z" transform="translate(-296 -351.999)" fill="#fff"/>
        </g>
      </g>
    </g>
    <g id="Group_3" data-name="Group 3" transform="translate(50.831 386.932)">
      <path id="Path_3" data-name="Path 3" d="M217.381,322.11c-1.67,1.894-40.944,46.75-40.944,76.4,0,33.305,16.717,52.408,45.857,52.408s45.857-19.1,45.857-52.408c0-29.649-39.274-74.505-40.944-76.4a6.766,6.766,0,0,0-9.827,0Zm4.913,115.7c-21.729,0-32.755-13.227-32.755-39.306,0-17.807,20.5-46.794,32.755-61.9,12.264,15.069,32.755,44.063,32.755,61.9C255.05,424.588,244.024,437.815,222.295,437.815Zm0,0" transform="translate(-177.438 -320.996)" fill="#fff"/>
      <path id="Path_6" data-name="Path 6" d="M223.288,427.317a7.183,7.183,0,0,1-3.455-10.383,6.265,6.265,0,0,0-11.209-5.6,19.706,19.706,0,0,0,9.066,27.222,6.265,6.265,0,1,0,5.6-11.209Zm0,0" transform="translate(-182.919 -339.088)" fill="#fff"/>
    </g>
    <g id="bitcoin" transform="translate(87.284 168.577)">
      <g id="Group_7" data-name="Group 7" transform="translate(0 0)">
        <g id="Group_6" data-name="Group 6">
          <path id="Path_8" data-name="Path 8" d="M237.183,174.675a23.257,23.257,0,0,0,11.526-24.038c-1.97-14.876-19.7-20.491-33.693-21.673V106.6H201.224v22.166h-9.26V106.6H178.172v22.166H150.39v14.285h10.344c4.63,0,6.9,1.379,6.9,5.123V209.55c0,5.123-2.562,6.7-5.32,6.7H151.769v14.58h26.8v22.659h13.891V230.83h9.26v22.659h13.5V230.83h2.955c28.373,0,37.83-13.891,37.83-32.806A24.529,24.529,0,0,0,237.183,174.675Zm-45.219-30.737h9.851c6.9,0,20.491,1.182,20.491,12.413a13.9,13.9,0,0,1-12.118,14.679H191.964Zm15.27,70.931v-.1h-15.27V185.216H209.7c4.138,0,19.7,1.379,19.7,12.413S222.011,214.87,207.233,214.87Z" transform="translate(-150.39 -106.601)" fill="#fff"/>
        </g>
      </g>
    </g>
    <g id="Ellipse_1" data-name="Ellipse 1" transform="translate(143.77 383.639)" fill="none" stroke="#fff" stroke-width="10">
      <ellipse cx="24.324" cy="24.864" rx="24.324" ry="24.864" stroke="none"/>
      <ellipse cx="24.324" cy="24.864" rx="19.324" ry="19.864" fill="none"/>
    </g>
    <g id="Ellipse_2" data-name="Ellipse 2" transform="translate(-18.388 436.61)" fill="none" stroke="#fff" stroke-width="10">
      <circle cx="24.324" cy="24.324" r="24.324" stroke="none"/>
      <circle cx="24.324" cy="24.324" r="19.324" fill="none"/>
    </g>
  </g>
</svg>
