<svg width="20" height="20" viewBox="0 0 20 20" fill="none" xmlns="http://www.w3.org/2000/svg">
<path d="M0 10C0 8.02219 0.586488 6.0888 1.6853 4.44431C2.78412 2.79982 4.34591 1.51809 6.17317 0.76121C8.00043 0.00433347 10.0111 -0.193701 11.9509 0.192151C13.8907 0.578004 15.6725 1.53041 17.0711 2.92894C18.4696 4.32746 19.422 6.1093 19.8078 8.04911C20.1937 9.98892 19.9957 11.9996 19.2388 13.8268C18.4819 15.6541 17.2002 17.2159 15.5557 18.3147C13.9112 19.4135 11.9778 20 9.99999 20C7.34783 20 4.8043 18.9464 2.92894 17.0711C1.05357 15.1957 0 12.6522 0 10Z" fill="#06070B"/>
<path d="M11.6966 9.49831L12.5779 8.00298L14.9533 11.7027L14.9544 12.4127L14.9466 7.5269C14.941 7.40747 14.8776 7.29821 14.7764 7.23378L10.4999 4.77385C10.3998 4.72469 10.273 4.72522 10.1731 4.77538C10.1596 4.78216 10.1469 4.78949 10.1348 4.7975L10.1199 4.80688L5.96887 7.21241L5.95275 7.2197C5.93204 7.22924 5.91111 7.24134 5.89145 7.25542C5.81276 7.31187 5.76048 7.39533 5.74357 7.48895C5.74104 7.50314 5.73918 7.51759 5.73828 7.53215L5.7448 11.5136L7.95734 8.08427C8.2359 7.62953 8.84284 7.48307 9.40624 7.49104L10.0675 7.5085L6.17131 13.7569L6.63059 14.0213L10.5735 7.51483L12.3163 7.5085L8.38352 14.1792L10.0224 15.1218L10.2182 15.2344C10.301 15.2681 10.3987 15.2698 10.4822 15.2397L14.8188 12.7265L13.9897 13.2069L11.6966 9.49831ZM12.0329 14.341L10.3776 11.743L11.388 10.0284L13.5619 13.4548L12.0329 14.341Z" fill="#2D374B"/>
<path d="M10.377 11.743L12.0322 14.3409L13.5613 13.4548L11.3874 10.0284L10.377 11.743Z" fill="#28A0F0"/>
<path d="M14.9541 12.4127L14.9529 11.7027L12.5776 8.00299L11.6963 9.49833L13.9894 13.207L14.8185 12.7265C14.8998 12.6605 14.949 12.5636 14.9542 12.459L14.9541 12.4127Z" fill="#28A0F0"/>
<path d="M5.00004 13.0823L6.17087 13.7569L10.0671 7.50849L9.4058 7.49103C8.84239 7.48306 8.23549 7.62952 7.9569 8.08426L5.74435 11.5136L5 12.6573V13.0823H5.00004Z" fill="white"/>
<path d="M12.3155 7.50848L10.5728 7.51481L6.62988 14.0213L8.00803 14.8148L8.38281 14.1792L12.3155 7.50848Z" fill="white"/>
<path d="M15.6883 7.49951C15.6738 7.13504 15.4765 6.80137 15.1673 6.60712L10.8347 4.11557C10.529 3.96159 10.147 3.9614 9.84069 4.11546C9.80449 4.13371 5.62731 6.55633 5.62731 6.55633C5.56951 6.58403 5.51384 6.61707 5.46144 6.65453C5.18549 6.85231 5.01728 7.15962 5 7.49727V12.6573L5.74435 11.5136L5.73784 7.53217C5.73873 7.51761 5.74056 7.5033 5.74313 7.48915C5.75992 7.39546 5.81224 7.31189 5.89101 7.25543C5.91067 7.24136 10.1592 4.78217 10.1727 4.77539C10.2726 4.72523 10.3994 4.72471 10.4994 4.77387L14.776 7.2338C14.8771 7.29822 14.9406 7.40749 14.9462 7.52691V12.459C14.941 12.5636 14.8997 12.6605 14.8183 12.7265L13.9892 13.207L13.5615 13.4549L12.0324 14.341L10.4817 15.2397C10.3982 15.2698 10.3005 15.2682 10.2177 15.2345L8.38304 14.1792L8.00825 14.8148L9.65702 15.7641C9.71154 15.7951 9.76014 15.8226 9.79999 15.845C9.86173 15.8796 9.90377 15.9028 9.91863 15.91C10.0358 15.9669 10.2044 16 10.3564 16C10.4957 16 10.6315 15.9744 10.76 15.9241L15.264 13.3157C15.5226 13.1154 15.6746 12.8133 15.6883 12.4861V7.49951Z" fill="#96BEDC"/>
</svg>
