<svg width="20" height="20" viewBox="0 0 20 20" fill="none" xmlns="http://www.w3.org/2000/svg">
<path d="M1.22957e-06 10.005C-0.000979447 8.02694 0.584683 6.09305 1.6829 4.44791C2.78112 2.80277 4.34255 1.52027 6.16973 0.76263C7.9969 0.00499319 10.0077 -0.193743 11.9479 0.191549C13.888 0.576841 15.6703 1.52886 17.0693 2.92718C18.4683 4.32551 19.4212 6.10733 19.8075 8.04727C20.1937 9.98722 19.996 11.9981 19.2393 13.8257C18.4825 15.6532 17.2008 17.2153 15.5562 18.3143C13.9116 19.4134 11.978 20 10 20C8.68702 20.0006 7.38677 19.7426 6.17354 19.2406C4.96031 18.7386 3.85789 18.0025 2.92923 17.0743C2.00058 16.1461 1.26391 15.044 0.761307 13.831C0.258699 12.6181 1.06804e-06 11.3179 1.22957e-06 10.005Z" fill="#06070B"/>
<path d="M10.0545 6.90998L7.90282 9.06666C7.86575 9.10299 7.81591 9.12334 7.764 9.12334C7.71209 9.12334 7.66225 9.10299 7.62518 9.06666L6.48982 7.9313C6.47109 7.91285 6.45621 7.89085 6.44605 7.8666C6.43589 7.84234 6.43066 7.81631 6.43066 7.79001C6.43066 7.76371 6.43589 7.73767 6.44605 7.71341C6.45621 7.68915 6.47109 7.66716 6.48982 7.64871L10.0545 4.084C10.073 4.06526 10.095 4.05039 10.1192 4.04023C10.1435 4.03007 10.1695 4.02484 10.1958 4.02484C10.2221 4.02484 10.2482 4.03007 10.2724 4.04023C10.2967 4.05039 10.3187 4.06526 10.3371 4.084L13.9018 7.64871C13.9382 7.68578 13.9585 7.73562 13.9585 7.78753C13.9585 7.83944 13.9382 7.88928 13.9018 7.92635L12.7516 9.0617C12.7332 9.08044 12.7112 9.09532 12.6869 9.10547C12.6626 9.11563 12.6366 9.12086 12.6103 9.12086C12.584 9.12086 12.558 9.11563 12.5337 9.10547C12.5095 9.09532 12.4875 9.08044 12.469 9.0617L10.3223 6.90998C10.2848 6.87851 10.2374 6.86126 10.1884 6.86126C10.1394 6.86126 10.092 6.87851 10.0545 6.90998Z" fill="#F8D935"/>
<path d="M15.183 8.9281L16.3134 10.0634C16.3319 10.0815 16.3467 10.103 16.3568 10.1269C16.3669 10.1507 16.3721 10.1764 16.3721 10.2023C16.3721 10.2282 16.3669 10.2538 16.3568 10.2776C16.3467 10.3015 16.3319 10.3231 16.3134 10.3411L15.183 11.4764C15.1645 11.4952 15.1425 11.5101 15.1183 11.5202C15.094 11.5304 15.068 11.5356 15.0417 11.5356C15.0154 11.5356 14.9893 11.5304 14.9651 11.5202C14.9408 11.5101 14.9188 11.4952 14.9004 11.4764L13.7452 10.3411C13.7088 10.304 13.6885 10.2542 13.6885 10.2023C13.6885 10.1504 13.7088 10.1005 13.7452 10.0634L14.8805 8.9281C14.8991 8.90616 14.9223 8.88854 14.9484 8.87645C14.9745 8.86436 15.003 8.85809 15.0317 8.85809C15.0605 8.85809 15.089 8.86436 15.1151 8.87645C15.1412 8.88854 15.1643 8.90616 15.183 8.9281Z" fill="#F8D935"/>
<path d="M10.0545 16.3211L6.48982 12.7465C6.47109 12.728 6.45621 12.706 6.44605 12.6818C6.43589 12.6575 6.43066 12.6315 6.43066 12.6052C6.43066 12.5789 6.43589 12.5529 6.44605 12.5286C6.45621 12.5043 6.47109 12.4823 6.48982 12.4639L7.62518 11.3285C7.66225 11.2922 7.71209 11.2719 7.764 11.2719C7.8159 11.2719 7.86574 11.2922 7.90281 11.3285L10.0545 13.4852C10.093 13.5208 10.1434 13.5405 10.1958 13.5405C10.2482 13.5405 10.2987 13.5208 10.3371 13.4852L12.4839 11.3335C12.5023 11.3148 12.5243 11.2999 12.5486 11.2897C12.5728 11.2796 12.5989 11.2743 12.6252 11.2743C12.6515 11.2743 12.6775 11.2796 12.7018 11.2897C12.726 11.2999 12.748 11.3148 12.7665 11.3335L13.9018 12.4639C13.9206 12.4823 13.9354 12.5043 13.9456 12.5286C13.9557 12.5529 13.961 12.5789 13.961 12.6052C13.961 12.6315 13.9557 12.6575 13.9456 12.6818C13.9354 12.706 13.9206 12.728 13.9018 12.7465L10.3371 16.3112C10.3193 16.3306 10.2979 16.3463 10.274 16.3573C10.2501 16.3683 10.2242 16.3744 10.1979 16.3754C10.1716 16.3763 10.1454 16.372 10.1208 16.3627C10.0961 16.3533 10.0736 16.3392 10.0545 16.3211Z" fill="#F8D935"/>
<path d="M5.49416 8.92916L6.62457 10.0645C6.64316 10.0825 6.65793 10.1041 6.66802 10.1279C6.67812 10.1518 6.68332 10.1774 6.68332 10.2033C6.68332 10.2292 6.67812 10.2548 6.66802 10.2787C6.65793 10.3025 6.64316 10.3241 6.62457 10.3421L5.49416 11.4775C5.47571 11.4962 5.45373 11.5111 5.42947 11.5213C5.40521 11.5314 5.37918 11.5366 5.35288 11.5366C5.32658 11.5366 5.30053 11.5314 5.27627 11.5213C5.25202 11.5111 5.23003 11.4962 5.21158 11.4775L4.07622 10.3421C4.03989 10.3051 4.01953 10.2552 4.01953 10.2033C4.01953 10.1514 4.03989 10.1016 4.07622 10.0645L5.21158 8.92916C5.23003 8.91042 5.25202 8.89554 5.27627 8.88538C5.30053 8.87523 5.32658 8.87 5.35288 8.87C5.37918 8.87 5.40521 8.87523 5.42947 8.88538C5.45373 8.89554 5.47571 8.91042 5.49416 8.92916Z" fill="#F8D935"/>
<path d="M8.89947 10.0629L10.0546 8.90773C10.0731 8.88899 10.0951 8.87412 10.1194 8.86396C10.1436 8.8538 10.1696 8.84857 10.1959 8.84857C10.2222 8.84857 10.2483 8.8538 10.2725 8.86396C10.2968 8.87412 10.3188 8.88899 10.3372 8.90773L11.4924 10.0629C11.5288 10.1 11.5491 10.1498 11.5491 10.2017C11.5491 10.2536 11.5288 10.3035 11.4924 10.3405L10.3372 11.4957C10.3188 11.5145 10.2968 11.5293 10.2725 11.5395C10.2483 11.5497 10.2222 11.5549 10.1959 11.5549C10.1696 11.5549 10.1436 11.5497 10.1194 11.5395C10.0951 11.5293 10.0731 11.5145 10.0546 11.4957L8.89947 10.3405C8.86313 10.3035 8.84277 10.2536 8.84277 10.2017C8.84277 10.1498 8.86313 10.1 8.89947 10.0629Z" fill="#F8D935"/>
</svg>
