<svg width="16" height="16" viewBox="0 0 16 16" fill="none" xmlns="http://www.w3.org/2000/svg">
<path d="M0.801669 10.1054C0.385213 8.68177 0.400254 7.16666 0.844889 5.75161C1.28952 4.33657 2.14379 3.08514 3.29965 2.15556C4.45552 1.22599 5.86109 0.660022 7.33861 0.529222C8.81614 0.398423 10.2993 0.708669 11.6005 1.42073C12.9017 2.13279 13.9625 3.21468 14.6489 4.52961C15.3352 5.84453 15.6162 7.33343 15.4563 8.80804C15.2964 10.2827 14.7029 11.6768 13.7507 12.8141C12.7985 13.9513 11.5305 14.7808 10.1069 15.1974C9.16153 15.4745 8.17085 15.5625 7.19147 15.4564C6.21209 15.3504 5.26321 15.0525 4.39904 14.5796C3.53488 14.1067 2.77238 13.4681 2.15513 12.7004C1.53787 11.9327 1.07795 11.0509 0.801669 10.1054Z" fill="black"/>
<path d="M7.8554 9.14587L10.7587 7.8544L8.04144 2.73321L5.03384 7.6883L7.8554 9.14587Z" fill="white"/>
<path d="M8.04144 2.7332L7.97165 9.14934L5.03384 7.68831L8.04144 2.7332Z" fill="#E7E9EE"/>
<path d="M7.84492 13.5008L10.975 8.31884L7.95521 9.66792L5.02426 8.14799L7.84492 13.5008Z" fill="white"/>
<path d="M7.93557 6.39837L10.7601 7.85444L7.85678 9.1459L5.03522 7.68833L7.93557 6.39837Z" fill="#7062FF" fill-opacity="0.7"/>
<path d="M5.03522 7.68833L7.93557 6.39837L7.85678 9.1459L5.03522 7.68833Z" fill="#7D70FF"/>
<path d="M5.0166 8.15735L7.94755 9.67728L7.83728 13.5101L5.0166 8.15735Z" fill="#E7E9EE"/>
</svg>
