<svg width="64" height="64" viewBox="0 0 64 64" fill="none" xmlns="http://www.w3.org/2000/svg">
<g filter="url(#filter0_d_855_3115)">
<circle cx="32" cy="28" r="16" fill="url(#paint0_linear_855_3115)"/>
</g>
<path d="M32.5303 21.4697C32.2374 21.1768 31.7626 21.1768 31.4697 21.4697L26.6967 26.2426C26.4038 26.5355 26.4038 27.0104 26.6967 27.3033C26.9896 27.5962 27.4645 27.5962 27.7574 27.3033L32 23.0607L36.2426 27.3033C36.5355 27.5962 37.0104 27.5962 37.3033 27.3033C37.5962 27.0104 37.5962 26.5355 37.3033 26.2426L32.5303 21.4697ZM32.75 34L32.75 22L31.25 22L31.25 34L32.75 34Z" fill="white"/>
<defs>
<filter id="filter0_d_855_3115" x="0" y="0" width="64" height="64" filterUnits="userSpaceOnUse" color-interpolation-filters="sRGB">
<feFlood flood-opacity="0" result="BackgroundImageFix"/>
<feColorMatrix in="SourceAlpha" type="matrix" values="0 0 0 0 0 0 0 0 0 0 0 0 0 0 0 0 0 0 127 0" result="hardAlpha"/>
<feOffset dy="4"/>
<feGaussianBlur stdDeviation="8"/>
<feComposite in2="hardAlpha" operator="out"/>
<feColorMatrix type="matrix" values="0 0 0 0 0.254902 0 0 0 0 0.537255 0 0 0 0 0.960784 0 0 0 0.54 0"/>
<feBlend mode="normal" in2="BackgroundImageFix" result="effect1_dropShadow_855_3115"/>
<feBlend mode="normal" in="SourceGraphic" in2="effect1_dropShadow_855_3115" result="shape"/>
</filter>
<linearGradient id="paint0_linear_855_3115" x1="37.286" y1="-41.25" x2="86.9849" y2="-25.2583" gradientUnits="userSpaceOnUse">
<stop stop-color="#65B6D0"/>
<stop offset="1" stop-color="#884DD3"/>
</linearGradient>
</defs>
</svg>
