<svg xmlns="http://www.w3.org/2000/svg" width="503.076" height="503.075" viewBox="0 0 503.076 503.075">
  <g id="XMLID_555_" transform="translate(-7 -7)">
    <path id="XMLID_1129_" d="M178.049,187.37h-54.21c9.379-13.315,11.784-22.193,10.369-37.255h15.917a10,10,0,0,0,0-20H129.281c-3.506-5.342-9.475-16.284-9.436-25.235-.021-5.691,2.466-9.868,7.6-12.768,7.862-4.439,20.539-4.523,27.68-.18,5.686,3.457,9.975,8.272,11.193,12.566a10,10,0,0,0,19.241-5.459c-2.617-9.224-9.922-18.043-20.043-24.2-13.438-8.171-33.585-8.231-47.9-.146-11.5,6.5-17.813,17.24-17.767,30.176-.039,9.1,3.084,18.112,6.5,25.242H98.026a10,10,0,0,0,0,20h16.083l.029.245c1.292,11.55.6,15.841-8.679,28.29l-9.578,12.7a10,10,0,0,0,7.983,16.021H178.05a10,10,0,1,0,0-20Z" transform="translate(7 7)" fill="#fff"/>
    <path id="XMLID_1132_" d="M138.038,0C61.923,0,0,61.923,0,138.037S61.923,276.075,138.038,276.075s138.038-61.924,138.038-138.038S214.152,0,138.038,0Zm0,256.075A118.037,118.037,0,1,1,256.076,138.037,118.172,118.172,0,0,1,138.038,256.075Z" transform="translate(7 7)" fill="#fff"/>
    <path id="XMLID_1171_" d="M373.962,235.925c-76.114,0-138.038,61.924-138.038,138.038S297.848,512,373.962,512,512,450.077,512,373.963,450.077,235.925,373.962,235.925Zm0,256.075A118.037,118.037,0,1,1,492,373.963,118.171,118.171,0,0,1,373.962,492Z" transform="translate(-1.924 -1.925)" fill="#fff"/>
    <path id="XMLID_1184_" d="M10.834,178.425c81.975,0,149.983-60.894,161.2-139.82a10.83,10.83,0,0,1-15.113-15.513L176.837,3.173a10.834,10.834,0,0,1,15.322,0l19.919,19.919a10.835,10.835,0,1,1-15.323,15.323l-2.543-2.543c-10.128,92.227-88.5,164.221-183.378,164.221a10.834,10.834,0,0,1,0-21.669Z" transform="translate(286.668 225.251) rotate(-90)" fill="#fff"/>
    <path id="XMLID_1193_" d="M204.419,21.669c-81.975,0-149.983,60.894-161.2,139.82A10.83,10.83,0,0,1,58.335,177L38.416,196.922a10.838,10.838,0,0,1-15.323,0L3.173,177A10.835,10.835,0,1,1,18.5,161.68l2.543,2.543C31.169,71.994,109.539,0,204.419,0a10.834,10.834,0,0,1,0,21.669Z" transform="translate(15.237 502.001) rotate(-90)" fill="#fff"/>
    <g id="bitcoin" transform="translate(-129.749 96.937)">
      <g id="Group_7" data-name="Group 7" transform="translate(439.749 188.063)">
        <g id="Group_6" data-name="Group 6" transform="translate(0)">
          <path id="Path_8" data-name="Path 8" d="M252.837,186.953a27.451,27.451,0,0,0,13.605-28.373c-2.326-17.559-23.256-24.187-39.769-25.582V106.6h-16.28v26.164h-10.93V106.6h-16.28v26.164H150.39v16.861H162.6c5.466,0,8.14,1.628,8.14,6.047v72.445c0,6.047-3.024,7.908-6.279,7.908H152.018v17.21h31.629v26.745h16.4V253.236h10.93v26.745h15.931V253.236h3.488c33.49,0,44.653-16.4,44.653-38.722A28.953,28.953,0,0,0,252.837,186.953Zm-53.375-36.28H211.09c8.14,0,24.187,1.4,24.187,14.652a16.4,16.4,0,0,1-14.3,17.326H199.462ZM217.486,234.4v-.116H199.462V199.4h20.931c4.884,0,23.257,1.628,23.257,14.652S234.929,234.4,217.486,234.4Z" transform="translate(-150.39 -106.601)" fill="#fff"/>
        </g>
      </g>
    </g>
  </g>
</svg>
