<svg width="18" height="12" viewBox="0 0 18 12" fill="none" xmlns="http://www.w3.org/2000/svg">
<path d="M1 5.25C0.585786 5.25 0.25 5.58579 0.25 6C0.25 6.41421 0.585786 6.75 1 6.75L1 5.25ZM17.0455 6.53033C17.3384 6.23744 17.3384 5.76256 17.0455 5.46967L12.2725 0.696699C11.9796 0.403806 11.5047 0.403806 11.2119 0.696699C10.919 0.989593 10.919 1.46447 11.2119 1.75736L15.4545 6L11.2119 10.2426C10.919 10.5355 10.919 11.0104 11.2119 11.3033C11.5047 11.5962 11.9796 11.5962 12.2725 11.3033L17.0455 6.53033ZM1 6.75L16.5152 6.75V5.25L1 5.25L1 6.75Z" fill="white" fill-opacity="0.7"/>
</svg>
