<svg width="24" height="22" viewBox="0 0 24 22" fill="none" xmlns="http://www.w3.org/2000/svg">
<path d="M13 1.69141C13 1.13912 12.5523 0.691406 12 0.691406C11.4477 0.691406 11 1.13912 11 1.69141L13 1.69141ZM11.2929 15.937C11.6834 16.3275 12.3166 16.3275 12.7071 15.937L19.0711 9.57301C19.4616 9.18249 19.4616 8.54933 19.0711 8.1588C18.6805 7.76828 18.0474 7.76828 17.6569 8.1588L12 13.8157L6.34315 8.1588C5.95262 7.76828 5.31946 7.76828 4.92893 8.1588C4.53841 8.54932 4.53841 9.18249 4.92893 9.57301L11.2929 15.937ZM11 1.69141L11 15.2299L13 15.2299L13 1.69141L11 1.69141Z" fill="#FAFBFF"/>
<path d="M1 13.5391V20.3083H23V13.5391" stroke="#FAFBFF" stroke-width="2" stroke-linecap="round"/>
</svg>
