<svg width="20" height="20" viewBox="0 0 20 20" fill="none" xmlns="http://www.w3.org/2000/svg">
<path d="M16.168 3.43085H3.81934V14.6543H16.168V3.43085Z" fill="#E84142"/>
<path fill-rule="evenodd" clip-rule="evenodd" d="M19.9935 10C19.9935 15.5156 15.5194 19.9867 10.0002 19.9867C4.48101 19.9867 0.00683594 15.5156 0.00683594 10C0.00683594 4.4845 4.48101 0.0133057 10.0002 0.0133057C15.5194 0.0133057 19.9935 4.4845 19.9935 10ZM7.16835 13.9742H5.22892C4.82139 13.9742 4.62009 13.9742 4.49735 13.8958C4.36477 13.8098 4.28376 13.6676 4.27394 13.5105C4.26657 13.3658 4.36724 13.1891 4.56854 12.8358L9.35723 4.40074C9.56099 4.04255 9.66409 3.86345 9.79421 3.79721C9.93414 3.72607 10.1011 3.72607 10.241 3.79721C10.3711 3.86345 10.4742 4.04255 10.678 4.40074L11.6625 6.11808L11.6675 6.12684C11.8876 6.51111 11.9992 6.70598 12.0479 6.9105C12.1019 7.13376 12.1019 7.36928 12.0479 7.59253C11.9988 7.79861 11.8883 7.99489 11.6649 8.38497L9.14952 12.8285L9.14302 12.8399C8.92149 13.2273 8.80922 13.4237 8.65362 13.5718C8.48423 13.7338 8.28046 13.8515 8.05706 13.9178C7.85329 13.9742 7.62499 13.9742 7.16835 13.9742ZM12.0661 13.9742H14.845C15.255 13.9742 15.4613 13.9742 15.5841 13.8934C15.7166 13.8075 15.8 13.6626 15.8075 13.5057C15.8146 13.3657 15.7161 13.1959 15.5231 12.8631C15.5165 12.8518 15.5098 12.8403 15.503 12.8285L14.111 10.4488L14.0952 10.422C13.8996 10.0915 13.8008 9.92453 13.674 9.86001C13.5342 9.78885 13.3696 9.78885 13.2297 9.86001C13.102 9.92624 12.9989 10.1004 12.7952 10.4513L11.4081 12.831L11.4034 12.8392C11.2003 13.1895 11.0988 13.3645 11.1062 13.5081C11.116 13.6652 11.197 13.8098 11.3295 13.8958C11.4499 13.9742 11.6561 13.9742 12.0661 13.9742Z" fill="#06070B"/>
</svg>
