<svg width="396" height="441" viewBox="0 0 396 441" fill="none" xmlns="http://www.w3.org/2000/svg">
<g style="mix-blend-mode:luminosity">
<path d="M367.715 100.32C376.018 92.3541 384.77 84.4653 392.838 77.8677C396.608 74.7581 400.379 71.6489 404.071 68.9956C423.33 69.9505 443.332 71.9717 469.525 78.3407C478.294 89.2338 488.625 101.803 500.088 123.956C496.318 127.066 492.02 130.554 487.722 134.042C479.048 141.475 469.769 149.743 460.333 158.924C442.597 154.474 422.244 149.106 393.336 145.089C385.798 129.712 378.554 115.324 367.715 100.32Z" fill="url(#paint0_linear_533_1800)"/>
<path d="M274.455 80.1274C280.491 74.5894 286.528 69.052 291.959 64.3494C294.674 61.9982 297.312 60.1031 299.5 58.1306C316.475 53.5297 333.899 49.0056 358.883 46.2473C372.34 51.3716 380.192 54.1263 393.531 65.3337C389.84 67.9871 386.518 71.1734 382.748 74.2827C374.68 80.8803 366.455 88.3904 358.152 96.3562C341.432 96.7757 322.465 96.8101 298.38 99.7226C291.759 92.484 284.768 84.7126 274.455 80.1274Z" fill="url(#paint1_linear_533_1800)"/>
<path d="M331.911 325.209C344.629 307.672 358.247 290.289 372.235 273.438C395.069 277.823 414.758 281.669 437.884 287.043C448.33 315.124 453.251 329.583 460.69 348.229C448.362 363.486 436.484 378.821 425.055 394.231C403.784 391.523 381.985 389.194 360.713 386.486C351.985 369.966 344.154 353.599 331.911 325.209Z" fill="url(#paint2_linear_533_1800)"/>
<path d="M241.416 245.805C253.373 230.015 265.408 213.769 278.263 198.133C300.512 200.539 316.919 201.944 338.64 204.729C356.896 251.991 356.896 251.991 362.422 265.614C348.434 282.464 335.266 299.925 322.098 317.385C280.845 309.842 273.208 308.533 259.808 305.766C254.087 287.884 248.953 271.98 241.416 245.805Z" fill="url(#paint3_linear_533_1800)"/>
<path d="M186.224 182.363C194.623 171.127 203.027 159.892 212.245 149.266C233.616 148.705 243.363 148.499 254.986 148.144C259.77 160.701 263.382 169.302 271.388 192.74C259.06 207.997 246.654 223.71 235.226 239.121C220.479 236.123 206.099 233.658 192.038 229.369C186.748 192.781 186.224 182.363 186.224 182.363Z" fill="url(#paint4_linear_533_1800)"/>
<path d="M167.492 477.753C173.333 489.555 179.542 501.888 185.831 513.762C204.737 522.167 213.33 525.991 223.722 530.118C229.778 521.769 234.467 515.997 244.548 500.358C235.82 483.835 227.169 466.859 218.967 449.961C205.197 446.661 192.248 443.971 179.138 442.193C169.35 469.621 167.492 477.753 167.492 477.753Z" fill="#C4C4C4"/>
<path d="M167.492 477.753C173.333 489.555 179.542 501.888 185.831 513.762C204.737 522.167 213.33 525.991 223.722 530.118C229.778 521.769 234.467 515.997 244.548 500.358C235.82 483.835 227.169 466.859 218.967 449.961C205.197 446.661 192.248 443.971 179.138 442.193C169.35 469.621 167.492 477.753 167.492 477.753Z" fill="url(#paint5_linear_533_1800)"/>
<path d="M350.053 200.623C363.885 184.685 378.088 169.28 392.134 154.787C413.699 158.484 432.196 161.187 459.053 169.078C466.2 186.735 472.312 202.337 481.781 230.721C468.262 244.835 454.059 260.24 440.754 275.799C420.773 270.964 406.104 267.51 374.735 261.662C366.182 241.416 358.079 221.248 350.053 200.623Z" fill="#222427"/>
<path d="M263.615 143.53C275.103 130.476 286.512 117.878 297.765 106.193C315.091 104.939 332.866 103.761 357.83 103.816C365.173 114.934 372.437 126.509 383.08 148.052C369.561 162.165 355.358 177.57 341.526 193.508C321.075 191.41 308.867 189.786 281.521 187.445C274.96 171.766 269.512 157.686 263.615 143.53Z" fill="url(#paint6_linear_533_1800)"/>
<path d="M368.572 44.1502C376.933 38.5416 384.004 35.0593 389.865 33.2472C408.382 33.136 426.821 33.4807 451.902 38.2505C464.988 42.8418 478.524 47.5101 495.008 59.2567C487.644 61.7498 479.439 66.4462 469.125 72.6589C451.682 69.1986 431.622 64.8201 404.119 63.3907C394.276 56.0691 383.983 48.6705 368.572 44.1502Z" fill="url(#paint7_linear_533_1800)"/>
<path d="M226.408 368.609C236.118 352.434 246.883 335.5 258.547 318.721C272.845 321.642 292.983 325.565 320.837 330.341C329.917 350.207 338.177 369.464 350.089 391.694C338.425 408.473 327.738 424.95 318.027 441.125C297.655 438.571 278.551 436.704 255.425 431.33C246.696 414.81 236.932 396.235 226.408 368.609Z" fill="url(#paint8_linear_533_1800)"/>
<path d="M162.929 280.244C170.744 267.03 179.534 253.513 189.304 239.696C199.852 242.913 211.296 246.283 232.704 250.893C237.741 270.067 242.564 287.795 250.569 311.233C238.905 328.012 228.14 344.946 218.507 360.665C204.074 355.842 188.738 350.866 173.582 342.163C163.49 295.833 162.929 280.244 162.929 280.244Z" fill="url(#paint9_linear_533_1800)"/>
<path d="M335.285 81.8526C340.456 81.631 345.274 80.2434 348.852 77.9458C352.43 75.6482 354.339 72.7158 354.228 69.6882C354.116 66.6608 351.998 63.901 348.263 61.9171C344.528 59.9332 339.623 58.9628 334.452 59.1845C329.28 59.4062 324.462 60.7937 320.884 63.0913C319.692 63.8567 318.674 64.7008 317.857 65.6007C317.708 65.7653 317.808 65.963 318.081 66.0422C318.354 66.1213 318.696 66.0521 318.845 65.8878C319.615 65.0399 320.574 64.2444 321.697 63.5231C325.067 61.3594 329.605 60.0526 334.476 59.8438C339.346 59.6349 343.966 60.549 347.484 62.4175C351.002 64.2859 352.997 66.8852 353.102 69.7367C353.207 72.5881 351.408 75.3498 348.039 77.5141C344.669 79.6778 340.131 80.9846 335.26 81.1932C330.39 81.4022 325.77 80.4881 322.252 78.6197C318.734 76.7512 316.739 74.1519 316.634 71.3004C316.584 69.9216 316.973 68.5642 317.791 67.2661C317.9 67.0918 317.754 66.9059 317.462 66.8504C317.171 66.795 316.846 66.8912 316.737 67.065C315.868 68.4445 315.455 69.8855 315.508 71.3488C315.619 74.3764 317.738 77.1363 321.473 79.1201C325.208 81.1039 330.113 82.0742 335.285 81.8526Z" fill="white"/>
<path d="M350.541 68.8412C350.848 68.8024 351.055 68.626 351.004 68.4478C350.423 66.41 348.758 64.6122 346.191 63.2485C339.676 59.7883 329.298 60.2333 323.058 64.2407C316.818 68.2475 317.041 74.3227 323.556 77.7828C330.071 81.2434 340.448 80.7983 346.688 76.791C349.614 74.9122 351.226 72.5088 351.227 70.0237C351.227 69.8417 350.974 69.7015 350.664 69.711C350.353 69.72 350.1 69.8753 350.1 70.0577C350.099 72.3716 348.599 74.6098 345.875 76.3587C340.064 80.0902 330.402 80.5045 324.335 77.2828C318.269 74.0608 318.061 68.4038 323.872 64.6724C329.683 60.9412 339.345 60.5268 345.411 63.7487C347.802 65.0184 349.352 66.6922 349.893 68.5893C349.944 68.7675 350.234 68.8805 350.541 68.8412Z" fill="white"/>
<path d="M335.966 64.0329C335.498 64.0225 335.043 64.1365 334.717 64.3454L327.43 69.0247C326.465 69.6447 325.865 70.4363 325.741 71.255C325.617 72.0732 325.974 72.8862 326.745 73.5444L329.197 75.636C330.143 76.4434 331.665 76.9283 333.37 76.9658C335.076 77.0033 336.733 76.5889 337.918 75.8283L344.251 71.762C344.752 71.4397 344.822 70.9762 344.421 70.634L341.778 68.379L343.483 67.2845C343.877 67.0316 343.94 66.6638 343.637 66.3905L342.471 65.34C342.299 65.1849 342.016 65.0909 341.695 65.0814C341.374 65.0721 341.062 65.1488 340.839 65.2925L339.31 66.274L337.112 64.3981C336.852 64.1764 336.434 64.0432 335.966 64.0329ZM342.684 66.7711C342.711 66.7961 342.706 66.8293 342.67 66.8523L335.515 71.4463L334.407 70.4487C334.38 70.4237 334.386 70.3905 334.421 70.3675L341.576 65.7731L342.684 66.7711ZM336.223 68.2566L333.608 69.9353C333.214 70.1883 333.151 70.5556 333.454 70.8292L334.621 71.8798C334.793 72.035 335.075 72.1286 335.396 72.138C335.717 72.1478 336.029 72.0706 336.252 71.9273L338.69 70.362L339.546 71.092L334.801 74.1394C334.524 74.3176 334.151 74.4167 333.777 74.4118C333.388 74.4069 333.041 74.2985 332.826 74.1147L330.374 72.0231C329.902 71.6203 329.985 71.0743 330.576 70.6954L335.428 67.5787L336.223 68.2566ZM337.021 67.7438L336.081 66.9422C335.961 66.8394 335.767 66.7775 335.55 66.7731C335.333 66.7682 335.123 66.8212 334.972 66.9177L329.762 70.2631C328.804 70.8784 328.67 71.7636 329.435 72.4167L331.887 74.5083C332.296 74.8574 332.955 75.0632 333.695 75.0731C334.404 75.0822 335.104 74.8992 335.615 74.5716L340.589 71.3774C340.821 71.2284 340.854 71.0133 340.668 70.8549L339.489 69.8492L340.98 68.8918L343.483 71.0272C343.59 71.1191 343.572 71.2433 343.437 71.3297L337.104 75.396C336.158 76.004 334.833 76.3356 333.47 76.3055C332.107 76.2755 330.892 75.8878 330.135 75.2423L327.683 73.1507C327.052 72.6131 326.761 71.9485 326.863 71.2797C326.964 70.6109 327.454 69.9635 328.243 69.4569L335.531 64.7772C335.65 64.7006 335.792 64.6917 335.866 64.6932C335.94 64.6953 336.078 64.7102 336.173 64.7912L338.512 66.7863L337.021 67.7438Z" fill="white"/>
<path d="M202.167 195.607C201.727 194.622 203.233 192.791 204.263 193.068C205.123 193.149 205.202 194.436 204.433 195.342C203.685 196.281 202.415 196.443 202.167 195.607ZM201.97 207.718C201.776 207.097 202.498 206.013 203.221 205.859C204.026 205.539 204.487 206.38 204.025 207.217C203.561 208.279 202.101 208.624 201.97 207.718ZM207.095 181.459C206.836 182.601 205.167 183.285 204.959 182.324C204.675 181.618 205.48 180.641 206.24 180.292C206.853 180.269 207.366 180.648 207.095 181.459ZM207.369 203.312C206.797 202.35 208.052 200.338 209.336 200.118C210.646 199.773 211.19 201.377 210.178 202.69C209.359 203.909 207.772 204.252 207.369 203.312ZM210.254 185.053C209.025 184.925 209.239 182.802 210.564 181.814C211.614 180.92 212.74 181.276 212.945 182.229C213.027 183.551 211.432 185.323 210.254 185.053ZM211.458 194.192C210.351 194.546 209.648 193.738 209.702 192.652C209.931 191.873 210.325 190.98 211.067 190.446C212.111 189.558 213.389 189.667 213.708 190.591C213.911 190.998 213.744 191.602 213.652 192.14C213.179 193.066 212.359 193.976 211.458 194.192ZM210.879 212.292C210.375 211.408 211.696 209.597 212.762 209.662C213.698 209.59 213.931 210.831 213.224 211.8C212.55 212.809 211.176 213.104 210.879 212.292ZM215.598 172.355C215.032 171.649 215.982 169.899 217.072 169.67C218.078 169.299 218.681 170.372 218.056 171.439C217.512 172.572 216.034 173.125 215.598 172.355ZM215.688 187.849C215.351 186.498 216.178 184.513 217.563 183.258C219.259 181.64 221.574 181.509 222.262 182.993C223.11 184.492 221.896 187.436 219.876 188.708C218.047 190.008 216.009 189.563 215.688 187.849ZM214.81 196.657C214.257 195.215 215.154 192.768 216.876 191.457C218.574 190.017 220.693 190.072 221.309 191.521C222.03 192.941 221.049 195.559 219.248 196.907C217.492 198.339 215.359 198.208 214.81 196.657ZM216.644 204.64C215.634 204.829 215.086 204.017 215.14 203.012C215.4 201.868 216.318 200.732 217.396 200.284C218.444 200.032 219.371 200.57 219.224 201.746C219.18 203.006 217.821 204.514 216.644 204.64ZM218.204 178.908C217.628 177.808 218.915 175.637 220.355 175.249C221.903 174.685 222.743 176.39 221.687 177.988C220.775 179.591 218.676 180.135 218.204 178.908ZM221.14 198.18C220.916 196.754 221.821 194.766 223.265 193.587C224.731 192.333 226.584 192.089 227.433 193.075C228.705 194.282 227.753 197.525 225.644 199.026C223.69 200.608 221.374 200.134 221.14 198.18ZM223.117 181.375C222.885 179.993 223.65 178.052 225.05 176.838C226.673 175.307 228.841 175.131 229.614 176.429C230.533 177.756 229.64 180.525 227.784 181.985C225.841 183.657 223.419 183.324 223.117 181.375ZM221.658 207.633C221.334 206.442 222.914 204.523 224.111 204.676C225.225 204.653 225.447 206.227 224.496 207.37C223.576 208.646 221.847 208.811 221.658 207.633ZM227.781 170.751C226.723 171.115 225.885 170.591 225.963 169.472C226.209 168.511 227.018 167.402 227.957 167.181C229.22 166.71 229.889 168.037 229.165 169.343C228.847 169.948 228.3 170.377 227.781 170.751ZM221.498 214.03C221.255 213.326 222.038 212.125 222.866 212.046C223.828 211.792 224.019 213.174 223.15 213.972C222.532 214.63 221.704 214.606 221.498 214.03ZM227.487 163.211C227.172 162.762 227.553 161.765 228.211 161.346C228.945 160.752 229.808 161.161 229.594 162.012C229.557 163.126 227.855 164.008 227.487 163.211ZM228.58 191.666C228.307 189.707 230.256 186.908 232.337 186.255C234.451 185.469 236.043 187.14 235.304 189.461C234.848 191.218 233.153 193.009 231.549 193.453C230.006 193.933 228.717 193.151 228.58 191.666ZM229.57 183.268C229.249 181.291 231.239 178.415 233.361 177.794C235.436 177.045 236.973 178.666 236.314 180.918C235.831 182.994 233.57 185.115 231.79 185.126C230.59 185.223 229.717 184.45 229.57 183.268ZM228.93 199.069C228.864 197.654 230.61 195.77 231.883 195.959C233.266 195.958 233.393 198.031 232.11 199.362C230.85 200.847 228.894 200.631 228.93 199.069ZM231.907 174.415C231.538 173.25 232.821 171.283 234.182 170.962C235.695 170.443 236.496 172.135 235.463 173.706C234.5 175.422 232.203 175.871 231.907 174.415ZM239.289 165.504C238.305 166.309 237.197 165.741 237.495 164.612C237.55 164.079 237.995 163.58 238.372 163.133C238.927 162.894 239.591 162.575 239.954 162.922C240.658 163.329 240.263 164.865 239.289 165.504ZM232.904 205.502C232.387 204.693 233.509 202.952 234.599 202.832C235.572 202.647 235.987 203.784 235.322 204.821C234.7 205.904 233.255 206.317 232.904 205.502ZM237.327 184.986C236.927 183.839 238.219 181.826 239.581 181.524C241.12 180.957 241.93 182.707 240.86 184.277C239.904 185.95 237.621 186.425 237.327 184.986ZM238.28 193.563C237.852 192.614 238.998 190.81 240.181 190.544C241.162 190.207 241.88 190.956 241.616 192.018C241.498 192.865 240.715 193.637 240 194.118C239.258 194.333 238.465 194.266 238.28 193.563ZM240.501 174.909C239.962 173.965 241.128 172.024 242.391 171.739C243.731 171.299 244.364 172.888 243.36 174.232C242.549 175.484 240.915 175.867 240.501 174.909ZM248.506 169.314C247.711 170.056 246.889 169.726 246.823 168.945C247.031 168.234 247.592 167.378 248.316 167.292C249.303 167.081 249.429 168.524 248.506 169.314ZM244.823 195.256C244.263 195.232 243.739 194.916 243.976 194.144C244.174 193.067 245.723 192.286 246.08 193.067C246.514 193.734 245.671 194.923 244.823 195.256ZM246.96 182.629C246.121 182.694 245.837 181.645 246.39 180.727C246.662 180.149 247.226 179.83 247.706 179.556C247.938 179.551 248.172 179.54 248.406 179.527C248.726 179.734 249.037 180.032 248.962 180.566C248.955 181.515 247.794 182.729 246.96 182.629Z" fill="white"/>
<path d="M263.738 401.278L263.762 401.267L270.947 394.468L284.239 403.015L284.278 403.04L284.613 403.146L297.551 402.84C297.588 402.845 297.622 402.843 297.652 402.832L297.685 402.843L297.791 402.757C297.853 402.744 297.899 402.701 297.918 402.636L305.161 393.302L305.203 393.246L303.964 378.142C303.957 378.054 303.942 378.03 303.8 377.8C303.733 377.691 303.633 377.53 303.506 377.327C303.266 376.943 302.913 376.378 302.457 375.651C301.69 374.426 300.621 372.721 299.279 370.58C296.994 366.939 294.68 363.253 294.656 363.217L294.643 363.195L294.408 362.897L294.257 362.849L280.624 354.069L280.584 354.044L280.248 353.937L267.327 354.288L267.325 354.287C267.28 354.272 267.236 354.266 267.195 354.27C267.155 354.274 267.119 354.288 267.09 354.311L266.979 354.401L259.826 363.733C259.789 363.745 259.759 363.767 259.738 363.8C259.717 363.833 259.707 363.874 259.708 363.92C259.683 363.966 259.674 364.023 259.679 364.085L260.908 379.07L260.964 379.14C260.973 379.175 260.988 379.21 261.007 379.244L261.007 379.255L269.882 393.368L262.78 400.046C262.731 400.089 262.695 400.149 262.678 400.221C262.645 400.365 262.659 400.534 262.718 400.708C262.761 400.825 262.839 400.936 262.936 401.019C263.052 401.147 263.192 401.24 263.331 401.28C263.48 401.328 263.621 401.327 263.738 401.278ZM284.599 397.903L294.114 401.533L284.913 401.739L284.599 397.903ZM283.724 401.361L273.996 395.134L283.409 397.524L283.724 401.361ZM270.059 362.128L261.964 363.31L267.467 356.176L270.059 362.128ZM294.998 383.695L303.344 392.267L294.621 393.547L294.998 383.695ZM294.803 394.956L302.899 393.773L297.395 400.907L294.803 394.956ZM293.756 395.204L296.346 401.119L286.231 397.265L286.121 397.225L293.756 395.204ZM283.171 361.267L283.275 361.295L293.287 363.843L292.254 366.523L291.555 368.383L283.171 361.267ZM303.844 391.309L295.474 382.711L302.841 379.078L303.844 391.309ZM283.267 395.793L274.318 388.19L279.499 387.231L282.523 386.726L283.267 395.794L283.267 395.793ZM283.713 387.108L292.601 394.006L284.456 396.171L283.713 387.108ZM293.76 383.319L293.39 393.278L284.347 386.257L293.76 383.319ZM273.442 378.094L281.711 385.419L273.368 386.91L271.3 376.179L273.442 378.094ZM282.515 372.507L293.212 381.991L288.375 383.451L283.536 384.956L282.515 372.507ZM282.347 384.577L271.651 375.135L276.488 373.632L281.325 372.129L282.347 384.577ZM291.599 379.177L283.155 371.709L291.498 370.219L293.563 380.91L291.599 379.177ZM271.101 373.765L271.475 363.849L278.308 369.141L280.518 370.868L271.101 373.765ZM281.598 361.336L290.542 368.936L285.239 369.857L282.342 370.396L281.598 361.336ZM281.152 370.02L272.264 363.124L280.409 360.957L281.152 370.02ZM281.698 395.822L281.673 395.814L271.576 393.24L272.608 390.56L273.308 388.7L281.698 395.822ZM294.429 364.751L301.429 375.861L292.7 369.328L294.429 364.751ZM271.105 361.879L268.515 355.965L278.717 359.845L278.747 359.857L271.105 361.879ZM269.392 374.416L262.021 378.008L261.018 365.778L269.392 374.416ZM270.433 392.332L263.433 381.222L272.161 387.755L270.433 392.332ZM292.746 370.694L302.151 377.739L294.803 381.32L292.746 370.694ZM281.138 355.723L290.866 361.948L281.453 359.559L281.138 355.723ZM280.263 359.181L270.748 355.551L279.948 355.344L280.263 359.18L280.263 359.181ZM269.864 373.388L261.519 364.817L270.242 363.537L269.864 373.388ZM272.115 386.389L262.709 379.344L270.059 375.763L272.115 386.389Z" fill="white"/>
</g>
<defs>
<linearGradient id="paint0_linear_533_1800" x1="523.83" y1="-21.5236" x2="255.747" y2="366.833" gradientUnits="userSpaceOnUse">
<stop stop-color="#222427"/>
<stop offset="1" stop-color="#3A3B3F"/>
</linearGradient>
<linearGradient id="paint1_linear_533_1800" x1="437.693" y1="-80.9224" x2="169.611" y2="307.432" gradientUnits="userSpaceOnUse">
<stop stop-color="#222427"/>
<stop offset="1" stop-color="#3A3B3F"/>
</linearGradient>
<linearGradient id="paint2_linear_533_1800" x1="601.612" y1="32.2273" x2="333.53" y2="420.583" gradientUnits="userSpaceOnUse">
<stop stop-color="#222427"/>
<stop offset="1" stop-color="#3A3B3F"/>
</linearGradient>
<linearGradient id="paint3_linear_533_1800" x1="499.776" y1="-38.0831" x2="231.694" y2="350.273" gradientUnits="userSpaceOnUse">
<stop stop-color="#222427"/>
<stop offset="1" stop-color="#3A3B3F"/>
</linearGradient>
<linearGradient id="paint4_linear_533_1800" x1="418.164" y1="-94.4393" x2="150.082" y2="293.916" gradientUnits="userSpaceOnUse">
<stop stop-color="#222427"/>
<stop offset="1" stop-color="#3A3B3F"/>
</linearGradient>
<linearGradient id="paint5_linear_533_1800" x1="503.092" y1="-25.903" x2="186.147" y2="502.764" gradientUnits="userSpaceOnUse">
<stop stop-color="#222427"/>
<stop offset="1" stop-color="#3A3B3F"/>
</linearGradient>
<linearGradient id="paint6_linear_533_1800" x1="463.809" y1="-62.908" x2="195.725" y2="325.447" gradientUnits="userSpaceOnUse">
<stop stop-color="#222427"/>
<stop offset="1" stop-color="#3A3B3F"/>
</linearGradient>
<linearGradient id="paint7_linear_533_1800" x1="494.571" y1="-41.7049" x2="226.488" y2="346.653" gradientUnits="userSpaceOnUse">
<stop stop-color="#222427"/>
<stop offset="1" stop-color="#3A3B3F"/>
</linearGradient>
<linearGradient id="paint8_linear_533_1800" x1="547.737" y1="-4.96485" x2="279.656" y2="383.39" gradientUnits="userSpaceOnUse">
<stop stop-color="#222427"/>
<stop offset="1" stop-color="#3A3B3F"/>
</linearGradient>
<linearGradient id="paint9_linear_533_1800" x1="453.117" y1="-70.2936" x2="185.036" y2="318.061" gradientUnits="userSpaceOnUse">
<stop stop-color="#222427"/>
<stop offset="1" stop-color="#3A3B3F"/>
</linearGradient>
</defs>
</svg>
