<svg width="40" height="40" viewBox="0 0 40 40" fill="none" xmlns="http://www.w3.org/2000/svg">
<path d="M40 20C40 25.3422 37.9195 30.3648 34.1422 34.1422C30.3648 37.9195 25.3422 40 20 40C14.6578 40 9.63516 37.9195 5.85781 34.1422C2.08047 30.3648 0 25.3422 0 20C0 14.6578 2.08047 9.63516 5.85781 5.85781C9.63516 2.08047 14.6578 0 20 0C25.3422 0 30.3648 2.08047 34.1422 5.85781C37.9195 9.63516 40 14.6578 40 20Z" fill="#7C7C7C" fill-opacity="0.33"/>
<path d="M37 20C37 24.5409 35.2316 28.8101 32.0209 32.0209C28.8101 35.2316 24.5409 37 20 37C15.4591 37 11.1899 35.2316 7.97914 32.0209C4.7684 28.8101 3 24.5409 3 20C3 15.4591 4.7684 11.1899 7.97914 7.97914C11.1899 4.7684 15.4591 3 20 3C24.5409 3 28.8101 4.7684 32.0209 7.97914C35.2316 11.1899 37 15.4591 37 20Z" fill="white" fill-opacity="0.32"/>
<path d="M36.5 20C36.5 24.4083 34.7843 28.5503 31.6673 31.6673C28.5503 34.7843 24.4083 36.5 20 36.5C15.5917 36.5 11.4497 34.7843 8.33269 31.6673C5.21572 28.5503 3.5 24.4083 3.5 20C3.5 15.5917 5.21572 11.4497 8.33269 8.33269C11.4497 5.21572 15.5917 3.5 20 3.5C24.4083 3.5 28.5503 5.21572 31.6673 8.33269C34.7843 11.4497 36.5 15.5917 36.5 20Z" stroke="white" stroke-opacity="0.22"/>
<path d="M18.204 30.388V27.544H21.096V30.388H18.204ZM18.204 11.188V8.344H21.096V11.188H18.204ZM19.716 28.36C18.5 28.36 17.412 28.136 16.452 27.688C15.492 27.24 14.704 26.608 14.088 25.792C13.48 24.976 13.092 24.008 12.924 22.888L15.78 22.432C16.004 23.416 16.484 24.2 17.22 24.784C17.964 25.36 18.852 25.648 19.884 25.648C20.876 25.648 21.692 25.416 22.332 24.952C22.972 24.48 23.292 23.884 23.292 23.164C23.292 22.66 23.14 22.252 22.836 21.94C22.532 21.62 22.044 21.356 21.372 21.148L17.208 19.852C14.784 19.1 13.572 17.628 13.572 15.436C13.572 14.412 13.816 13.52 14.304 12.76C14.8 11.992 15.496 11.404 16.392 10.996C17.288 10.58 18.344 10.376 19.56 10.384C20.688 10.392 21.692 10.596 22.572 10.996C23.46 11.396 24.196 11.972 24.78 12.724C25.372 13.476 25.792 14.38 26.04 15.436L23.076 15.976C22.964 15.408 22.744 14.908 22.416 14.476C22.088 14.044 21.676 13.708 21.18 13.468C20.684 13.228 20.132 13.1 19.524 13.084C18.94 13.076 18.416 13.168 17.952 13.36C17.488 13.544 17.12 13.808 16.848 14.152C16.576 14.488 16.44 14.868 16.44 15.292C16.44 15.764 16.628 16.168 17.004 16.504C17.388 16.84 17.992 17.128 18.816 17.368L21.924 18.268C23.42 18.7 24.496 19.288 25.152 20.032C25.816 20.768 26.148 21.748 26.148 22.972C26.148 24.044 25.88 24.984 25.344 25.792C24.808 26.6 24.056 27.232 23.088 27.688C22.12 28.136 20.996 28.36 19.716 28.36Z" fill="url(#paint0_linear_855_1548)"/>
<defs>
<linearGradient id="paint0_linear_855_1548" x1="20" y1="9" x2="20" y2="29" gradientUnits="userSpaceOnUse">
<stop stop-color="#06070B"/>
<stop offset="1" stop-color="#06070B" stop-opacity="0.67"/>
</linearGradient>
</defs>
</svg>
