<svg xmlns="http://www.w3.org/2000/svg" width="1555.595" height="881.979" viewBox="0 0 1555.595 881.979">
    <g fill="none" stroke-dasharray="0.1 2" stroke-linecap="round" stroke-linejoin="round" opacity="0.1">
        <path stroke="#ff9166" d="M258.966 382.729c84.579-52.92 140.616-137.241 184.628-203.468C519.116 65.621 517.277 16.947 556.631 9.707c79.022-14.54 107.382 177.869 276.313 263.753 173.775 88.345 340.027-15.477 378.046 54.007 31.807 58.13-45.694 201.82-163.276 246.169C872.644 639.668 760.862 428.09 540.3 465.622c-190.961 32.5-230.842 212.145-383.071 190.909-115.369-16.1-211.678-135.909-192.162-188.4 20.313-54.622 151.109 3.94 293.899-85.402z" transform="translate(38.04 -8.477)"/>
        <path stroke="#fc9367" d="M449.995 180.006C527.52 71.335 522.932 21.722 561.815 14.809c78.3-13.79 106.862 174.553 272.873 258.72 170.83 86.591 333.855-14.561 372.216 53.94 33.114 59.128-42.079 203.622-158.273 247.724-172.643 65.442-284.223-146.155-505-109.814C354.9 497.024 314.484 673.318 164.382 652.936 50.425 637.555-44.043 520.8-26.564 468.662c13.573-40.485 86.871-21.511 181.937-46.319a379.319 379.319 0 0 0 106.47-46.064c29.925-18.761 56.58-40.932 80.37-64.294 44.245-43.525 78.304-90.658 107.782-131.979z" transform="translate(38.04 -8.477) translate(8.16 4.788)"/>
        <path stroke="#f89667" d="M456.407 180.753C535.814 77.149 528.6 26.5 567.012 19.911 644.585 6.873 673.353 191.149 836.446 273.6c167.881 84.838 327.713-13.661 366.384 53.87 34.433 60.13-38.461 205.424-153.269 249.278-170.219 64.852-281.7-147.413-502.588-111.61-186.59 30.244-227.452 203.73-375.433 184.206C59 634.676-33.635 520.942-18.187 469.192c12.083-40.479 82.785-24.31 176.4-51.328a417.523 417.523 0 0 0 106.519-48.03c30.3-19.039 57.55-41.061 81.846-63.744C391.7 263.816 426 220.424 456.407 180.753z" transform="translate(38.04 -8.477) translate(16.303 9.577)"/>
        <path stroke="#f59868" d="M462.833 181.512c81.131-98.462 71.43-150.318 109.388-156.484 76.818-12.482 105.821 167.919 265.994 248.655 164.936 83.084 321.607-12.771 360.553 53.8 35.764 61.135-34.843 207.228-148.266 250.833-167.791 64.265-279.117-148.337-500.174-113.407-184.4 29.136-225.76 199.524-371.615 180.854C67.585 631.81-23.222 521.053-9.8 469.733c10.6-40.516 78.712-27.141 170.864-56.339 32.9-10.423 69.058-26.405 106.567-49.994 30.68-19.316 58.521-41.19 83.325-63.2 45.997-41.014 80.451-80.549 111.877-118.688z" transform="translate(38.04 -8.477) translate(24.428 14.361)"/>
        <path stroke="#f29b68" d="M469.276 182.262c82.662-93.273 70.679-146.317 108.173-152.126 76.083-11.792 105.3 164.6 262.554 243.623 161.989 81.33 315.53-11.894 354.723 53.735 37.108 62.137-31.228 209.03-143.264 252.387C886.1 643.552 774.928 430.623 553.7 464.672c-182.2 28.041-224.066 195.317-367.8 177.5C76.187 628.937-12.808 521.113-1.388 470.267c9.115-40.6 74.655-30.011 165.327-61.349 32.7-11.3 68.883-28.192 106.617-51.962 31.056-19.592 59.489-41.317 84.8-62.644 46.867-39.765 81.369-75.322 113.92-112.05z" transform="translate(38.04 -8.477) translate(32.532 19.146)"/>
        <path stroke="#ee9d69" d="M475.738 183.024C559.7 94.954 545.667 40.708 582.694 35.253c75.353-11.1 104.78 161.287 259.113 238.59 159.042 79.578 309.479-11.029 348.892 53.668 38.465 63.143-27.612 210.832-138.261 253.942C889.5 644.535 778.5 431.284 557.089 464.444 377.083 491.4 334.752 655.269 193.111 638.6 84.836 625.853-2.4 521.14 7.038 470.81c7.632-40.726 70.612-32.916 159.791-66.358 32.511-12.193 68.707-29.977 106.665-53.928a945.311 945.311 0 0 0 86.275-62.094c47.823-38.413 82.182-69.972 115.969-105.406z" transform="translate(38.04 -8.477) translate(40.614 23.94)"/>
        <path stroke="#eb9f69" d="M482.22 183.776C550.553 86.67 551.4 45.463 587.96 40.363c74.624-10.41 104.26 157.972 255.675 233.558 156.095 77.824 303.457-10.175 343.06 53.6 39.835 64.145-23.994 212.634-133.255 255.5C892.924 645.509 782.089 431.943 560.5 464.21c-177.8 25.89-220.638 186.562-360.16 170.8C93.483 622.939 8.009 521.114 15.485 471.347c6.143-40.9 66.576-35.859 154.254-71.369 32.326-13.091 68.532-31.761 106.713-55.894 31.811-20.145 61.48-41.51 87.754-61.543 48.707-37.141 77.178-71.551 118.014-98.765z" transform="translate(38.04 -8.477) translate(48.674 28.725)"/>
        <path stroke="#e8a26a" d="M488.726 184.528C555.862 90.179 557.158 50.219 593.25 45.474 667.146 35.756 696.989 200.129 845.484 274c153.15 76.068 297.458-9.332 337.23 53.531 41.217 65.147-20.376 214.438-128.252 257.051-158.092 61.9-268.752-151.97-490.528-120.608-175.6 24.832-218.941 182.305-356.34 167.451C102.151 620.026 18.4 521.045 23.956 471.882 28.6 430.765 86.5 433.043 172.674 395.5c32.145-14 68.356-33.548 106.761-57.86 32.189-20.421 62.455-41.628 89.23-60.994 49.592-35.865 77.194-67.546 120.061-92.118z" transform="translate(38.04 -8.477) translate(56.71 33.51)"/>
        <path stroke="#e4a46a" d="M495.259 185.281C561.2 93.69 562.94 54.976 598.566 50.584c73.165-9.024 103.219 151.338 248.794 223.493 150.2 74.316 291.484-8.5 331.4 53.464 42.611 66.148-16.76 216.241-123.25 258.606-155.665 61.308-266.149-152.858-488.115-122.408-173.389 23.786-217.243 178.048-352.522 164.1C110.846 617.114 28.782 520.936 32.452 472.418c3.128-41.377 58.523-41.861 143.181-81.388 31.967-14.93 68.181-35.33 106.812-59.83 32.565-20.7 63.428-41.747 90.706-60.445 50.473-34.593 77.205-63.555 122.108-85.474z" transform="translate(38.04 -8.477) translate(64.722 38.293)"/>
        <path stroke="#e1a76b" d="M501.817 186.034C566.558 97.2 568.753 59.735 603.909 55.695c72.441-8.328 102.7 148.021 245.354 218.461 147.258 72.56 285.53-7.679 325.57 53.4 44.017 67.142-13.143 218.041-118.247 260.16-153.24 60.718-263.542-153.74-485.7-124.208C399.7 486.258 355.336 637.3 222.179 624.255 119.568 614.2 39.144 520.789 40.975 472.954c1.6-41.68 54.5-44.918 137.646-86.4 31.8-15.862 68-37.119 106.86-61.792 32.943-20.974 64.4-41.865 92.183-59.9 51.352-33.319 77.22-59.55 124.153-78.828z" transform="translate(38.04 -8.477) translate(72.707 43.075)"/>
        <path stroke="#dea96b" d="M508.4 186.789c63.543-86.08 66.189-122.289 100.876-125.983 71.714-7.63 102.178 144.706 241.915 213.429 144.309 70.808 279.6-6.867 319.737 53.329 45.436 68.137-9.437 220.066-113.243 261.713C907 649.731 796.75 434.668 574.394 463.27c-168.962 21.735-213.851 169.538-344.885 157.4C128.311 611.3 49.48 520.61 49.524 473.491c.039-42.021 50.474-48.017 132.107-91.406 31.626-16.811 67.83-38.9 106.91-63.76 33.321-21.249 65.375-41.984 93.659-59.344 52.232-32.056 77.234-55.56 126.2-72.192z" transform="translate(38.04 -8.477) translate(80.664 47.855)"/>
        <path stroke="#daab6c" d="M515.021 187.543c62.345-83.323 65.442-118.285 99.659-121.625 70.993-6.931 101.658 141.389 238.477 208.4 141.362 69.054 273.68-6.065 313.9 53.259 46.868 69.125-5.811 221.89-108.24 263.269-148.246 59.89-258.319-155.468-480.878-127.8C411.2 483.765 365.788 628.322 236.877 617.085 137.094 608.389 59.8 520.4 58.11 474.029c-1.546-42.4 46.446-51.155 126.571-96.417 31.455-17.769 67.653-40.689 106.956-65.726 33.7-21.525 66.348-42.1 95.137-58.793 53.11-30.787 77.249-51.565 128.247-65.55z" transform="translate(38.04 -8.477) translate(88.593 52.635)"/>
        <path stroke="#d7ae6c" d="M521.691 188.3c61.146-80.568 64.7-114.276 98.443-117.27C690.4 64.8 721.271 209.1 855.168 274.4c138.417 67.3 267.784-5.275 308.076 53.192 48.312 70.108-2.188 223.709-103.236 264.822C914.2 651.734 804.3 436.089 581.542 462.8 417.019 482.537 371.08 623.839 244.293 613.5c-98.37-8.02-174.181-93.335-177.55-138.935-3.161-42.8 42.414-54.327 121.036-101.426 31.285-18.742 67.478-42.476 107-67.692 34.078-21.8 67.32-42.223 96.616-58.243 53.987-29.518 77.262-47.566 130.296-58.904z" transform="translate(38.04 -8.477) translate(96.489 57.412)"/>
        <path stroke="#d4b06d" d="M528.411 189.055c59.949-77.81 63.952-110.267 97.227-112.912 69.548-5.526 100.617 134.757 231.6 198.333 135.47 65.544 261.9-4.493 302.244 53.124 49.771 71.086 1.438 225.529-98.233 266.376-143.374 58.758-253.084-157.163-476.055-131.4-162.3 18.75-208.766 156.785-333.429 147.346-96.957-7.339-171.342-90-176.332-134.813-4.815-43.233 38.37-57.536 115.5-106.436 31.112-19.727 67.3-44.262 107.054-69.659 34.454-22.078 68.289-42.343 98.09-57.692 54.853-28.256 77.267-43.574 132.334-52.267z" transform="translate(38.04 -8.477) translate(104.349 62.188)"/>
        <path stroke="#d0b26d" d="M535.191 189.812C593.943 114.756 598.4 83.555 631.2 81.258c68.829-4.82 100.1 131.44 228.156 193.3 132.525 63.792 256.041-3.72 296.414 53.057 51.241 72.059 5.063 227.348-93.229 267.931C921.6 653.736 812.082 437.552 588.9 462.344c-160.073 17.78-207.074 152.535-329.611 143.995-95.544-6.659-168.561-86.69-175.114-130.692-6.507-43.682 34.317-60.778 109.961-111.445 30.938-20.723 67.127-46.047 107.1-71.625 34.832-22.354 69.259-42.464 99.568-57.143 55.734-26.988 77.288-39.574 134.387-45.622z" transform="translate(38.04 -8.477) translate(112.172 66.963)"/>
        <path stroke="#cdb56e" d="M542.039 189.577c57.553-72.3 62.464-102.246 94.794-104.2 68.11-4.113 99.576 128.125 224.717 188.267 129.578 62.039 250.189-2.955 290.582 52.989 52.725 73.025 8.689 229.168-88.226 269.486-138.5 57.621-247.832-158.812-471.231-135-157.843 16.823-205.382 148.29-325.791 140.646-94.133-5.979-165.838-83.384-173.9-126.571-8.24-44.149 30.254-64.055 104.424-116.456 30.761-21.731 66.951-47.832 107.153-73.589 35.209-22.631 70.228-42.587 101.045-56.594 56.606-25.725 77.301-35.578 136.433-38.978z" transform="translate(38.04 -8.477) translate(119.952 70.813)"/>
        <path stroke="#cab76e" d="M548.962 189.032c56.355-69.542 61.721-98.231 93.578-99.84C709.931 85.79 741.6 214 863.817 272.428c126.631 60.285 244.353-2.2 284.751 52.92 54.221 73.983 12.312 230.985-83.222 271.042-136.067 57.05-245.2-159.622-468.818-136.8-155.613 15.876-203.692 144.045-321.975 137.291-92.722-5.293-163.168-80.083-172.68-122.449-10.019-44.621 26.176-67.362 98.888-121.465 30.578-22.751 66.776-49.618 107.2-75.555 35.587-22.909 71.2-42.711 102.521-56.044 57.478-24.461 77.318-31.58 138.48-32.336z" transform="translate(38.04 -8.477) translate(127.689 74.375)"/>
        <path stroke="#c6ba6f" d="M555.965 188.491c55.158-66.788 60.977-94.216 92.362-95.482C715 90.318 746.862 214.5 866.163 271.21c123.686 58.531 238.533-1.453 278.921 52.853 55.73 74.931 15.938 232.8-78.219 272.6-133.633 56.478-242.571-160.416-466.407-138.6C447.081 473.005 398.459 597.863 282.3 592c-91.312-4.61-160.551-76.781-171.462-118.328-11.844-45.1 22.082-70.7 93.351-126.475 30.389-23.784 66.6-51.405 107.249-77.523 35.965-23.184 72.165-42.834 104-55.493 58.347-23.198 77.33-27.581 140.527-25.69z" transform="translate(38.04 -8.477) translate(135.38 77.936)"/>
        <path stroke="#c3bc6f" d="M563.058 187.951c53.959-64.03 60.233-90.2 91.146-91.125C720.163 94.853 752.219 215 868.6 270c120.739 56.777 232.72-.713 273.091 52.785 57.253 75.873 19.559 234.618-73.218 274.151-131.2 55.906-239.932-161.2-463.994-140.4-151.141 14.023-200.31 135.564-314.336 130.587C200.24 583.2 132.157 513.652 119.9 472.918c-13.715-45.571 17.975-74.062 87.815-131.484 30.194-24.827 66.423-53.19 107.3-79.489 36.343-23.462 73.133-42.959 105.476-54.944 59.209-21.939 77.335-23.585 142.567-19.05z" transform="translate(38.04 -8.477) translate(143.022 81.494)"/>
        <path stroke="#c0be70" d="M570.242 187.416c52.762-61.273 59.492-86.181 89.93-86.767 65.244-1.257 97.495 114.856 210.958 168.137 117.792 55.023 226.92.017 267.258 52.716 58.791 76.806 23.184 236.432-68.212 275.706-128.764 55.329-237.293-161.966-461.583-142.2-148.9 13.124-198.621 131.332-310.518 127.242-88.494-3.234-155.464-70.155-169.027-110.084-15.635-46.034 13.846-77.448 82.278-136.493 29.992-25.879 66.248-54.975 107.347-81.455 36.72-23.738 74.1-43.085 106.952-54.393 60.084-20.684 77.353-19.591 144.617-12.409z" transform="translate(38.04 -8.477) translate(150.613 85.052)"/>
        <path stroke="#bcc170" d="M577.526 186.894c51.563-58.519 58.756-83.1 88.714-82.411 64.515 1.486 96.974 111.541 207.515 163.1 114.847 53.269 221.132.742 261.428 52.65 60.342 77.727 26.808 238.245-63.208 277.26C945.643 652.25 837.324 434.776 612.8 453.5c-146.66 12.229-196.93 127.1-306.7 123.892-87.08-2.547-152.983-66.827-167.8-105.965-17.6-46.483 9.7-80.859 76.741-141.5 29.782-26.941 66.073-56.761 107.4-83.423 37.1-24.013 75.068-43.21 108.429-53.841 60.944-19.431 77.357-15.597 146.656-5.769z" transform="translate(38.04 -8.477) translate(158.152 88.603)"/>
        <path stroke="#b9c371" d="M584.911 186.382c50.364-55.763 58.026-79.1 87.5-78.053 63.777 2.261 96.454 108.224 204.077 158.072 111.9 51.515 215.352 1.457 255.6 52.581 61.906 78.639 30.43 240.057-58.207 278.813C949.976 651.97 841.869 434.336 617.118 452 472.7 463.345 421.874 574.863 314.235 572.537c-85.676-1.85-150.546-63.474-166.591-101.839-19.619-46.911 5.535-84.29 71.205-146.516 29.562-28.011 65.9-58.544 107.444-85.387C363.769 214.5 402.326 195.458 436.2 185.5c61.819-18.166 77.381-11.594 148.711.882z" transform="translate(38.04 -8.477) translate(165.637 92.152)"/>
        <path stroke="#b6c671" d="M592.4 185.876c49.167-53.007 57.3-75.091 86.281-73.7 63.041 3.036 95.933 104.907 200.638 153.04 108.953 49.761 209.581 2.166 249.765 52.513 63.486 79.539 34.053 241.869-53.2 280.367C954.414 651.7 846.522 433.92 621.534 450.5 479.359 460.981 427.977 569.14 322.47 567.691c-84.27-1.155-148.138-60.108-165.37-97.715-21.679-47.313 1.349-87.738 65.668-151.525 29.332-29.092 65.719-60.331 107.491-87.351 37.852-24.564 77-43.464 111.381-52.741 62.689-16.92 77.396-7.603 150.76 7.517z" transform="translate(38.04 -8.477) translate(173.068 95.698)"/>
        <path stroke="#b2c872" d="M599.993 185.319c47.969-50.251 56.526-70.093 85.065-69.339 62.4 1.65 95.413 101.592 197.2 148.007 106.006 48.007 203.821 2.87 243.935 52.446 65.078 80.428 37.673 243.679-48.2 281.922-119.035 53.013-226.71-164.887-451.934-149.4-139.932 9.628-191.873 114.418-295.246 113.845-82.862-.461-145.764-56.721-164.157-93.6-23.784-47.687-2.856-91.2 60.132-156.534 29.1-30.181 65.544-62.118 107.54-89.321 38.232-24.842 77.966-43.592 112.86-52.192 63.556-15.662 77.412-3.6 152.805 14.166z" transform="translate(38.04 -8.477) translate(180.443 99.26)"/>
        <path stroke="#afca72" d="M607.691 184.809c46.772-47.495 55.788-66.067 83.849-64.982 61.685 2.385 94.892 98.273 193.76 142.973 103.061 46.253 198.067 3.564 238.1 52.379 66.685 81.3 41.3 245.487-43.2 283.477-116.6 52.427-224.058-165.577-449.523-151.2C493 456.244 440.5 557.653 339.257 557.95c-81.455.237-143.411-53.311-162.937-89.475-25.931-48.026-7.081-94.681 54.595-161.545 28.847-31.274 65.369-63.9 107.59-91.285 38.607-25.12 78.932-43.723 114.336-51.642 64.423-14.413 77.421.397 154.85 20.806z" transform="translate(38.04 -8.477) translate(187.764 102.805)"/>
        <path stroke="#accd72" d="M615.494 184.308c45.573-44.738 55.048-62.039 82.633-60.626 60.975 3.126 94.372 94.96 190.319 137.945 100.112 44.5 192.322 4.252 232.273 52.309 68.308 82.168 44.916 247.295-38.193 285.031-114.174 51.843-221.406-166.246-447.11-153-135.433 7.952-188.5 105.975-287.608 107.137-80.05.941-141.08-49.875-161.721-85.352-28.115-48.331-11.327-98.169 49.058-166.555a533.635 533.635 0 0 1 107.64-93.252c38.985-25.4 79.9-43.852 115.812-51.091 65.29-13.154 77.435 4.395 156.897 27.454z" transform="translate(38.04 -8.477) translate(195.029 106.348)"/>
        <path stroke="#a9cf73" d="M623.4 183.813c44.376-41.982 54.308-58.006 81.416-56.266 60.265 3.868 93.852 91.643 186.879 132.91 97.165 42.745 186.582 4.932 226.442 52.242 69.945 83.018 48.537 249.1-33.189 286.586-111.746 51.253-218.75-166.9-444.7-154.8-133.184 7.135-186.815 101.76-283.789 103.788-78.643 1.642-138.766-46.413-160.5-81.233-30.337-48.593-15.594-101.667 43.522-171.562a500.922 500.922 0 0 1 107.687-95.22c39.365-25.671 80.867-43.981 117.291-50.542 66.155-11.909 77.441 8.394 158.941 34.097z" transform="translate(38.04 -8.477) translate(202.239 109.888)"/>
        <path stroke="#a5d273" d="M631.406 183.331c43.177-39.226 53.566-53.974 80.2-51.91 59.556 4.616 93.331 88.326 183.438 127.878 94.22 40.992 180.852 5.609 220.612 52.174 71.6 83.855 52.155 250.9-28.188 288.14-109.316 50.662-216.091-167.529-442.285-156.595-130.935 6.33-185.131 97.551-279.969 100.436-77.24 2.351-136.464-42.925-159.286-77.109-32.59-48.819-19.881-105.177 37.985-176.575a473.179 473.179 0 0 1 107.737-97.184c39.741-25.948 81.833-44.114 118.767-49.99 67.024-10.668 77.461 12.383 160.989 40.735z" transform="translate(38.04 -8.477) translate(209.395 113.423)"/>
        <path stroke="#a2d474" d="M639.507 183.991c41.98-36.47 52.828-49.94 78.984-47.552 58.847 5.37 92.811 85.009 180 122.845 91.275 39.238 175.128 6.276 214.781 52.1 73.267 84.676 55.777 252.709-23.182 289.7-106.89 50.071-213.438-168.137-439.876-158.392-128.683 5.537-183.446 93.341-276.151 97.084-75.835 3.061-134.171-39.413-158.068-72.988-34.872-49-24.189-108.689 32.449-181.584a449.291 449.291 0 0 1 107.783-99.15c40.12-26.224 82.8-44.245 120.243-49.441 67.894-9.422 77.477 16.38 163.037 47.378z" transform="translate(38.04 -8.477) translate(216.499 116.587)"/>
        <path stroke="#9fd674" d="M647.7 191.2c40.781-33.714 52.086-45.9 77.766-43.2 58.138 6.129 92.291 81.694 176.56 117.813 88.328 37.486 169.405 6.94 208.949 52.039 74.95 85.479 59.394 254.509-18.179 291.249-104.46 49.475-210.775-168.724-437.46-160.193-126.43 4.759-181.761 89.141-272.336 93.734-74.428 3.776-131.883-35.872-156.848-68.867-37.179-49.135-28.516-112.206 26.91-186.592A428.611 428.611 0 0 1 360.9 186.065c40.5-26.5 83.766-44.378 121.72-48.892 68.761-8.173 77.488 20.38 165.08 54.027z" transform="translate(38.04 -8.477) translate(223.552 117.624)"/>
        <path stroke="#9bd975" d="M655.988 198.484c39.584-30.958 51.347-41.863 76.552-38.839 57.426 6.89 91.77 78.377 173.119 112.781 85.381 35.73 163.691 7.6 203.119 51.97 76.65 86.27 63.012 256.309-13.177 292.8-102.038 48.882-208.12-169.28-435.051-161.987-124.18 3.991-180.077 84.941-268.515 90.382-73.025 4.493-129.6-32.309-155.63-64.745-39.507-49.229-32.862-115.728 21.375-191.6A410.56 410.56 0 0 1 365.66 186.16c40.874-26.777 84.733-44.511 123.2-48.341 69.627-6.933 77.501 24.376 167.128 60.665z" transform="translate(38.04 -8.477) translate(230.555 118.633)"/>
        <path stroke="#98db75" d="M664.359 205.844c38.384-28.2 50.605-37.821 75.334-34.481 56.717 7.659 91.25 75.062 169.681 107.748 82.434 33.976 157.982 8.245 197.287 51.9 78.367 87.041 66.63 258.105-8.172 294.357-99.616 48.281-205.462-169.818-432.64-163.787-121.928 3.238-178.395 80.751-264.695 87.033-71.622 5.213-127.317-28.714-154.414-60.624-41.855-49.279-37.227-119.249 15.837-196.612 26.808-39.083 64.139-76.4 107.931-105.05 41.252-27.053 85.7-44.646 124.673-47.791 70.5-5.69 77.519 28.372 169.178 67.307z" transform="translate(38.04 -8.477) translate(237.508 119.618)"/>
        <path stroke="#95de76" d="M672.81 213.268c37.187-25.445 49.865-33.775 74.119-30.123 56 8.434 90.666 71.9 166.238 102.716 79.422 32.386 152.277 8.889 191.458 51.833 80.1 87.794 70.243 259.9-3.171 295.913-97.192 47.676-202.8-170.33-430.226-165.589-119.679 2.494-176.712 76.561-260.879 83.681-70.214 5.938-125.031-25.1-153.2-56.5-44.214-49.289-41.608-122.774 10.3-201.623 26.473-40.213 63.964-78.186 107.98-107.016 41.63-27.33 86.669-44.781 126.151-47.24 71.374-4.451 77.536 32.366 171.23 73.948z" transform="translate(38.04 -8.477) translate(244.414 120.583)"/>
        <path stroke="#91e076" d="M681.338 220.747c35.99-22.689 49.125-29.73 72.9-25.765 55.291 9.213 90.148 68.582 162.8 97.682 76.476 30.632 146.575 9.529 185.626 51.768 81.848 88.528 73.859 261.7 1.833 297.466-94.771 47.068-200.143-170.812-427.815-167.389-117.426 1.767-175.025 72.381-257.059 80.331-68.809 6.669-122.741-21.467-151.978-52.38-46.585-49.254-46.009-126.294 4.764-206.631 26.128-41.344 63.789-79.973 108.028-108.984 42.007-27.606 87.636-44.914 127.627-46.691 72.243-3.207 77.547 36.367 173.274 80.593z" transform="translate(38.04 -8.477) translate(251.275 121.528)"/>
        <path stroke="#8ee277" d="M689.941 228.275c34.791-19.933 48.381-25.678 71.685-21.409 54.578 10 89.629 65.267 159.362 92.651 73.531 28.878 140.876 10.161 179.794 51.7 83.615 89.244 77.473 263.484 6.838 299.022-92.352 46.459-197.487-171.265-425.4-169.189-115.176 1.049-173.341 68.2-253.241 76.98-67.4 7.4-120.446-17.807-150.76-48.258-48.963-49.183-50.424-129.815-.773-211.642 25.773-42.474 63.613-81.758 108.078-110.948 42.383-27.883 88.6-45.053 129.1-46.142 73.108-1.968 77.556 40.36 175.317 87.235z" transform="translate(38.04 -8.477) translate(258.091 122.458)"/>
        <path stroke="#8be577" d="M698.612 235.847c33.594-17.177 47.639-21.627 70.471-17.052 53.861 10.793 89.111 61.948 155.919 87.619 70.588 27.122 135.185 10.788 173.965 51.631 85.4 89.939 81.085 265.275 11.84 300.577-89.934 45.847-194.833-171.683-422.991-170.989-112.929.345-171.656 64.035-249.422 73.63-66 8.143-118.143-14.128-149.542-44.137-51.347-49.073-54.857-133.33-6.31-216.651 25.407-43.605 63.438-83.544 108.126-112.916 42.763-28.159 89.573-45.186 130.582-45.59 73.978-.729 77.57 44.36 177.362 93.878z" transform="translate(38.04 -8.477) translate(264.863 123.372)"/>
        <path stroke="#87e778" d="M707.351 243.456c32.4-14.421 46.9-17.572 69.255-12.694 53.14 11.593 88.592 58.627 152.481 82.586 67.641 25.364 129.491 11.408 168.133 51.563 87.2 90.614 84.7 267.06 16.843 302.13-87.518 45.232-192.179-172.069-420.58-172.788-110.68-.349-169.968 59.868-245.6 70.278-64.592 8.889-115.832-10.427-148.325-40.014-53.734-48.927-59.308-136.844-11.848-221.661 25.033-44.736 63.263-85.329 108.174-114.882 43.141-28.435 90.541-45.322 132.058-45.039 74.848.51 77.583 48.357 179.409 100.521z" transform="translate(38.04 -8.477) translate(271.594 124.274)"/>
        <path stroke="#84e978" d="M716.152 251.1c31.2-11.666 46.149-13.517 68.037-8.338 52.419 12.4 88.076 55.308 149.041 77.554 64.7 23.607 123.805 12.023 162.3 51.494 89.02 91.267 88.307 268.845 21.847 303.686-85.1 44.615-189.529-172.418-418.167-174.586-108.434-1.029-168.28 55.711-241.784 66.926-63.183 9.641-113.511-6.707-147.107-35.894-56.118-48.747-63.767-140.352-17.383-226.67 24.647-45.868 63.087-87.116 108.222-116.847 43.518-28.712 91.512-45.461 133.537-44.492 75.723 1.747 77.599 52.355 181.457 107.167z" transform="translate(38.04 -8.477) translate(278.285 125.164)"/>
        <path stroke="#81ec79" d="M725.012 258.772c30-8.908 45.4-9.456 66.822-3.98 51.692 13.214 87.557 51.985 145.6 72.522 61.757 21.849 118.118 12.634 156.473 51.426 90.857 91.9 91.913 270.625 26.848 305.239C1038.065 727.972 933.873 511.25 705 507.594c-106.191-1.7-166.591 51.563-237.966 63.578-61.773 10.4-111.181-2.974-145.891-31.773-58.5-48.537-68.243-143.856-22.918-231.681 24.254-47 62.912-88.9 108.273-118.813 43.894-28.988 92.482-45.679 135.011-43.94 76.601 2.835 77.611 56.35 183.503 113.807z" transform="translate(38.04 -8.477) translate(284.936 126.044)"/>
        <path stroke="#7dee79" d="M733.929 266.465c28.8-6.152 44.654-5.393 65.6.378 50.964 14.035 87.042 48.663 142.162 67.489 58.814 20.087 112.434 13.239 150.64 51.359 92.713 92.5 95.519 272.4 31.854 306.795-80.281 43.366-184.242-173-413.342-178.186C606.9 511.948 545.95 561.718 476.7 574.526c-60.36 11.163-108.837.779-144.671-27.65-60.876-48.3-72.734-147.352-28.456-236.692 23.851-48.125 62.734-90.685 108.321-120.777 44.272-29.265 93.453-45.808 136.487-43.391C625.853 150.1 626 206.363 733.929 266.465z" transform="translate(38.04 -8.477) translate(291.551 126.917)"/>
        <path stroke="#7af17a" d="M742.9 274.18c27.6-3.4 43.906-1.328 64.39 4.734 50.229 14.864 86.526 45.338 138.721 62.457 55.873 18.326 106.752 13.839 144.81 51.291 94.588 93.087 99.123 274.176 36.857 308.348-77.878 42.74-181.607-173.229-410.933-179.982-101.71-3-163.2 43.283-230.33 56.875-58.945 11.934-106.484 4.545-143.453-23.529-63.249-48.03-77.236-150.843-33.993-241.7 23.443-49.252 62.559-92.47 108.369-122.745 44.65-29.541 94.424-45.935 137.966-42.84 78.348 5.341 77.637 64.344 187.596 127.091z" transform="translate(38.04 -8.477) translate(298.128 127.782)"/>
        <path stroke="#77f37a" d="M751.92 281.915c26.405-.64 43.152 2.741 63.174 9.093 49.489 15.7 86.009 42.009 135.281 57.422 52.932 16.56 101.072 14.432 138.979 51.224 96.481 93.642 102.724 275.947 41.859 309.9-75.469 42.106-178.975-173.414-408.518-181.783-99.476-3.627-161.5 39.155-226.512 53.523-57.525 12.715-104.119 8.328-142.237-19.407-65.61-47.741-81.748-154.327-39.529-246.711 23.025-50.376 62.383-94.252 108.42-124.706 45.027-29.817 95.394-46.064 139.442-42.291 79.221 6.596 77.65 68.341 189.641 133.736z" transform="translate(38.04 -8.477) translate(304.67 128.64)"/>
        <path stroke="#73f57b" d="M760.988 289.669c25.208 2.116 42.4 6.811 61.956 13.449 48.745 16.545 85.5 38.681 131.843 52.392 49.992 14.791 95.392 15.02 133.147 51.157 98.395 94.17 106.322 277.712 46.864 311.457-73.067 41.468-176.351-173.547-406.107-183.583-97.242-4.248-159.8 35.036-222.692 50.174-56.1 13.5-101.745 12.121-141.019-15.286-67.967-47.427-86.273-157.8-45.066-251.72 22.6-51.5 62.208-96.041 108.465-126.677 45.407-30.094 96.365-46.194 140.92-41.741 80.101 7.849 77.666 72.338 191.689 140.378z" transform="translate(38.04 -8.477) translate(311.178 129.491)"/>
        <path stroke="#70f87b" d="M770.1 297.44c22.809 8.943 41.641 10.884 60.741 17.805 47.994 17.4 85.005 35.265 128.4 47.36 47.076 12.931 89.714 15.6 127.317 51.089 100.326 94.673 109.917 279.474 51.866 313.011-70.667 40.828-173.738-173.63-403.694-185.381-95.016-4.855-158.09 30.927-218.873 46.824-54.676 14.3-99.357 15.926-139.8-11.163-70.313-47.1-90.809-161.276-50.6-256.731 22.165-52.625 62.033-97.828 108.515-128.645 45.783-30.37 97.335-46.321 142.395-41.188 80.972 9.1 67.222 97.42 193.733 147.019z" transform="translate(38.04 -8.477) translate(317.652 130.337)"/>
        <path stroke="#6dfa7c" d="M779.266 305.235c21.772 10.229 40.882 14.958 59.525 22.163 47.234 18.256 84.485 31.948 124.962 42.327 44.131 11.177 84.036 16.18 121.487 51.02 102.278 95.149 113.448 281.13 56.869 314.568-68.347 40.055-171.132-173.659-401.283-187.181-92.792-5.453-156.372 26.823-215.055 43.472-53.242 15.1-96.957 19.74-138.583-7.043-72.649-46.745-95.353-164.735-56.139-261.74 21.725-53.743 61.855-99.613 108.564-130.611 46.161-30.645 98.3-46.448 143.873-40.639 81.845 10.355 69.967 94.555 195.78 153.664z" transform="translate(38.04 -8.477) translate(324.102 131.183)"/>
        <path stroke="#69fd7c" d="M788.464 313.035c20.974 11.62 40.118 19.035 58.307 26.521 46.469 19.12 83.966 28.631 121.523 37.293 41.184 9.423 78.358 16.755 115.654 50.952 104.25 95.592 117.065 282.932 61.875 316.121-65.923 39.465-168.54-173.622-398.871-188.98-90.573-6.039-154.649 22.73-211.237 40.12-51.8 15.92-94.546 23.568-137.364-2.92-74.975-46.379-99.91-168.191-61.676-266.75 21.28-54.861 61.68-101.4 108.612-132.577 46.539-30.923 99.276-46.577 145.35-40.09 82.72 11.61 73.497 91.427 197.827 160.31z" transform="translate(38.04 -8.477) translate(330.511 132.014)"/>
        <path stroke="#66ff7d" d="M342.335 327.979C383.888 216.316 504.424 139.527 597.823 153.9c83.594 12.861 77.718 88.326 199.873 166.952 131.054 84.35 201.145 38.251 285 114.024 106.243 96 120.681 284.734 66.876 317.675-63.5 38.875-165.959-173.534-396.458-190.78-170-12.719-251.9 92.528-343.567 37.971-77.288-46.001-104.47-171.642-67.212-271.763z" transform="translate(38.04 -8.477) translate(336.89 132.84)"/>
    </g>
</svg>
