<svg width="290" height="196" viewBox="0 0 290 196" fill="none" xmlns="http://www.w3.org/2000/svg">
<path d="M290 170.453C290 172.6 289.146 174.532 287.723 175.963C286.3 177.395 284.379 178.253 282.245 178.253H198.077C182.282 189.417 162.929 196 142.083 196C90.7139 196 48.6654 156.07 44.8945 105.335H41.2659C37.0682 105.335 33.6531 101.9 33.6531 97.678C33.6531 95.6028 34.5069 93.6707 35.8587 92.3111C37.2105 90.9514 39.1315 90.0927 41.1948 90.0927H72.5C74.5633 90.0927 76.4843 89.234 77.8361 87.8744C79.1879 86.5148 80.0417 84.5827 80.0417 82.5075C80.0417 78.2855 76.6266 74.8507 72.4288 74.8507H23.9058C19.7792 74.8507 16.3641 71.4158 16.3641 67.1939C16.3641 65.1187 17.2179 63.1866 18.5697 61.8269C19.5658 60.8251 20.7753 60.1811 22.1271 59.8233H62.8238C63.4642 59.8233 64.0334 59.7517 64.6025 59.6086C65.9544 59.2508 67.235 58.5352 68.16 57.605C69.5118 56.2453 70.3656 54.3133 70.3656 52.238C70.3656 48.0161 66.9504 44.5812 62.7527 44.5812H7.61286C3.41511 44.5097 0 41.1464 0 36.9244C0 34.8492 0.853778 32.9171 2.20559 31.5575C3.55741 30.1979 5.47841 29.3392 7.54171 29.3392H72.5711C90.2159 11.2348 114.904 0 142.083 0C195.942 0 239.556 43.8656 239.556 98.0358C239.556 98.966 239.556 99.9679 239.485 100.898H248.023C252.291 100.898 255.707 104.405 255.707 108.626C255.707 110.773 254.853 112.705 253.43 114.137C252.007 115.568 250.086 116.426 247.951 116.426H231.801C229.666 116.426 227.745 117.285 226.322 118.716C224.899 120.147 224.046 122.08 224.046 124.226C224.046 128.52 227.532 131.955 231.801 131.955H265.596C269.865 131.955 273.28 135.461 273.28 139.683C273.28 141.83 272.426 143.762 271.003 145.193C270.007 146.195 268.798 146.911 267.375 147.268H206.543C205.903 147.268 205.263 147.34 204.693 147.483C203.27 147.841 202.061 148.556 201.065 149.558C199.642 150.989 198.788 152.922 198.788 155.068C198.788 159.362 202.274 162.797 206.472 162.797H282.031C286.585 162.654 290 166.16 290 170.453Z" fill="#F4F6FA"/>
<g clip-path="url(#clip0)">
<path d="M121.788 57.3622C119.304 55.401 116.951 53.5706 114.728 51.7403C113.682 50.8251 112.767 50.0406 111.852 49.2562C114.466 45.4646 117.081 41.4116 121.788 37.3586C126.364 36.3127 131.594 35.2668 139.046 34.3516C139.7 34.8745 140.353 35.5282 141.007 36.0512C142.445 37.3586 144.145 38.6661 145.844 39.9735C143.491 42.5883 141.138 45.5954 138.523 51.0865C132.509 53.3092 127.802 55.0088 121.788 57.3622Z" fill="url(#paint0_linear)"/>
<path d="M98.9096 85.8636C96.0333 83.6409 93.2877 81.4183 90.8036 79.3264C89.6269 78.2805 88.4502 77.3653 87.4043 76.4501C88.7117 71.0897 90.1499 65.4678 93.1569 58.8C97.2099 56.5773 101.917 54.0932 109.107 51.3477C110.023 52.1321 111.069 53.0473 112.115 53.9625C114.337 55.9236 116.821 57.754 119.305 59.7151C117.867 64.2911 116.298 68.9978 114.991 76.7116C109.761 79.4572 104.793 82.2028 98.9096 85.8636Z" fill="url(#paint1_linear)"/>
<path d="M85.4434 118.026C82.8286 116.065 80.2137 113.973 77.9911 112.012C76.9452 111.097 75.8993 110.181 74.9841 109.266C74.3303 103.775 73.9381 98.0224 74.4611 90.3086C77.0759 87.3016 80.083 83.7715 85.7049 79.457C86.7508 80.3722 87.9275 81.4182 89.1042 82.4641C91.5883 84.556 94.3339 86.7786 97.341 89.0012C96.9487 94.2309 96.4258 100.245 96.6872 108.613C92.765 111.489 89.1042 114.234 85.4434 118.026Z" fill="url(#paint2_linear)"/>
<path d="M200.757 105.342C203.372 103.381 205.987 101.289 208.209 99.3282C209.255 98.413 210.301 97.4978 211.216 96.5826C211.739 90.9607 212.262 85.3388 211.739 77.625C209.124 74.618 206.117 71.0879 200.495 66.7734C199.449 67.6886 198.273 68.7346 197.096 69.7805C194.612 71.8724 191.866 74.095 188.859 76.3176C189.252 81.5473 189.775 87.5614 189.513 95.9289C193.566 98.8052 197.096 101.551 200.757 105.342Z" fill="url(#paint3_linear)"/>
<path d="M84.2653 145.349C82.4349 143.911 80.6045 142.473 79.0356 141.166C78.2511 140.512 77.5974 139.858 76.9437 139.335C74.8518 134.759 72.76 130.053 70.7988 123.123C71.5833 119.07 71.9755 116.717 74.4596 112.402C75.3748 113.318 76.4207 114.102 77.4667 115.017C79.6893 116.978 82.1734 118.939 84.7882 120.901C85.7034 125.607 86.6186 130.968 88.5797 137.636C86.8801 139.858 85.0497 142.212 84.2653 145.349Z" fill="url(#paint4_linear)"/>
<path d="M165.849 84.5557C161.142 82.0716 156.304 79.5875 151.598 76.8419C151.99 71.6122 152.251 66.5133 153.297 60.6299C157.612 58.2766 161.796 55.9232 166.241 53.0469C169.509 54.8773 172.647 56.7077 175.916 58.2766C176.308 62.7218 176.7 66.2518 177.615 73.7041C174.608 76.8419 171.601 79.9797 165.849 84.5557Z" fill="url(#paint5_linear)"/>
<path d="M149.767 117.242C144.275 114.496 138.784 111.489 133.424 108.351C133.555 101.683 133.685 95.9308 134.078 89.1322C141.399 84.8177 145.191 82.7258 150.028 79.7188C154.866 82.4643 159.703 85.0792 164.54 87.5633C164.802 93.7082 165.194 99.9838 165.456 106.129C161.272 109.397 157.088 112.404 149.767 117.242Z" fill="url(#paint6_linear)"/>
<path d="M131.988 146.658C127.019 144.043 121.92 141.428 116.952 138.552C116.56 132.146 116.168 127.439 115.906 121.163C128.196 113.711 128.196 113.711 131.726 111.488C137.086 114.626 142.578 117.502 148.069 120.379C147.938 132.407 147.938 134.63 147.807 138.552C143.101 141.036 138.917 143.259 131.988 146.658Z" fill="url(#paint7_linear)"/>
<path d="M116.951 165.353C113.421 163.523 109.891 161.692 106.492 159.6C105.315 153.586 104.792 150.841 104.139 147.572C107.407 145.611 109.63 144.173 115.775 140.773C120.612 143.519 125.58 146.265 130.418 148.749C130.287 153.063 130.287 157.247 129.764 161.431C119.828 164.699 116.951 165.353 116.951 165.353Z" fill="url(#paint8_linear)"/>
<path d="M200.102 156.333C203.11 154.11 206.247 151.757 209.254 149.404C210.693 143.651 211.346 141.036 212 137.898C209.385 136.591 207.555 135.545 202.717 133.453C198.534 136.722 194.219 139.99 189.905 143.128C189.643 147.181 189.512 150.973 189.643 154.764C197.749 156.202 200.102 156.333 200.102 156.333Z" fill="#C4C4C4"/>
<path d="M200.102 156.333C203.11 154.11 206.247 151.757 209.254 149.404C210.693 143.651 211.346 141.036 212 137.898C209.385 136.591 207.555 135.545 202.717 133.453C198.534 136.722 194.219 139.99 189.905 143.128C189.643 147.181 189.512 150.973 189.643 154.764C197.749 156.202 200.102 156.333 200.102 156.333Z" fill="url(#paint9_linear)"/>
<path d="M132.639 85.992C127.671 82.8542 122.834 79.7164 118.258 76.5786C119.304 71.3489 120.35 65.9885 122.442 59.7129C128.325 57.3595 131.071 56.1828 139.177 53.1758C142.837 55.6599 146.629 58.144 150.551 60.6281C149.897 64.9426 149.113 69.3878 148.59 76.8401C142.314 80.5009 141.399 81.0238 132.639 85.992Z" fill="url(#paint10_linear)"/>
<path d="M93.2866 56.1831C91.0639 53.699 89.3643 51.4764 88.3184 49.646C92.3714 44.4164 94.594 41.54 100.085 36.9641C104.007 35.2644 108.583 33.434 115.382 31.7344C116.166 33.1725 117.474 34.8722 119.304 36.8333C115.12 40.8863 112.767 43.1089 109.106 48.7308C104.4 50.9535 99.3007 52.9146 93.2866 56.1831Z" fill="url(#paint11_linear)"/>
<path d="M201.672 51.3472C203.895 48.8631 205.594 46.6405 206.64 44.8101C202.587 39.5804 200.365 36.7041 194.873 32.1281C190.951 30.4285 186.375 28.5981 179.577 26.8984C178.792 28.3366 177.485 30.0362 175.654 31.9974C179.838 36.0504 182.191 38.273 185.852 43.8949C190.69 45.9868 195.789 47.9479 201.672 51.3472Z" fill="url(#paint12_linear)"/>
<path d="M114.206 118.157C109.107 115.019 104.139 111.75 99.4322 108.482C99.4322 102.206 99.3015 96.8457 100.217 88.8705C104.793 85.9941 108.846 83.51 116.298 79.457C120.874 82.5948 125.842 85.8634 130.81 88.8705C130.418 94.7539 130.157 99.0683 130.026 108.22C124.796 111.62 119.567 114.888 114.206 118.157Z" fill="#87F2E7"/>
<path d="M73.806 87.4332C71.4526 84.9491 69.753 82.5957 68.707 80.7653C70.0145 75.4049 71.3219 69.9137 74.7212 62.8537C77.5975 59.4544 80.4738 56.0551 85.965 52.1328C87.0109 53.9632 88.5798 56.1858 90.9332 58.6699C88.8413 63.5074 86.7494 68.4756 85.0498 76.3201C81.389 79.5886 77.5975 82.8572 73.806 87.4332Z" fill="url(#paint13_linear)"/>
<path d="M102.439 145.352C98.2554 142.737 94.2024 140.123 90.4109 137.508C89.2342 132.67 88.0575 127.702 86.8809 120.642C89.6264 118.027 92.5028 115.412 97.9939 111.359C102.57 114.497 107.538 117.766 112.637 120.904C113.029 126.787 113.16 130.317 113.814 138.161C109.761 140.776 106.1 142.999 102.439 145.352Z" fill="url(#paint14_linear)"/>
<path d="M69.7534 120.508C67.7923 118.416 66.4849 116.586 65.7004 115.017C64.7852 109.787 64.0008 104.558 64.1315 97.2362C64.7852 93.3139 65.4389 89.2609 67.923 84.0312C68.969 85.9924 70.6686 88.0843 72.8912 90.6991C72.7605 95.798 72.499 101.681 73.4142 109.526C71.8453 112.664 70.2764 115.932 69.7534 120.508Z" fill="url(#paint15_linear)"/>
<path d="M166.894 144.96C161.926 142.999 156.696 140.776 151.467 138.292C151.598 134.108 151.728 128.225 151.728 120.119C156.827 116.589 161.795 113.32 167.417 108.875C172.647 111.359 177.746 113.582 182.714 115.543C182.976 121.426 183.368 126.917 182.976 133.716C178.792 136.985 174.085 140.645 166.894 144.96Z" fill="url(#paint16_linear)"/>
<path d="M145.323 167.185C141.27 165.617 137.086 163.786 132.771 161.694C133.164 158.556 133.556 155.157 133.817 148.882C138.916 146.528 143.623 144.306 149.768 140.906C154.998 143.39 160.227 145.613 165.065 147.574C164.411 151.889 163.757 156.465 162.058 161.171C149.637 166.27 145.323 167.185 145.323 167.185Z" fill="url(#paint17_linear)"/>
<g clip-path="url(#clip1)">
<path d="M200.832 147.153L198.332 148.172L202.223 150.863L202.29 143.359L200.832 147.153ZM199.908 148.329L201.092 147.847L201.782 146.05L201.75 149.603L199.908 148.329Z" fill="white"/>
<path d="M201.98 142.788L198.231 140.218L198.155 147.439L200.568 146.449L201.98 142.788ZM198.701 141.472L200.84 142.938L199.463 143.503L198.658 145.591L198.701 141.472ZM199.723 144.196L201.133 143.617L200.308 145.757L198.898 146.335L199.723 144.196Z" fill="white"/>
</g>
<g clip-path="url(#clip2)">
<path d="M77.8628 71.391L75.2656 70.6562L76.6774 75.172L81.3467 69.2972L77.8628 71.391ZM76.4116 71.7495L77.6413 72.0974L79.2908 71.1061L77.08 73.8876L76.4116 71.7495Z" fill="white"/>
<path d="M81.453 68.6531L80.0789 64.3199L75.5763 69.9664L78.0879 70.6706L81.453 68.6531ZM79.6781 65.5984L80.4618 68.0698L79.0292 67.6682L77.11 68.8189L79.6781 65.5984ZM78.8079 68.3741L80.2758 68.7857L78.3092 69.9647L76.8414 69.5532L78.8079 68.3741Z" fill="white"/>
</g>
<g clip-path="url(#clip3)">
<path d="M196.949 38.3721C196.092 36.8926 194.809 35.5703 193.336 34.6489C191.863 33.7274 190.377 33.3172 189.151 33.4936C187.925 33.6701 187.107 34.4122 186.846 35.5831C186.585 36.7541 186.913 38.2138 187.77 39.6934C188.627 41.173 189.91 42.4952 191.383 43.4167C191.873 43.7236 192.371 43.9768 192.861 44.1692C192.951 44.2044 193.017 44.1661 193.009 44.0836C193.001 44.0012 192.922 43.9058 192.832 43.8707C192.371 43.6895 191.902 43.4509 191.44 43.1617C190.053 42.2938 188.844 41.0484 188.037 39.6549C187.23 38.2614 186.921 36.8866 187.166 35.7838C187.412 34.6809 188.183 33.982 189.338 33.8158C190.492 33.6496 191.892 34.036 193.279 34.9039C194.666 35.7717 195.875 37.0171 196.682 38.4106C197.489 39.8041 197.798 41.1789 197.552 42.2818C197.307 43.3846 196.536 44.0835 195.381 44.2497C194.823 44.3301 194.208 44.2827 193.554 44.1088C193.466 44.0855 193.412 44.1368 193.432 44.2233C193.453 44.3098 193.54 44.3989 193.628 44.4222C194.322 44.6068 194.975 44.6572 195.568 44.572C196.793 44.3954 197.612 43.6534 197.873 42.4824C198.134 41.3115 197.806 39.8517 196.949 38.3721Z" fill="white"/>
<path d="M196.949 38.3721C196.092 36.8926 194.809 35.5703 193.336 34.6489C191.863 33.7274 190.377 33.3172 189.151 33.4936C187.925 33.6701 187.107 34.4122 186.846 35.5831C186.585 36.7541 186.913 38.2138 187.77 39.6934C188.627 41.173 189.91 42.4952 191.383 43.4167C191.873 43.7236 192.371 43.9768 192.861 44.1692C192.951 44.2044 193.017 44.1661 193.009 44.0836C193.001 44.0012 192.922 43.9058 192.832 43.8707C192.371 43.6895 191.902 43.4509 191.44 43.1617C190.053 42.2938 188.844 41.0484 188.037 39.6549C187.23 38.2614 186.921 36.8866 187.166 35.7838C187.412 34.6809 188.183 33.982 189.338 33.8158C190.492 33.6496 191.892 34.036 193.279 34.9039C194.666 35.7717 195.875 37.0171 196.682 38.4106C197.489 39.8041 197.798 41.1789 197.552 42.2818C197.307 43.3846 196.536 44.0835 195.381 44.2497C194.823 44.3301 194.208 44.2827 193.554 44.1088C193.466 44.0855 193.412 44.1368 193.432 44.2233C193.453 44.3098 193.54 44.3989 193.628 44.4222C194.322 44.6068 194.975 44.6572 195.568 44.572C196.793 44.3954 197.612 43.6534 197.873 42.4824C198.134 41.3115 197.806 39.8517 196.949 38.3721Z" fill="white"/>
<path d="M189.351 34.5976C189.289 34.511 189.186 34.4596 189.121 34.4828C188.371 34.7476 187.88 35.313 187.7 36.118C187.245 38.1603 188.965 41.1293 191.534 42.7364C194.102 44.3435 196.562 43.9894 197.017 41.9471C197.472 39.9048 195.752 36.9357 193.184 35.3286C191.979 34.5751 190.754 34.2252 189.735 34.3436C189.66 34.3523 189.64 34.4316 189.69 34.5208C189.74 34.6099 189.841 34.6752 189.915 34.6665C190.865 34.5564 192.006 34.882 193.127 35.5836C195.519 37.0801 197.12 39.8447 196.696 41.7464C196.273 43.6482 193.982 43.9779 191.59 42.4814C189.199 40.985 187.597 38.2203 188.021 36.3186C188.188 35.5692 188.645 35.0428 189.344 34.7962C189.409 34.7731 189.412 34.6841 189.351 34.5976Z" fill="white"/>
<path d="M189.351 34.5976C189.289 34.511 189.186 34.4596 189.121 34.4828C188.371 34.7476 187.88 35.313 187.7 36.118C187.245 38.1603 188.965 41.1293 191.534 42.7364C194.102 44.3435 196.562 43.9894 197.017 41.9471C197.472 39.9048 195.752 36.9357 193.184 35.3286C191.979 34.5751 190.754 34.2252 189.735 34.3436C189.66 34.3523 189.64 34.4316 189.69 34.5208C189.74 34.6099 189.841 34.6752 189.915 34.6665C190.865 34.5564 192.006 34.882 193.127 35.5836C195.519 37.0801 197.12 39.8447 196.696 41.7464C196.273 43.6482 193.982 43.9779 191.59 42.4814C189.199 40.985 187.597 38.2203 188.021 36.3186C188.188 35.5692 188.645 35.0428 189.344 34.7962C189.409 34.7731 189.412 34.6841 189.351 34.5976Z" fill="white"/>
<path d="M189.541 39.0418C189.606 39.1772 189.72 39.3029 189.854 39.3867L192.853 41.2634C193.251 41.512 193.664 41.6471 194.019 41.6438C194.373 41.6405 194.654 41.499 194.809 41.2453L195.305 40.4391C195.496 40.1277 195.469 39.6662 195.232 39.1729C194.995 38.6796 194.579 38.2217 194.092 37.9167L191.485 36.2859C191.279 36.1567 191.078 36.1586 190.997 36.2904L190.463 37.1596L189.761 36.7206C189.599 36.6191 189.439 36.6184 189.372 36.7189L189.113 37.1051C189.075 37.162 189.079 37.248 189.122 37.3409C189.166 37.4338 189.244 37.5201 189.336 37.5776L189.965 37.9712L189.521 38.6942C189.468 38.7797 189.475 38.9064 189.541 39.0418ZM189.669 36.9754C189.675 36.9663 189.69 36.9663 189.705 36.9756L192.649 38.8181L192.404 39.1849C192.398 39.194 192.383 39.1939 192.369 39.1847L189.424 37.3422L189.669 36.9754ZM191.236 38.7664L192.312 39.4397C192.474 39.5411 192.634 39.5419 192.701 39.4414L192.96 39.0552C192.998 38.9983 192.995 38.9123 192.951 38.8194C192.907 38.7264 192.829 38.6402 192.738 38.5827L191.734 37.9548L191.907 37.6733L193.86 38.8954C193.974 38.9668 194.07 39.0696 194.124 39.1774C194.179 39.2898 194.186 39.3949 194.143 39.4658L193.648 40.2721C193.552 40.4273 193.316 40.4295 193.073 40.2774L191.075 39.0276L191.236 38.7664ZM190.907 38.5608L190.717 38.8698C190.693 38.9094 190.696 38.9681 190.726 39.0308C190.757 39.0936 190.81 39.1519 190.872 39.1907L193.016 40.5324C193.41 40.779 193.794 40.7755 193.948 40.5238L194.443 39.7175C194.526 39.5829 194.513 39.3832 194.407 39.1697C194.306 38.9648 194.127 38.7719 193.917 38.6404L191.87 37.3594C191.774 37.2996 191.681 37.3004 191.643 37.3615L191.405 37.7492L190.792 37.3653L191.297 36.5421C191.319 36.5068 191.373 36.5063 191.428 36.5409L194.035 38.1717C194.424 38.4155 194.757 38.7814 194.946 39.1756C195.136 39.5698 195.157 39.9386 195.004 40.1874L194.509 40.9937C194.382 41.201 194.152 41.3167 193.863 41.3193C193.573 41.322 193.235 41.2116 192.91 41.0084L189.91 39.1317C189.861 39.1009 189.837 39.0605 189.826 39.0392C189.816 39.0178 189.802 38.9773 189.821 38.9459L190.293 38.1769L190.907 38.5608L190.907 38.5608Z" fill="white"/>
<path d="M189.541 39.0418C189.606 39.1772 189.72 39.3029 189.854 39.3867L192.853 41.2634C193.251 41.512 193.664 41.6471 194.019 41.6438C194.373 41.6405 194.654 41.499 194.809 41.2453L195.305 40.4391C195.496 40.1277 195.469 39.6662 195.232 39.1729C194.995 38.6796 194.579 38.2217 194.092 37.9167L191.485 36.2859C191.279 36.1567 191.078 36.1586 190.997 36.2904L190.463 37.1596L189.761 36.7206C189.599 36.6191 189.439 36.6184 189.372 36.7189L189.113 37.1051C189.075 37.162 189.079 37.248 189.122 37.3409C189.166 37.4338 189.244 37.5201 189.336 37.5776L189.965 37.9712L189.521 38.6942C189.468 38.7797 189.475 38.9064 189.541 39.0418ZM189.669 36.9754C189.675 36.9663 189.69 36.9663 189.705 36.9756L192.649 38.8181L192.404 39.1849C192.398 39.194 192.383 39.1939 192.369 39.1847L189.424 37.3422L189.669 36.9754ZM191.236 38.7664L192.312 39.4397C192.474 39.5411 192.634 39.5419 192.701 39.4414L192.96 39.0552C192.998 38.9983 192.995 38.9123 192.951 38.8194C192.907 38.7264 192.829 38.6402 192.738 38.5827L191.734 37.9548L191.907 37.6733L193.86 38.8954C193.974 38.9668 194.07 39.0696 194.124 39.1774C194.179 39.2898 194.186 39.3949 194.143 39.4658L193.648 40.2721C193.552 40.4273 193.316 40.4295 193.073 40.2774L191.075 39.0276L191.236 38.7664ZM190.907 38.5608L190.717 38.8698C190.693 38.9094 190.696 38.9681 190.726 39.0308C190.757 39.0936 190.81 39.1519 190.872 39.1907L193.016 40.5324C193.41 40.779 193.794 40.7755 193.948 40.5238L194.443 39.7175C194.526 39.5829 194.513 39.3832 194.407 39.1697C194.306 38.9648 194.127 38.7719 193.917 38.6404L191.87 37.3594C191.774 37.2996 191.681 37.3004 191.643 37.3615L191.405 37.7492L190.792 37.3653L191.297 36.5421C191.319 36.5068 191.373 36.5063 191.428 36.5409L194.035 38.1717C194.424 38.4155 194.757 38.7814 194.946 39.1756C195.136 39.5698 195.157 39.9386 195.004 40.1874L194.509 40.9937C194.382 41.201 194.152 41.3167 193.863 41.3193C193.573 41.322 193.235 41.2116 192.91 41.0084L189.91 39.1317C189.861 39.1009 189.837 39.0605 189.826 39.0392C189.816 39.0178 189.802 38.9773 189.821 38.9459L190.293 38.1769L190.907 38.5608L190.907 38.5608Z" fill="white"/>
</g>
<g clip-path="url(#clip4)">
<path d="M81.845 128.094C81.5363 126.643 80.9199 125.348 80.1092 124.448C79.2985 123.548 78.3907 123.15 77.5529 123.329C76.7151 123.507 76.0477 124.239 75.6736 125.392C75.2995 126.544 75.2634 127.977 75.5721 129.429C75.8808 130.88 76.4972 132.175 77.3079 133.075C77.5779 133.375 77.8617 133.622 78.1513 133.809C78.2042 133.843 78.2545 133.805 78.2635 133.724C78.2725 133.643 78.2369 133.55 78.184 133.516C77.9112 133.339 77.6439 133.107 77.3894 132.824C76.6259 131.976 76.0453 130.757 75.7545 129.39C75.4638 128.023 75.4978 126.673 75.8501 125.588C76.2025 124.502 76.8311 123.812 77.6201 123.645C78.4092 123.477 79.2642 123.851 80.0277 124.699C80.7912 125.547 81.3718 126.766 81.6626 128.133C81.9533 129.5 81.9193 130.85 81.567 131.935C81.2146 133.021 80.586 133.711 79.797 133.878C79.4154 133.96 79.0188 133.915 78.6181 133.747C78.5645 133.724 78.5197 133.775 78.5182 133.86C78.5167 133.945 78.5589 134.032 78.6126 134.055C79.0382 134.234 79.4593 134.281 79.8642 134.195C80.702 134.016 81.3694 133.284 81.7435 132.131C82.1176 130.979 82.1537 129.546 81.845 128.094Z" fill="white"/>
<path d="M77.4945 124.413C77.469 124.328 77.41 124.278 77.3628 124.301C76.8231 124.564 76.4019 125.122 76.1447 125.914C75.4922 127.923 76.1116 130.836 77.5256 132.406C78.9395 133.975 80.6206 133.618 81.2732 131.608C81.9257 129.599 81.3062 126.687 79.8923 125.117C79.2294 124.381 78.4831 124.041 77.7911 124.162C77.7403 124.171 77.7133 124.249 77.7308 124.336C77.7483 124.424 77.8036 124.487 77.8544 124.479C78.4988 124.367 79.1936 124.682 79.8109 125.368C81.1274 126.83 81.7042 129.541 81.0966 131.412C80.489 133.283 78.9236 133.616 77.607 132.155C76.2905 130.693 75.7137 127.981 76.3213 126.11C76.5607 125.373 76.9528 124.853 77.4553 124.608C77.5025 124.585 77.5201 124.498 77.4945 124.413Z" fill="white"/>
<path d="M76.8507 128.783C76.8702 128.916 76.9236 129.039 76.9973 129.121L78.6484 130.955C78.8671 131.197 79.1163 131.329 79.3501 131.324C79.5839 131.319 79.7933 131.179 79.9398 130.929L80.4052 130.135C80.5849 129.828 80.6472 129.374 80.5762 128.89C80.5053 128.406 80.3107 127.958 80.0423 127.66L78.6075 126.067C78.4938 125.94 78.3613 125.943 78.2852 126.073L77.7835 126.929L77.3972 126.501C77.308 126.401 77.2026 126.401 77.141 126.5L76.9041 126.881C76.8691 126.937 76.8564 127.022 76.8691 127.113C76.8819 127.204 76.9182 127.289 76.9687 127.345L77.315 127.729L76.8977 128.442C76.8483 128.526 76.8312 128.65 76.8507 128.783ZM77.2925 126.751C77.2981 126.742 77.3076 126.742 77.3158 126.751L78.9368 128.551L78.7118 128.913C78.7062 128.922 78.6966 128.922 78.6885 128.913L77.0674 127.113L77.2925 126.751ZM78.0146 128.506L78.607 129.164C78.6962 129.263 78.8016 129.263 78.8632 129.164L79.1002 128.783C79.1351 128.727 79.1478 128.643 79.1351 128.552C79.1224 128.46 79.0861 128.376 79.0355 128.32L78.4831 127.706L78.6456 127.429L79.7208 128.623C79.7836 128.692 79.8291 128.793 79.8456 128.899C79.8627 129.009 79.8491 129.113 79.8082 129.182L79.3428 129.977C79.2532 130.13 79.0972 130.133 78.9634 129.984L77.8639 128.763L78.0146 128.506ZM77.8337 128.305L77.6553 128.61C77.6325 128.649 77.6245 128.706 77.6336 128.768C77.6426 128.83 77.6674 128.887 77.7015 128.925L78.882 130.235C79.0989 130.476 79.352 130.471 79.4972 130.223L79.9626 129.429C80.0404 129.296 80.0662 129.1 80.0336 128.89C80.0023 128.689 79.918 128.5 79.8023 128.372L78.6753 127.12C78.6226 127.062 78.5612 127.063 78.5259 127.123L78.3022 127.505L77.9644 127.13L78.4396 126.319C78.46 126.284 78.4955 126.284 78.526 126.318L79.9608 127.911C80.1753 128.149 80.3308 128.507 80.3875 128.894C80.4442 129.281 80.3944 129.643 80.2508 129.888L79.7854 130.683C79.6657 130.887 79.4945 131.002 79.3034 131.006C79.1123 131.009 78.9086 130.902 78.7299 130.704L77.0788 128.87C77.0517 128.84 77.0425 128.801 77.0394 128.78C77.0363 128.759 77.0339 128.719 77.052 128.688L77.4959 127.93L77.8337 128.305L77.8337 128.305Z" fill="white"/>
</g>
<g clip-path="url(#clip5)">
<path d="M200.098 86.7178L200.728 85.7106C201.018 85.2471 201.045 84.4798 200.789 83.9968C200.533 83.5139 200.09 83.4982 199.8 83.9617L199.169 84.9689C199.111 85.0616 199.106 85.215 199.157 85.3116L199.9 86.7107C199.951 86.8073 200.04 86.8105 200.098 86.7178ZM199.46 85.1508L199.985 84.3115C200.159 84.0333 200.425 84.0428 200.579 84.3326C200.733 84.6223 200.716 85.0827 200.542 85.3608L200.017 86.2001L199.46 85.1508Z" fill="white"/>
<path d="M201.498 84.2946C201.483 84.1731 201.461 84.0545 201.434 83.9401C201.173 82.8414 200.438 82.3534 199.791 82.8501L199.558 82.4111C199.507 82.3145 199.418 82.3114 199.36 82.4041L198.94 83.0755C198.882 83.1682 198.877 83.3217 198.928 83.4183L199.113 83.768L198.903 84.1038L198.718 83.754C198.666 83.6574 198.578 83.6542 198.52 83.7469L198.1 84.4184C198.042 84.5111 198.036 84.6646 198.088 84.7611L198.273 85.1109L198.063 85.4467C198.005 85.5394 198 85.6928 198.051 85.7894L198.422 86.489C198.474 86.5856 198.562 86.5887 198.62 86.496L198.83 86.1603L200.502 89.3083L200.292 89.6441C200.234 89.7368 200.228 89.8902 200.279 89.9868L200.651 90.6864C200.702 90.783 200.791 90.7861 200.849 90.6934L201.059 90.3577L201.244 90.7075C201.296 90.8041 201.384 90.8072 201.442 90.7145L201.862 90.0431C201.92 89.9504 201.926 89.7969 201.875 89.7003L201.689 89.3505L201.899 89.0148L202.085 89.3646C202.136 89.4612 202.224 89.4643 202.282 89.3716L202.703 88.7002C202.761 88.6075 202.766 88.454 202.715 88.3574L202.529 88.0076C202.851 87.4922 203.006 86.739 202.939 86.0094C202.832 84.8276 202.186 84.0598 201.498 84.2946ZM202.343 87.6578L202.238 87.8257C202.18 87.9184 202.175 88.0719 202.226 88.1685L202.412 88.5182L202.202 88.854L202.016 88.5042C201.965 88.4076 201.876 88.4044 201.818 88.4971L201.398 89.1686C201.34 89.2613 201.335 89.4148 201.386 89.5113L201.572 89.8611L201.362 90.1969L201.176 89.8471C201.125 89.7505 201.036 89.7473 200.978 89.84L200.768 90.1758L200.582 89.826L200.792 89.4903C200.85 89.3976 200.856 89.2441 200.805 89.1475L198.948 85.6497C198.896 85.5531 198.808 85.5499 198.75 85.6426L198.54 85.9784L198.354 85.6286L198.564 85.2929C198.622 85.2002 198.627 85.0467 198.576 84.9501L198.391 84.6003L198.601 84.2646L198.786 84.6144C198.838 84.711 198.926 84.7141 198.984 84.6214L199.404 83.95C199.462 83.8573 199.468 83.7038 199.416 83.6072L199.231 83.2574L199.441 82.9217L199.65 83.3152C199.692 83.3949 199.761 83.4128 199.818 83.3586C199.931 83.2509 200.055 83.1814 200.181 83.154C200.721 83.0368 201.196 83.6956 201.242 84.6254C201.243 84.6412 201.244 84.6567 201.247 84.6718C201.268 84.7988 201.346 84.8673 201.42 84.8248C201.784 84.6171 202.177 84.786 202.428 85.2585C202.787 85.9343 202.749 87.0085 202.343 87.6578Z" fill="white"/>
<path d="M201.228 85.5597L200.283 87.0704C200.225 87.1631 200.219 87.3166 200.271 87.4132L201.013 88.8123C201.065 88.9089 201.153 88.912 201.211 88.8193L202.156 87.3086C202.446 86.8451 202.474 86.0778 202.217 85.5948C201.961 85.1119 201.518 85.0961 201.228 85.5597ZM201.971 86.9588L201.131 88.3017L200.573 87.2523L201.414 85.9094C201.588 85.6313 201.853 85.6408 202.007 85.9305C202.161 86.2203 202.145 86.6807 201.971 86.9588Z" fill="white"/>
<path d="M197.93 80.8079C196.19 83.5891 196.026 88.1928 197.565 91.0905C199.103 93.9882 201.761 94.0826 203.501 91.3014C205.238 88.5182 205.402 83.9183 203.866 81.0188C202.328 78.1211 199.67 78.0267 197.93 80.8079ZM203.315 90.9516C201.691 93.5474 199.211 93.4593 197.775 90.7548C196.339 88.0503 196.492 83.7535 198.116 81.1577C199.741 78.5662 202.219 78.6542 203.656 81.3545C205.092 84.059 204.939 88.3558 203.315 90.9516Z" fill="white"/>
<path d="M198.301 81.5067C196.793 83.9171 196.651 87.9069 197.984 90.4183C199.318 92.9296 201.621 93.0114 203.129 90.6011C204.635 88.1889 204.776 84.2024 203.446 81.6895C202.112 79.1781 199.809 79.0963 198.301 81.5067ZM202.943 90.2513C201.551 92.4763 199.425 92.4007 198.194 90.0826C196.964 87.7644 197.095 84.0815 198.487 81.8565C199.879 79.6353 202.004 79.7107 203.236 82.0252C204.466 84.3434 204.335 88.0263 202.943 90.2513Z" fill="white"/>
</g>
<g clip-path="url(#clip6)">
<path d="M119.882 160.19C119.628 160.362 119.046 160.025 119.074 159.72C119.056 159.474 119.41 159.389 119.7 159.562C119.997 159.728 120.102 160.08 119.882 160.19ZM123.264 159.659C123.1 159.743 122.764 159.592 122.686 159.395C122.559 159.183 122.771 159.012 123.026 159.102C123.344 159.182 123.51 159.577 123.264 159.659ZM115.706 159.483C116.037 159.5 116.307 159.94 116.049 160.045C115.866 160.159 115.556 159.979 115.422 159.782C115.386 159.609 115.467 159.445 115.706 159.483ZM121.779 158.347C121.538 158.554 120.918 158.297 120.795 157.945C120.637 157.591 121.058 157.359 121.471 157.582C121.85 157.754 122.021 158.186 121.779 158.347ZM116.556 158.416C116.579 158.769 115.978 158.812 115.639 158.485C115.34 158.232 115.386 157.896 115.641 157.792C116.006 157.704 116.575 158.069 116.556 158.416ZM119.044 157.632C119.195 157.929 119.004 158.166 118.699 158.203C118.471 158.176 118.203 158.109 118.019 157.924C117.722 157.672 117.691 157.306 117.934 157.17C118.037 157.093 118.213 157.111 118.368 157.111C118.648 157.2 118.941 157.388 119.044 157.632ZM124.112 156.919C123.89 157.104 123.323 156.818 123.29 156.513C123.225 156.252 123.559 156.127 123.863 156.28C124.176 156.421 124.324 156.794 124.112 156.919ZM112.765 157.52C112.595 157.715 112.063 157.53 111.947 157.234C111.795 156.967 112.065 156.745 112.393 156.869C112.734 156.969 112.959 157.359 112.765 157.52ZM117.075 156.744C116.715 156.905 116.123 156.766 115.707 156.437C115.176 156.035 115.029 155.387 115.409 155.12C115.786 154.808 116.664 155.009 117.115 155.518C117.564 155.972 117.538 156.57 117.075 156.744ZM119.57 156.565C119.195 156.791 118.471 156.656 118.024 156.233C117.541 155.823 117.456 155.221 117.83 154.976C118.191 154.704 118.966 154.855 119.428 155.298C119.91 155.725 119.976 156.335 119.57 156.565ZM121.706 155.659C121.807 155.936 121.607 156.13 121.324 156.164C120.993 156.146 120.633 155.941 120.457 155.658C120.336 155.375 120.442 155.086 120.777 155.07C121.129 155.022 121.615 155.332 121.706 155.659ZM114.465 156.465C114.187 156.682 113.521 156.423 113.344 156.035C113.113 155.625 113.547 155.305 114.043 155.526C114.533 155.706 114.785 156.273 114.465 156.465ZM119.692 154.702C119.306 154.834 118.709 154.674 118.311 154.323C117.892 153.97 117.736 153.458 117.97 153.17C118.245 152.752 119.194 152.864 119.713 153.387C120.246 153.863 120.225 154.541 119.692 154.702ZM114.918 154.957C114.544 155.089 113.967 154.968 113.562 154.63C113.058 154.247 112.906 153.642 113.23 153.36C113.556 153.036 114.37 153.154 114.865 153.609C115.423 154.076 115.446 154.777 114.918 154.957ZM122.3 154.098C121.984 154.247 121.374 153.893 121.359 153.546C121.3 153.233 121.727 153.094 122.091 153.308C122.49 153.506 122.619 153.986 122.3 154.098ZM111.736 154.153C111.888 154.435 111.783 154.698 111.467 154.73C111.188 154.707 110.84 154.532 110.734 154.277C110.542 153.942 110.88 153.69 111.278 153.831C111.462 153.891 111.607 154.025 111.736 154.153ZM124.089 153.833C123.905 153.934 123.532 153.772 123.471 153.541C123.355 153.282 123.73 153.16 123.994 153.368C124.207 153.51 124.239 153.745 124.089 153.833ZM109.651 154.602C109.541 154.714 109.245 154.653 109.097 154.488C108.896 154.309 108.969 154.046 109.216 154.065C109.528 154.021 109.855 154.46 109.651 154.602ZM117.523 152.914C116.99 153.086 116.118 152.67 115.836 152.115C115.517 151.555 115.906 151.023 116.588 151.12C117.099 151.164 117.678 151.555 117.879 151.988C118.086 152.401 117.93 152.803 117.523 152.914ZM115.137 153.042C114.602 153.227 113.706 152.804 113.431 152.235C113.124 151.685 113.502 151.171 114.16 151.248C114.762 151.284 115.46 151.821 115.548 152.324C115.633 152.658 115.459 152.942 115.137 153.042ZM119.568 152.456C119.177 152.543 118.569 152.141 118.561 151.772C118.494 151.381 119.066 151.244 119.498 151.543C119.971 151.827 120.004 152.39 119.568 152.456ZM112.56 152.809C112.253 152.971 111.644 152.703 111.49 152.334C111.273 151.931 111.706 151.622 112.193 151.839C112.716 152.028 112.951 152.655 112.56 152.809ZM109.726 151.155C109.997 151.394 109.892 151.735 109.563 151.706C109.412 151.716 109.252 151.614 109.109 151.529C109.016 151.384 108.896 151.211 108.975 151.091C109.055 150.873 109.501 150.91 109.726 151.155ZM121.169 151.021C120.969 151.206 120.43 150.974 120.345 150.671C120.247 150.404 120.544 150.233 120.864 150.371C121.195 150.493 121.38 150.882 121.169 151.021ZM115.245 150.765C114.945 150.933 114.322 150.666 114.173 150.295C113.942 149.889 114.39 149.575 114.879 149.8C115.39 149.989 115.631 150.612 115.245 150.765ZM117.588 150.08C117.344 150.247 116.787 150.01 116.656 149.689C116.516 149.427 116.69 149.188 116.998 149.212C117.24 149.204 117.492 149.388 117.66 149.567C117.756 149.766 117.775 149.993 117.588 150.08ZM112.287 150.356C112.05 150.555 111.454 150.319 111.314 149.975C111.127 149.618 111.54 149.362 111.962 149.58C112.349 149.749 112.534 150.193 112.287 150.356ZM110.347 148.364C110.591 148.554 110.538 148.801 110.324 148.858C110.117 148.834 109.851 148.716 109.793 148.516C109.687 148.247 110.083 148.142 110.347 148.364ZM117.747 148.148C117.767 148.308 117.704 148.471 117.478 148.441C117.168 148.438 116.877 148.038 117.077 147.899C117.242 147.744 117.614 147.924 117.747 148.148ZM114.128 148.155C114.187 148.39 113.908 148.52 113.626 148.409C113.452 148.361 113.336 148.217 113.237 148.094C113.225 148.029 113.21 147.963 113.196 147.897C113.238 147.797 113.306 147.694 113.458 147.69C113.723 147.646 114.116 147.916 114.128 148.155Z" fill="white"/>
</g>
</g>
<circle cx="111.684" cy="99.8047" r="7" fill="white"/>
<circle cx="111.684" cy="97.8047" r="8.15" stroke="#2E37F2" stroke-width="1.7"/>
<path d="M111.269 102.8V101.615H112.474V102.8H111.269ZM111.269 94.7997V93.6147H112.474V94.7997H111.269ZM111.899 101.955C111.392 101.955 110.939 101.861 110.539 101.675C110.139 101.488 109.81 101.225 109.554 100.885C109.3 100.545 109.139 100.141 109.069 99.6747L110.259 99.4847C110.352 99.8947 110.552 100.221 110.859 100.465C111.169 100.705 111.539 100.825 111.969 100.825C112.382 100.825 112.722 100.728 112.989 100.535C113.255 100.338 113.389 100.09 113.389 99.7897C113.389 99.5797 113.325 99.4097 113.199 99.2797C113.072 99.1464 112.869 99.0364 112.589 98.9497L110.854 98.4097C109.844 98.0964 109.339 97.483 109.339 96.5697C109.339 96.143 109.44 95.7714 109.644 95.4547C109.85 95.1347 110.14 94.8897 110.514 94.7197C110.887 94.5464 111.327 94.4614 111.834 94.4647C112.304 94.468 112.722 94.553 113.089 94.7197C113.459 94.8864 113.765 95.1264 114.009 95.4397C114.255 95.753 114.43 96.1297 114.534 96.5697L113.299 96.7947C113.252 96.558 113.16 96.3497 113.024 96.1697C112.887 95.9897 112.715 95.8497 112.509 95.7497C112.302 95.6497 112.072 95.5964 111.819 95.5897C111.575 95.5864 111.357 95.6247 111.164 95.7047C110.97 95.7814 110.817 95.8914 110.704 96.0347C110.59 96.1747 110.534 96.333 110.534 96.5097C110.534 96.7064 110.612 96.8747 110.769 97.0147C110.929 97.1547 111.18 97.2747 111.524 97.3747L112.819 97.7497C113.442 97.9297 113.89 98.1747 114.164 98.4847C114.44 98.7914 114.579 99.1997 114.579 99.7097C114.579 100.156 114.467 100.548 114.244 100.885C114.02 101.221 113.707 101.485 113.304 101.675C112.9 101.861 112.432 101.955 111.899 101.955Z" fill="#2E37F2"/>
<circle cx="144.684" cy="156.805" r="7" fill="white"/>
<circle cx="144.684" cy="154.805" r="8.15" stroke="#FAFBFF" stroke-width="1.7"/>
<path d="M144.269 159.8V158.615H145.474V159.8H144.269ZM144.269 151.8V150.615H145.474V151.8H144.269ZM144.899 158.955C144.392 158.955 143.939 158.861 143.539 158.675C143.139 158.488 142.81 158.225 142.554 157.885C142.3 157.545 142.139 157.141 142.069 156.675L143.259 156.485C143.352 156.895 143.552 157.221 143.859 157.465C144.169 157.705 144.539 157.825 144.969 157.825C145.382 157.825 145.722 157.728 145.989 157.535C146.255 157.338 146.389 157.09 146.389 156.79C146.389 156.58 146.325 156.41 146.199 156.28C146.072 156.146 145.869 156.036 145.589 155.95L143.854 155.41C142.844 155.096 142.339 154.483 142.339 153.57C142.339 153.143 142.44 152.771 142.644 152.455C142.85 152.135 143.14 151.89 143.514 151.72C143.887 151.546 144.327 151.461 144.834 151.465C145.304 151.468 145.722 151.553 146.089 151.72C146.459 151.886 146.765 152.126 147.009 152.44C147.255 152.753 147.43 153.13 147.534 153.57L146.299 153.795C146.252 153.558 146.16 153.35 146.024 153.17C145.887 152.99 145.715 152.85 145.509 152.75C145.302 152.65 145.072 152.596 144.819 152.59C144.575 152.586 144.357 152.625 144.164 152.705C143.97 152.781 143.817 152.891 143.704 153.035C143.59 153.175 143.534 153.333 143.534 153.51C143.534 153.706 143.612 153.875 143.769 154.015C143.929 154.155 144.18 154.275 144.524 154.375L145.819 154.75C146.442 154.93 146.89 155.175 147.164 155.485C147.44 155.791 147.579 156.2 147.579 156.71C147.579 157.156 147.467 157.548 147.244 157.885C147.02 158.221 146.707 158.485 146.304 158.675C145.9 158.861 145.432 158.955 144.899 158.955Z" fill="#2E37F2"/>
<rect x="147.684" y="88.8047" width="4" height="13.6" rx="2" fill="white"/>
<rect x="147.684" y="104.805" width="4" height="4" rx="2" fill="white"/>
<defs>
<linearGradient id="paint0_linear" x1="71.8351" y1="19.0107" x2="193.425" y2="74.5759" gradientUnits="userSpaceOnUse">
<stop stop-color="#87F2E7"/>
<stop offset="1" stop-color="#2E37F2"/>
</linearGradient>
<linearGradient id="paint1_linear" x1="58.6616" y1="47.8404" x2="180.252" y2="103.406" gradientUnits="userSpaceOnUse">
<stop stop-color="#87F2E7"/>
<stop offset="1" stop-color="#2E37F2"/>
</linearGradient>
<linearGradient id="paint2_linear" x1="44.0576" y1="79.7971" x2="165.648" y2="135.363" gradientUnits="userSpaceOnUse">
<stop stop-color="#87F2E7"/>
<stop offset="1" stop-color="#2E37F2"/>
</linearGradient>
<linearGradient id="paint3_linear" x1="43.5809" y1="77.5525" x2="204.83" y2="86.2686" gradientUnits="userSpaceOnUse">
<stop stop-color="#87F2E7"/>
<stop offset="1" stop-color="#2E37F2"/>
</linearGradient>
<linearGradient id="paint4_linear" x1="31.6211" y1="107.007" x2="153.211" y2="162.573" gradientUnits="userSpaceOnUse">
<stop stop-color="#87F2E7"/>
<stop offset="1" stop-color="#2E37F2"/>
</linearGradient>
<linearGradient id="paint5_linear" x1="69.2844" y1="24.5922" x2="190.875" y2="80.1577" gradientUnits="userSpaceOnUse">
<stop stop-color="#87F2E7"/>
<stop offset="1" stop-color="#2E37F2"/>
</linearGradient>
<linearGradient id="paint6_linear" x1="55.298" y1="55.1968" x2="176.888" y2="110.762" gradientUnits="userSpaceOnUse">
<stop stop-color="#FF52AF"/>
<stop offset="1" stop-color="#FF8888"/>
</linearGradient>
<linearGradient id="paint7_linear" x1="40.593" y1="87.3788" x2="162.183" y2="142.944" gradientUnits="userSpaceOnUse">
<stop stop-color="#87F2E7"/>
<stop offset="1" stop-color="#2E37F2"/>
</linearGradient>
<linearGradient id="paint8_linear" x1="28.7916" y1="113.199" x2="150.382" y2="168.765" gradientUnits="userSpaceOnUse">
<stop stop-color="#87F2E7"/>
<stop offset="1" stop-color="#2E37F2"/>
</linearGradient>
<linearGradient id="paint9_linear" x1="43.8179" y1="85.8707" x2="206.809" y2="148.191" gradientUnits="userSpaceOnUse">
<stop stop-color="#87F2E7"/>
<stop offset="1" stop-color="#2E37F2"/>
</linearGradient>
<linearGradient id="paint10_linear" x1="63.7745" y1="36.6461" x2="185.365" y2="92.2116" gradientUnits="userSpaceOnUse">
<stop stop-color="#87F2E7"/>
<stop offset="1" stop-color="#2E37F2"/>
</linearGradient>
<linearGradient id="paint11_linear" x1="68.0161" y1="27.3664" x2="189.606" y2="82.9316" gradientUnits="userSpaceOnUse">
<stop stop-color="#87F2E7"/>
<stop offset="1" stop-color="#2E37F2"/>
</linearGradient>
<linearGradient id="paint12_linear" x1="46.0819" y1="31.2827" x2="207.331" y2="39.9989" gradientUnits="userSpaceOnUse">
<stop stop-color="#87F2E7"/>
<stop offset="1" stop-color="#2E37F2"/>
</linearGradient>
<linearGradient id="paint13_linear" x1="54.024" y1="57.9861" x2="175.615" y2="113.552" gradientUnits="userSpaceOnUse">
<stop stop-color="#87F2E7"/>
<stop offset="1" stop-color="#2E37F2"/>
</linearGradient>
<linearGradient id="paint14_linear" x1="35.3906" y1="98.7628" x2="156.981" y2="154.328" gradientUnits="userSpaceOnUse">
<stop stop-color="#87F2E7"/>
<stop offset="1" stop-color="#2E37F2"/>
</linearGradient>
<linearGradient id="paint15_linear" x1="39.8279" y1="89.0489" x2="161.419" y2="144.615" gradientUnits="userSpaceOnUse">
<stop stop-color="#87F2E7"/>
<stop offset="1" stop-color="#2E37F2"/>
</linearGradient>
<linearGradient id="paint16_linear" x1="47.5171" y1="72.2259" x2="169.107" y2="127.791" gradientUnits="userSpaceOnUse">
<stop stop-color="#87F2E7"/>
<stop offset="1" stop-color="#2E37F2"/>
</linearGradient>
<linearGradient id="paint17_linear" x1="33.8478" y1="102.138" x2="155.438" y2="157.704" gradientUnits="userSpaceOnUse">
<stop stop-color="#87F2E7"/>
<stop offset="1" stop-color="#2E37F2"/>
</linearGradient>
<clipPath id="clip0">
<rect width="150.746" height="140.475" fill="white" transform="translate(64 26.8984)"/>
</clipPath>
<clipPath id="clip1">
<rect width="11.371" height="11.371" fill="white" transform="matrix(0.635215 -0.772336 0.351184 0.936306 194.615 144.613)"/>
</clipPath>
<clipPath id="clip2">
<rect width="11.371" height="11.371" fill="white" transform="matrix(0.975926 -0.218103 -0.299152 0.954206 74.5234 65.5625)"/>
</clipPath>
<clipPath id="clip3">
<rect width="13.0078" height="8.98269" fill="white" transform="matrix(0.847749 0.530398 -0.217431 0.976076 187.822 31.1992)"/>
</clipPath>
<clipPath id="clip4">
<rect width="9.0703" height="9.0703" fill="white" transform="matrix(0.669211 0.743072 -0.308842 0.951113 77.0742 121.078)"/>
</clipPath>
<clipPath id="clip5">
<rect width="11.8806" height="11.8806" fill="white" transform="matrix(0.530401 -0.847747 0.468903 0.88325 194.779 85.8438)"/>
</clipPath>
<clipPath id="clip6">
<rect width="15.1788" height="14.0252" fill="white" transform="matrix(-0.998602 0.0528545 -0.446589 -0.894739 127.293 159.836)"/>
</clipPath>
</defs>
</svg>
