<svg width="25" height="24" viewBox="0 0 25 24" fill="none" xmlns="http://www.w3.org/2000/svg">
<circle cx="9" cy="14" r="7" fill="#D0D8F4"/>
<circle cx="9" cy="12" r="8.15" stroke="#2E37F2" stroke-width="1.7"/>
<circle cx="16" cy="12" r="8.15" fill="white" stroke="#2E37F2" stroke-width="1.7"/>
<path d="M15.585 16.995V15.81H16.79V16.995H15.585ZM15.585 8.995V7.81H16.79V8.995H15.585ZM16.215 16.15C15.7083 16.15 15.255 16.0567 14.855 15.87C14.455 15.6833 14.1267 15.42 13.87 15.08C13.6167 14.74 13.455 14.3367 13.385 13.87L14.575 13.68C14.6683 14.09 14.8683 14.4167 15.175 14.66C15.485 14.9 15.855 15.02 16.285 15.02C16.6983 15.02 17.0383 14.9233 17.305 14.73C17.5717 14.5333 17.705 14.285 17.705 13.985C17.705 13.775 17.6417 13.605 17.515 13.475C17.3883 13.3417 17.185 13.2317 16.905 13.145L15.17 12.605C14.16 12.2917 13.655 11.6783 13.655 10.765C13.655 10.3383 13.7567 9.96667 13.96 9.65C14.1667 9.33 14.4567 9.085 14.83 8.915C15.2033 8.74167 15.6433 8.65667 16.15 8.66C16.62 8.66333 17.0383 8.74833 17.405 8.915C17.775 9.08167 18.0817 9.32167 18.325 9.635C18.5717 9.94833 18.7467 10.325 18.85 10.765L17.615 10.99C17.5683 10.7533 17.4767 10.545 17.34 10.365C17.2033 10.185 17.0317 10.045 16.825 9.945C16.6183 9.845 16.3883 9.79167 16.135 9.785C15.8917 9.78167 15.6733 9.82 15.48 9.9C15.2867 9.97667 15.1333 10.0867 15.02 10.23C14.9067 10.37 14.85 10.5283 14.85 10.705C14.85 10.9017 14.9283 11.07 15.085 11.21C15.245 11.35 15.4967 11.47 15.84 11.57L17.135 11.945C17.7583 12.125 18.2067 12.37 18.48 12.68C18.7567 12.9867 18.895 13.395 18.895 13.905C18.895 14.3517 18.7833 14.7433 18.56 15.08C18.3367 15.4167 18.0233 15.68 17.62 15.87C17.2167 16.0567 16.7483 16.15 16.215 16.15Z" fill="#2E37F2"/>
</svg>
