<svg width="20" height="20" viewBox="0 0 20 20" fill="none" xmlns="http://www.w3.org/2000/svg">
<path d="M0 10C0 8.02219 0.586488 6.0888 1.6853 4.44431C2.78412 2.79982 4.34591 1.51809 6.17317 0.76121C8.00043 0.00433347 10.0111 -0.193701 11.9509 0.192151C13.8907 0.578004 15.6725 1.53041 17.0711 2.92894C18.4696 4.32746 19.422 6.1093 19.8078 8.04911C20.1937 9.98892 19.9957 11.9996 19.2388 13.8268C18.4819 15.6541 17.2002 17.2159 15.5557 18.3147C13.9112 19.4135 11.9778 20 9.99999 20C7.34783 20 4.8043 18.9464 2.92894 17.0711C1.05357 15.1957 0 12.6522 0 10Z" fill="black"/>
<path d="M13.282 15.6791L13.3592 15.6468L14.6545 14.8722L15.9907 14.0746C16.062 14.0346 16.1265 13.9832 16.1816 13.9224C16.2793 13.8166 16.3427 13.6831 16.3634 13.5397C16.3634 13.4752 16.3634 10.3122 16.3634 10.243C16.3387 10.084 16.2675 9.93619 16.1589 9.81881C16.0572 9.72139 15.9425 9.63912 15.818 9.57444L13.3865 8.13126C13.2844 8.08426 13.1736 8.05995 13.0615 8.05995C12.9494 8.05995 12.8387 8.08426 12.7366 8.13126C12.6957 8.13126 12.4184 8.31108 11.8049 8.67533L10.3142 9.56522L8.84161 10.4413C8.38712 10.7271 7.96445 10.9669 7.93263 10.9761C7.8299 11.029 7.71607 11.0559 7.60087 11.0545C7.48677 11.0548 7.37383 11.0312 7.26908 10.9853C7.21909 10.9853 5.86016 10.16 5.78745 10.1047C5.71628 10.0498 5.65349 9.98453 5.6011 9.91103C5.54295 9.82101 5.50137 9.72102 5.4784 9.61593C5.46216 9.30877 5.46216 9.00094 5.4784 8.69378C5.44183 8.33583 5.45254 7.97454 5.51022 7.61947C5.54008 7.53278 5.58135 7.45058 5.63292 7.3751C5.6845 7.30355 5.74748 7.2412 5.81926 7.19066C5.8738 7.15377 7.18273 6.36534 7.22363 6.33306C7.32911 6.28381 7.44384 6.25832 7.55995 6.25832C7.67606 6.25832 7.7908 6.28381 7.89628 6.33306C7.94173 6.35611 9.25975 7.14455 9.35974 7.20449C9.45602 7.27077 9.53545 7.35925 9.59152 7.46269C9.62802 7.5261 9.65557 7.59439 9.67333 7.66557V7.73474V8.31109C9.67333 8.62923 9.67333 8.89204 9.67333 8.89204L10.2778 8.53701L10.8732 8.18199V7.60564C10.8732 6.96474 10.8732 6.98778 10.8323 6.85868C10.777 6.7035 10.6793 6.56755 10.5505 6.46678C10.505 6.4345 8.03262 4.95905 7.91445 4.8945L7.81901 4.84839H7.77811H7.32362L7.25545 4.87605C7.20546 4.89911 6.8555 5.10199 5.89198 5.67372C5.17844 6.09791 4.57851 6.45755 4.55579 6.47599C4.47377 6.53396 4.40384 6.60778 4.35003 6.69324C4.29621 6.77869 4.25956 6.87409 4.24219 6.97395C4.24219 7.0385 4.24219 7.08923 4.24219 8.66611C4.24219 10.243 4.24219 10.2983 4.24219 10.3583C4.25966 10.4607 4.29839 10.5581 4.35581 10.6441C4.415 10.7303 4.48707 10.8065 4.56942 10.8701C4.6285 10.907 7.15092 12.4147 7.21455 12.447C7.32334 12.4988 7.44204 12.5256 7.56222 12.5256C7.68241 12.5256 7.80112 12.4988 7.90991 12.447L8.81889 11.8983C9.55971 11.4372 9.79149 11.3127 10.2869 11.0314C10.7823 10.7502 10.9186 10.6718 11.7594 10.1508L12.6684 9.58365C12.8589 9.49501 13.0763 9.48672 13.2729 9.56061C13.3047 9.56874 13.3352 9.58114 13.3638 9.59749C13.4183 9.62515 14.7863 10.4735 14.8272 10.5196C14.9825 10.6446 15.0862 10.8238 15.1181 11.0222C15.1181 11.1052 15.1181 12.825 15.1181 12.908C15.0858 13.1122 14.9767 13.2957 14.8136 13.4198C14.7682 13.4521 13.4501 14.2544 13.3456 14.3005C13.2419 14.3474 13.1296 14.3716 13.0161 14.3716C12.9025 14.3716 12.7903 14.3474 12.6866 14.3005C12.6502 14.3005 12.3866 14.1253 11.9367 13.8394L11.205 13.3783C11.0745 13.2773 10.9765 13.1393 10.9232 12.9818C10.8868 12.8665 10.8868 12.8988 10.8823 12.2533V11.6631L10.2869 12.0181L9.6915 12.3732V12.968C9.6915 13.6135 9.69151 13.6089 9.72332 13.7195C9.74915 13.8005 9.7875 13.8767 9.83694 13.9455C9.88813 14.0158 9.94941 14.078 10.0187 14.1299C10.0596 14.1622 12.573 15.6745 12.632 15.7068C12.6911 15.739 12.7229 15.7575 12.9729 15.7575H13.1956L13.282 15.6791Z" fill="#A07BFF"/>
</svg>
