<svg width="12" height="12" viewBox="0 0 12 12" fill="none" xmlns="http://www.w3.org/2000/svg">
<path fill-rule="evenodd" clip-rule="evenodd" d="M9.09169 8.19544C10.6433 6.2027 10.5032 3.31966 8.67125 1.48775C6.68758 -0.495917 3.47142 -0.495917 1.48775 1.48775C-0.495917 3.47142 -0.495917 6.68758 1.48775 8.67125C3.31966 10.5032 6.2027 10.6433 8.19544 9.09169C8.20404 9.10141 8.21299 9.11092 8.22228 9.12022L10.9161 11.814C11.1641 12.062 11.5661 12.062 11.814 11.814C12.062 11.5661 12.062 11.1641 11.814 10.9161L9.12022 8.22228C9.11092 8.21299 9.10141 8.20404 9.09169 8.19544ZM7.77331 2.38569C9.26106 3.87344 9.26106 6.28556 7.77331 7.77331C6.28556 9.26106 3.87344 9.26106 2.38569 7.77331C0.897937 6.28556 0.897937 3.87344 2.38569 2.38569C3.87344 0.897937 6.28556 0.897937 7.77331 2.38569Z" fill="white" fill-opacity="0.4"/>
</svg>
