<svg width="609" height="140" viewBox="0 0 609 140" fill="none" xmlns="http://www.w3.org/2000/svg">
<mask id="mask0_3325_24215" style="mask-type:alpha" maskUnits="userSpaceOnUse" x="0" y="0" width="609" height="140">
<rect width="609" height="140" rx="8" fill="#E0FFFB"/>
</mask>
<g mask="url(#mask0_3325_24215)">
<g style="mix-blend-mode:luminosity">
<path d="M626.38 13.5594C620.896 2.97823 615.657 -6.95254 610.868 -16.6765C608.698 -21.4345 606.774 -25.5427 604.85 -29.6509C619.763 -38.356 635.083 -47.9471 657.599 -54.2235C674.973 -50.5181 694.595 -45.7763 721.659 -37.0706C723.092 -34.2625 724.32 -31.0118 725.753 -28.2039C728.66 -21.4948 732.466 -14.3722 736.272 -7.24885C724.096 -2.11705 711.307 4.34425 693.743 18.8085C669.585 16.8112 650.742 15.1135 626.38 13.5594Z" fill="url(#paint0_linear_3325_24215)"/>
<path d="M503.192 73.906C496.766 61.8176 490.79 49.9363 485.51 38.9122C483.095 33.5038 480.476 28.5382 478.306 23.7796C491.169 7.68722 504.89 -9.08452 525.641 -26.9144C543.052 -28.0244 563.12 -28.9849 592.141 -26.8955C594.065 -22.7873 596.234 -18.0289 598.404 -13.2705C602.989 -3.10357 608.678 7.03422 614.162 17.6154C602.074 30.8426 589.331 44.3058 572.795 68.3731C550.52 69.3909 529.144 70.823 503.192 73.906Z" fill="url(#paint1_linear_3325_24215)"/>
<path d="M406.667 161.535C400.733 150.746 395.003 139.515 390.418 129.349C388.248 124.59 386.078 119.832 384.358 115.281C390.679 95.6381 398.308 75.5233 412.146 50.2135C425.834 44.1669 441.687 36.9694 467.76 31.2568C469.93 36.0148 472.345 41.4235 474.76 46.8319C480.041 57.8562 486.017 69.7375 492.893 82.0332C483.382 99.1329 472.196 118.684 460.037 147.451C442.055 150.984 425.177 154.487 406.667 161.535Z" fill="url(#paint2_linear_3325_24215)"/>
<path d="M359.967 252.338C355.915 244.564 351.863 236.791 348.506 229.875C346.828 226.417 345.6 223.166 344.167 220.358C344.113 201.538 344.263 182.275 348.331 155.687C357.355 143.197 362.377 135.843 377.655 125.159C379.376 129.71 381.749 134.026 383.919 138.784C388.504 148.951 393.988 159.532 399.923 170.32C395.725 187.719 390.508 207.333 386.848 233.034C377.532 237.873 367.563 242.948 359.967 252.338Z" fill="url(#paint3_linear_3325_24215)"/>
<path d="M629.203 260.831C614.598 242.827 600.402 223.937 586.859 204.812C597.715 182.424 607.143 163.139 619.103 140.723C651.022 137.703 667.33 136.622 688.663 134.096C701.019 151.064 713.579 167.589 726.343 183.671C717.652 204.907 709.207 226.794 700.516 248.03C681.024 252.477 661.938 256.038 629.203 260.831Z" fill="url(#paint4_linear_3325_24215)"/>
<path d="M619.001 127.821C606.808 109.317 595.064 91.0199 584.22 73.1374C595.98 57.0733 607.944 40.5666 624.934 22.6156C648.845 23.9625 660.126 24.3253 692.704 26.9788C701.421 41.1961 710.586 55.6208 720.202 70.2527C711.22 83.8369 701.584 97.6566 688.154 122.081C660.853 124.542 656.888 124.865 619.001 127.821Z" fill="url(#paint5_linear_3325_24215)"/>
<path d="M530.17 -35.5368C526.401 -47.4758 524.023 -57.7 523.282 -65.5593C545.386 -76.8591 557.521 -83.0843 583.552 -89.8901C599.697 -89.4353 618.295 -88.3875 644.334 -83.3754C644.788 -77.2591 646.633 -69.4286 649.869 -59.8833C629.152 -52.7778 617.587 -48.9753 596.22 -35.7249C576.561 -35.6508 555.96 -37.0839 530.17 -35.5368Z" fill="url(#paint6_linear_3325_24215)"/>
<path d="M505.452 207.572C492.809 188.861 480.82 169.914 469.73 151.381C479.524 130.116 487.44 111.745 503.035 86.1704C523.265 83.6737 541.085 81.6775 573.046 79.7512C583.89 97.6337 595.879 116.581 608.277 134.642C597.745 153.956 590.112 168.162 575.379 198.966C552.084 202.2 528.993 204.989 505.452 207.572Z" fill="#87F2E7"/>
<path d="M414.375 39.4498C410.157 27.3036 407.983 16.6362 407.242 8.7769C420.105 -7.316 433.172 -23.8517 455.884 -42.3893C471.084 -49.3507 486.284 -56.3124 511.295 -60.9032C512.036 -53.0435 513.964 -43.0265 518.183 -30.8803C503.437 -17.803 488.487 -4.28189 470.398 19.6067C452.703 24.8824 434.56 29.9507 414.375 39.4498Z" fill="url(#paint7_linear_3325_24215)"/>
<path d="M348.846 145.093C345.365 134.897 343.724 126.623 343.474 120.064C348.488 100.893 353.951 81.9293 365.827 57.3267C374.197 45.0716 382.772 32.3738 399.479 18.5884C400.016 26.8909 402.598 36.6723 406.163 49.0541C397.755 66.125 387.674 85.6468 378.579 113.678C368.285 121.825 357.787 130.415 348.846 145.093Z" fill="url(#paint8_linear_3325_24215)"/>
<path d="M453.334 -8.40347L445.547 -15.0081L443.356 2.53036L468.587 -9.97866L453.334 -8.40347ZM447.783 -9.48761L451.47 -6.36069L458.691 -7.10653L446.745 -1.18358L447.783 -9.48761Z" fill="white"/>
</g>
</g>
<defs>
<linearGradient id="paint0_linear_3325_24215" x1="514.398" y1="-195.54" x2="841.566" y2="189.115" gradientUnits="userSpaceOnUse">
<stop stop-color="#87F2E7"/>
<stop offset="1" stop-color="#2E37F2"/>
</linearGradient>
<linearGradient id="paint1_linear_3325_24215" x1="424.082" y1="-118.705" x2="751.248" y2="265.95" gradientUnits="userSpaceOnUse">
<stop stop-color="#87F2E7"/>
<stop offset="1" stop-color="#2E37F2"/>
</linearGradient>
<linearGradient id="paint2_linear_3325_24215" x1="323.964" y1="-33.5755" x2="651.132" y2="351.081" gradientUnits="userSpaceOnUse">
<stop stop-color="#87F2E7"/>
<stop offset="1" stop-color="#2E37F2"/>
</linearGradient>
<linearGradient id="paint3_linear_3325_24215" x1="238.712" y1="39.0061" x2="565.878" y2="423.661" gradientUnits="userSpaceOnUse">
<stop stop-color="#87F2E7"/>
<stop offset="1" stop-color="#2E37F2"/>
</linearGradient>
<linearGradient id="paint4_linear_3325_24215" x1="401.065" y1="-99.0843" x2="728.232" y2="285.572" gradientUnits="userSpaceOnUse">
<stop stop-color="#87F2E7"/>
<stop offset="1" stop-color="#2E37F2"/>
</linearGradient>
<linearGradient id="paint5_linear_3325_24215" x1="459.12" y1="-148.497" x2="786.288" y2="236.158" gradientUnits="userSpaceOnUse">
<stop stop-color="#87F2E7"/>
<stop offset="1" stop-color="#2E37F2"/>
</linearGradient>
<linearGradient id="paint6_linear_3325_24215" x1="488.214" y1="-173.221" x2="815.38" y2="211.433" gradientUnits="userSpaceOnUse">
<stop stop-color="#87F2E7"/>
<stop offset="1" stop-color="#2E37F2"/>
</linearGradient>
<linearGradient id="paint7_linear_3325_24215" x1="392.283" y1="-91.6747" x2="719.452" y2="292.981" gradientUnits="userSpaceOnUse">
<stop stop-color="#87F2E7"/>
<stop offset="1" stop-color="#2E37F2"/>
</linearGradient>
<linearGradient id="paint8_linear_3325_24215" x1="295.001" y1="-8.92195" x2="622.17" y2="375.735" gradientUnits="userSpaceOnUse">
<stop stop-color="#87F2E7"/>
<stop offset="1" stop-color="#2E37F2"/>
</linearGradient>
</defs>
</svg>
