<svg width="44" height="18" viewBox="0 0 44 18" fill="none" xmlns="http://www.w3.org/2000/svg">
<path d="M8.0102 2.32065C7.49641 2.92864 6.67433 3.40818 5.85226 3.33968C5.7495 2.5176 6.15197 1.64415 6.62295 1.10466C7.13675 0.479543 8.03589 0.0342531 8.76377 0C8.8494 0.856327 8.51544 1.69553 8.0102 2.32065ZM8.75521 3.50238C7.56491 3.43387 6.54588 4.17888 5.98071 4.17888C5.40697 4.17888 4.54208 3.53663 3.60012 3.55376C2.37557 3.57088 1.23665 4.26451 0.611533 5.36917C-0.672958 7.5785 0.277565 10.8497 1.51924 12.648C2.12723 13.5385 2.85511 14.5147 3.8142 14.4805C4.7219 14.4462 5.08156 13.8896 6.17766 13.8896C7.28232 13.8896 7.59917 14.4805 8.55825 14.4634C9.55159 14.4462 10.1767 13.5728 10.7847 12.6822C11.4783 11.6717 11.7609 10.687 11.778 10.6356C11.7609 10.6185 9.85987 9.89058 9.84274 7.69838C9.82562 5.86584 11.3413 4.99239 11.4098 4.94101C10.5535 3.67364 9.21762 3.53663 8.75521 3.50238ZM15.6315 1.01903V14.3692H17.7038V9.80495H20.5725C23.1929 9.80495 25.034 8.00666 25.034 5.40343C25.034 2.80019 23.2271 1.01903 20.641 1.01903H15.6315ZM17.7038 2.76594H20.093C21.8913 2.76594 22.9189 3.72502 22.9189 5.41199C22.9189 7.09895 21.8913 8.0666 20.0844 8.0666H17.7038V2.76594ZM28.819 14.4719C30.1206 14.4719 31.328 13.8126 31.876 12.7678H31.9189V14.3692H33.837V7.72407C33.837 5.79734 32.2957 4.55566 29.9236 4.55566C27.7229 4.55566 26.0958 5.81446 26.0359 7.54424H27.9027C28.0568 6.72217 28.819 6.18268 29.8637 6.18268C31.131 6.18268 31.8418 6.77355 31.8418 7.86109V8.59753L29.2557 8.75167C26.8494 8.89724 25.5478 9.88202 25.5478 11.5947C25.5478 13.3245 26.8922 14.4719 28.819 14.4719ZM29.3756 12.8877C28.2709 12.8877 27.5687 12.3568 27.5687 11.5433C27.5687 10.7041 28.2452 10.216 29.5383 10.1389L31.8418 9.99334V10.7469C31.8418 11.9971 30.78 12.8877 29.3756 12.8877ZM36.3975 18C38.4184 18 39.3689 17.2293 40.1996 14.8915L43.8389 4.68411H41.7324L39.2918 12.5709H39.249L36.8085 4.68411H34.642L38.1529 14.4034L37.9645 14.9943C37.6477 15.9962 37.1339 16.3815 36.2176 16.3815C36.0549 16.3815 35.7381 16.3644 35.6096 16.3473V17.9486C35.7295 17.9829 36.2433 18 36.3975 18Z" fill="white"/>
</svg>
