<svg width="346" height="124" viewBox="0 0 346 124" fill="none" xmlns="http://www.w3.org/2000/svg">
<path d="M255.071 89.5609C280.003 89.5609 300.213 69.512 300.213 44.7805C300.213 20.0489 280.003 0 255.071 0C230.14 0 209.93 20.0489 209.93 44.7805C209.93 69.512 230.14 89.5609 255.071 89.5609Z" fill="url(#paint0_linear_325_241)"/>
<path d="M249.871 66.0967L252.522 63.4664L251.741 62.6912L248.312 66.0967L251.741 69.5023L252.522 68.7271L249.871 66.0967Z" fill="white"/>
<path d="M254.498 66.0967L257.15 63.4664L256.369 62.6912L252.936 66.0967L256.369 69.5023L257.15 68.7271L254.498 66.0967Z" fill="white"/>
<path d="M259.184 66.0967L261.836 63.4664L261.054 62.6912L257.621 66.0967L261.054 69.5023L261.836 68.7271L259.184 66.0967Z" fill="white"/>
<path d="M260.273 27.7922L257.621 30.4226L258.403 31.194L261.836 27.7922L258.403 24.3866L257.621 25.1618L260.273 27.7922Z" fill="white"/>
<path d="M255.644 27.7922L252.992 30.4226L253.774 31.194L257.207 27.7922L253.774 24.3866L252.992 25.1618L255.644 27.7922Z" fill="white"/>
<path d="M250.963 27.7922L248.312 30.4226L249.089 31.194L252.522 27.7922L249.089 24.3866L248.312 25.1618L250.963 27.7922Z" fill="white"/>
<path d="M329.678 81.0646C338.692 72.1224 338.692 57.6242 329.678 48.6819C320.664 39.7397 306.048 39.7397 297.034 48.6819C288.02 57.6242 288.02 72.1224 297.034 81.0646C306.048 90.0069 320.664 90.0069 329.678 81.0646Z" fill="url(#paint1_linear_325_241)"/>
<path d="M316.882 73.1946C321.511 71.2594 323.683 65.9677 321.732 61.3752C319.781 56.7827 314.447 54.6285 309.817 56.5637C305.188 58.4989 303.016 63.7906 304.967 68.3831C306.918 72.9756 312.252 75.1298 316.882 73.1946Z" fill="#252124"/>
<path d="M38.3834 85C17.1848 85 0.138104 102.184 0.308464 123.382H77.0753C76.9049 102.184 59.5819 85 38.3834 85Z" fill="white" fill-opacity="0.13"/>
<path d="M206 111.526L223.844 111.541L214.934 96.2069L206 111.526ZM210.192 109.129L214.93 101.005L219.656 109.137L210.192 109.129Z" fill="white"/>
<path d="M69.3482 76.9066L65.9949 64.3496L56.8862 73.5094L69.3482 76.9066ZM66.8716 74.4094L60.2625 72.6076L65.0926 67.7493L66.8716 74.4094Z" fill="white" fill-opacity="0.12"/>
<path d="M239.682 123C239.682 114.567 246.571 107.733 255.072 107.733C263.573 107.733 270.462 114.567 270.462 123H239.682Z" fill="#6DD696"/>
<defs>
<linearGradient id="paint0_linear_325_241" x1="256.159" y1="38.4832" x2="309.695" y2="163.92" gradientUnits="userSpaceOnUse">
<stop stop-color="#7A43FF"/>
<stop offset="1" stop-color="#CB88FF"/>
</linearGradient>
<linearGradient id="paint1_linear_325_241" x1="291.115" y1="31.0398" x2="350.742" y2="64.2763" gradientUnits="userSpaceOnUse">
<stop stop-color="#B7FFCB"/>
<stop offset="1" stop-color="#1E7386"/>
</linearGradient>
</defs>
</svg>
