<svg width="38" height="38" viewBox="0 0 38 38" fill="none" xmlns="http://www.w3.org/2000/svg">
<circle cx="19" cy="19" r="19" fill="#FF9F38"/>
<path fill-rule="evenodd" clip-rule="evenodd" d="M27.6607 15.8814C28.04 13.3861 26.1106 12.0443 23.4745 11.1491L24.3298 7.76793L22.2422 7.256L21.4086 10.5478C20.8715 10.4149 20.3205 10.2912 19.7703 10.1676L19.7353 10.1597L20.575 6.84645L18.4873 6.33333L17.6319 9.71327L17.5407 9.6927C17.1178 9.59744 16.7017 9.50369 16.2982 9.40373L16.3006 9.39301L13.4204 8.68464L12.8647 10.8824C12.8647 10.8824 14.4147 11.2324 14.3821 11.2538C15.2278 11.4622 15.38 12.0134 15.3546 12.4515L14.3809 16.3029C14.4388 16.3172 14.5138 16.3386 14.5983 16.3707L14.3772 16.3172L13.012 21.7127C12.9081 21.9651 12.646 22.3449 12.054 22.2008C12.0757 22.2306 10.5366 21.8282 10.5366 21.8282L9.5 24.183L12.2183 24.8509C12.5102 24.9232 12.7989 24.9974 13.0847 25.0709C13.2932 25.1246 13.5001 25.1778 13.7055 25.2295L12.8417 28.6487L14.9281 29.1607L15.7835 25.7795C16.3537 25.9307 16.9071 26.0712 17.4483 26.2046L16.5954 29.5714L18.683 30.0833L19.5468 26.6713C23.1084 27.3356 25.7856 27.0677 26.9128 23.8937C27.8213 21.3388 26.8681 19.8638 24.9943 18.903C26.3595 18.5935 27.3864 17.7089 27.6607 15.8814ZM22.8885 22.4746C22.2978 24.8194 18.5737 23.8501 16.8691 23.4064L16.8689 23.4063C16.7154 23.3664 16.5783 23.3307 16.4613 23.302L17.609 18.7721C17.7517 18.8072 17.9262 18.8458 18.1239 18.8896C19.8871 19.2799 23.4958 20.0788 22.8885 22.4746ZM18.478 16.7868C19.8984 17.1605 22.9957 17.9754 23.5349 15.8445C24.0864 13.6651 21.0755 13.0087 19.6048 12.6881C19.4391 12.652 19.2929 12.6201 19.1735 12.5908L18.1345 16.6981C18.2329 16.7223 18.3485 16.7527 18.478 16.7868Z" fill="white"/>
</svg>
