<svg width="142" height="28" viewBox="0 0 142 28" fill="none" xmlns="http://www.w3.org/2000/svg">
<path d="M45.8433 10.3363C45.7183 10.1995 45.4544 10.0217 45.0518 9.80283C44.6492 9.57031 44.163 9.36513 43.5938 9.18731C43.0383 8.99582 42.4622 8.90007 41.865 8.90007C40.296 8.90007 39.5114 9.4472 39.5114 10.5414C39.5114 10.9381 39.6364 11.2527 39.8863 11.4852C40.1363 11.7178 40.5112 11.9161 41.0111 12.0802C41.511 12.2444 42.1358 12.4222 42.8856 12.6137C43.8577 12.8599 44.6977 13.1471 45.4059 13.4754C46.1281 13.8037 46.6765 14.2414 47.0514 14.7885C47.4403 15.322 47.6346 16.0332 47.6346 16.9223C47.6346 17.9619 47.3778 18.8031 46.8639 19.4459C46.364 20.0751 45.6975 20.5333 44.8644 20.8206C44.0312 21.1078 43.1287 21.2514 42.1566 21.2514C41.0459 21.2514 39.942 21.0873 38.8449 20.759C37.7618 20.4171 36.7968 19.952 35.9497 19.3639L37.2203 16.9223C37.3452 17.0454 37.5675 17.2096 37.8868 17.4147C38.206 17.6062 38.5949 17.8046 39.0532 18.0097C39.5114 18.2012 40.0113 18.3653 40.5528 18.5021C41.0944 18.6389 41.6428 18.7073 42.1983 18.7073C43.7813 18.7073 44.5728 18.2081 44.5728 17.2095C44.5728 16.7855 44.413 16.4436 44.0937 16.1837C43.7744 15.9238 43.323 15.705 42.7398 15.5271C42.1706 15.3493 41.5041 15.151 40.7403 14.9321C39.7962 14.6722 39.0115 14.385 38.3867 14.0704C37.7758 13.7421 37.3176 13.3386 37.012 12.8599C36.7064 12.3675 36.5537 11.7451 36.5537 10.9928C36.5537 9.99431 36.7897 9.15996 37.2619 8.48972C37.7478 7.80582 38.4006 7.29289 39.2198 6.95093C40.039 6.59531 40.9486 6.41748 41.9484 6.41748C42.9758 6.41748 43.9339 6.58162 44.8227 6.90989C45.7115 7.23817 46.475 7.61431 47.1139 8.03834L45.8433 10.3363ZM49.8067 21.0873V6.52007H56.0761C56.7563 6.52007 57.3812 6.65686 57.9507 6.93041C58.5339 7.20397 59.0338 7.57328 59.4504 8.03834C59.8669 8.50341 60.193 9.02317 60.4293 9.59765C60.6653 10.1721 60.7834 10.7603 60.7834 11.3621C60.7834 12.1828 60.5888 12.9625 60.2002 13.7011C59.8113 14.4397 59.2697 15.0416 58.5755 15.5066C57.895 15.9717 57.0967 16.2042 56.1803 16.2042H52.681V21.0873H49.8067ZM52.681 13.7216H56.0136C56.5412 13.7216 56.9786 13.5096 57.3258 13.0856C57.6868 12.6479 57.8674 12.0734 57.8674 11.3621C57.8674 10.6098 57.6659 10.0285 57.2633 9.61817C56.8605 9.20783 56.4022 9.00265 55.8887 9.00265H52.681V13.7216ZM75.2185 6.52007V21.0873H72.365V14.8706H65.6582V21.0873H62.7838V6.52007H65.6582V12.4085H72.365V6.52007H75.2185ZM88.572 18.6047V21.0873H78.3035V6.52007H88.3846V9.00265H81.1779V12.5111H87.4056V14.809H81.1779V18.6047H88.572ZM90.8129 21.0873V6.52007H97.3531C98.0336 6.52007 98.6585 6.65686 99.2277 6.93041C99.8109 7.20397 100.311 7.57328 100.727 8.03834C101.158 8.50341 101.484 9.02317 101.706 9.59765C101.943 10.1721 102.06 10.7603 102.06 11.3621C102.06 12.2922 101.818 13.1471 101.331 13.9268C100.859 14.7064 100.214 15.2672 99.3943 15.6092L102.769 21.0873H99.6026L96.5616 16.2042H93.6873V21.0873H90.8129ZM93.6873 13.7216H97.2906C97.8321 13.7216 98.2767 13.4959 98.6236 13.0446C98.9849 12.5795 99.1652 12.0187 99.1652 11.3621C99.1652 10.9108 99.0682 10.5072 98.8736 10.1516C98.6793 9.796 98.4293 9.51558 98.1238 9.31041C97.8322 9.10524 97.5129 9.00265 97.1656 9.00265H93.6873V13.7216ZM104.665 21.0873V6.52007H107.539V21.0873H104.665ZM116.894 21.1899C115.714 21.1899 114.707 20.9984 113.874 20.6154C113.055 20.2188 112.388 19.6784 111.874 18.9946C111.374 18.3107 111.007 17.5378 110.77 16.6761C110.534 15.8007 110.416 14.8911 110.416 13.9473V6.52007H113.291V13.9473C113.291 14.7543 113.402 15.5203 113.624 16.2452C113.846 16.9702 114.221 17.5583 114.749 18.0097C115.276 18.4611 115.985 18.6868 116.873 18.6868C117.79 18.6868 118.512 18.4611 119.039 18.0097C119.567 17.5447 119.942 16.9497 120.164 16.2247C120.386 15.4998 120.497 14.7407 120.497 13.9473V6.52007H123.351V13.9473C123.351 14.9458 123.226 15.8828 122.976 16.7582C122.74 17.6336 122.358 18.4064 121.83 19.0766C121.317 19.7332 120.65 20.2529 119.831 20.6359C119.012 21.0052 118.033 21.1899 116.894 21.1899ZM138.306 21.0873V11.5263L134.515 18.6458H132.911L129.12 11.5263V21.0873H126.246V6.52007H129.329L133.703 14.809L138.118 6.52007H141.18V21.0873H138.306Z" fill="white"/>
<path d="M11.9846 6.54108C11.5083 6.17065 11.057 5.82493 10.6309 5.47918C10.4303 5.30633 10.2548 5.15816 10.0793 5.00999C10.5807 4.29382 11.0821 3.52826 11.9846 2.76273C12.8621 2.56516 13.8649 2.3676 15.2939 2.19473C15.4192 2.29352 15.5446 2.41699 15.6699 2.51577C15.9457 2.76273 16.2716 3.00967 16.5975 3.25663C16.1462 3.75052 15.695 4.31852 15.1936 5.35572C14.0404 5.77552 13.1379 6.09657 11.9846 6.54108Z" fill="url(#paint0_linear_0_1)"/>
<path d="M7.59758 11.9251C7.04604 11.5052 6.51957 11.0854 6.04326 10.6903C5.81763 10.4928 5.592 10.3199 5.39143 10.147C5.64213 9.13452 5.91789 8.07262 6.49452 6.81317C7.27167 6.39336 8.17418 5.92415 9.55303 5.40555C9.72853 5.55372 9.92908 5.7266 10.1296 5.89947C10.5558 6.2699 11.0321 6.61562 11.5085 6.98605C11.2327 7.85037 10.9319 8.73939 10.6812 10.1964C9.67837 10.715 8.72573 11.2336 7.59758 11.9251Z" fill="url(#paint1_linear_0_1)"/>
<path d="M5.01471 17.9992C4.5133 17.6287 4.01191 17.2336 3.58573 16.8632C3.38515 16.6903 3.1846 16.5175 3.00911 16.3446C2.88376 15.3074 2.80856 14.2208 2.90883 12.7638C3.41023 12.1958 3.98683 11.5291 5.06484 10.7141C5.26539 10.887 5.49102 11.0846 5.71665 11.2821C6.19299 11.6772 6.71945 12.0971 7.29608 12.5169C7.22087 13.5047 7.12058 14.6407 7.17071 16.2211C6.41862 16.7644 5.71665 17.283 5.01471 17.9992Z" fill="url(#paint2_linear_0_1)"/>
<path d="M27.1265 15.6038C27.6281 15.2333 28.1294 14.8382 28.5555 14.4678C28.7562 14.2949 28.9567 14.1221 29.1323 13.9492C29.2324 12.8873 29.3328 11.8254 29.2324 10.3684C28.7311 9.8004 28.1546 9.13363 27.0765 8.3187C26.876 8.49155 26.6504 8.68912 26.4247 8.88668C25.9483 9.2818 25.4219 9.70161 24.8453 10.1214C24.9205 11.1092 25.0208 12.2452 24.9706 13.8257C25.7479 14.369 26.4247 14.8876 27.1265 15.6038Z" fill="url(#paint3_linear_0_1)"/>
<path d="M4.78994 23.1616C4.43894 22.8899 4.08797 22.6183 3.78713 22.3713C3.63671 22.2478 3.51137 22.1244 3.38601 22.0256C2.9849 21.1613 2.58378 20.2722 2.20773 18.9634C2.35815 18.1979 2.43336 17.7533 2.90969 16.9384C3.08518 17.1113 3.28574 17.2594 3.48629 17.4323C3.91247 17.8027 4.38881 18.1732 4.8902 18.5436C5.0657 19.4326 5.24119 20.4451 5.61724 21.7045C5.29133 22.1244 4.94035 22.5689 4.78994 23.1616Z" fill="url(#paint4_linear_0_1)"/>
<path d="M20.4332 11.6774C19.5307 11.2082 18.6031 10.739 17.7006 10.2204C17.7758 9.23259 17.8259 8.26948 18.0265 7.1582C18.8538 6.71369 19.656 6.26918 20.5084 5.72588C21.1352 6.0716 21.7368 6.41735 22.3636 6.71369C22.4388 7.55331 22.514 8.22007 22.6895 9.62772C22.1129 10.2204 21.5363 10.8131 20.4332 11.6774Z" fill="url(#paint5_linear_0_1)"/>
<path d="M17.3499 17.8513C16.297 17.3327 15.2441 16.7647 14.2162 16.172C14.2412 14.9125 14.2663 13.826 14.3415 12.5418C15.7454 11.7269 16.4725 11.3317 17.4001 10.7638C18.3276 11.2824 19.2552 11.7762 20.1828 12.2455C20.233 13.4061 20.3082 14.5915 20.3583 15.7522C19.5561 16.3695 18.7538 16.9375 17.3499 17.8513Z" fill="url(#paint6_linear_0_1)"/>
<path d="M13.9402 23.4088C12.9876 22.9149 12.0098 22.421 11.0572 21.8777C10.982 20.6677 10.9068 19.7786 10.8566 18.5933C13.2132 17.1857 13.2132 17.1857 13.8901 16.7658C14.9179 17.3585 15.9709 17.9018 17.0238 18.4451C16.9988 20.7171 16.9988 21.1369 16.9737 21.8777C16.0712 22.3469 15.2689 22.7668 13.9402 23.4088Z" fill="url(#paint7_linear_0_1)"/>
<path d="M11.0568 26.9393C10.3799 26.5937 9.70302 26.2478 9.05119 25.8528C8.82556 24.7168 8.7253 24.1982 8.59993 23.5808C9.22669 23.2103 9.65287 22.9387 10.8312 22.2966C11.7587 22.8152 12.7114 23.3338 13.639 23.803C13.6139 24.6179 13.6139 25.4083 13.5136 26.1985C11.6083 26.8159 11.0568 26.9393 11.0568 26.9393Z" fill="url(#paint8_linear_0_1)"/>
<path d="M27.0016 25.2346C27.5784 24.8146 28.18 24.3701 28.7566 23.9256C29.0323 22.8391 29.1578 22.3452 29.283 21.7525C28.7817 21.5055 28.4306 21.308 27.5032 20.9128C26.7008 21.5302 25.8735 22.1476 25.0462 22.7403C24.9961 23.5058 24.971 24.2219 24.9961 24.9382C26.5503 25.2098 27.0016 25.2346 27.0016 25.2346Z" fill="#C4C4C4"/>
<path d="M27.0016 25.2346C27.5784 24.8146 28.18 24.3701 28.7566 23.9256C29.0323 22.8391 29.1578 22.3452 29.283 21.7525C28.7817 21.5055 28.4306 21.308 27.5032 20.9128C26.7008 21.5302 25.8735 22.1476 25.0462 22.7403C24.9961 23.5058 24.971 24.2219 24.9961 24.9382C26.5503 25.2098 27.0016 25.2346 27.0016 25.2346Z" fill="url(#paint9_linear_0_1)"/>
<path d="M14.0655 11.9502C13.1129 11.3575 12.1853 10.7649 11.3078 10.1722C11.5084 9.18437 11.709 8.17187 12.1101 6.98651C13.2382 6.542 13.7647 6.31974 15.319 5.75176C16.021 6.22095 16.748 6.69017 17.5001 7.15938C17.3748 7.97432 17.2244 8.81394 17.1241 10.2216C15.9207 10.913 15.7452 11.0118 14.0655 11.9502Z" fill="url(#paint10_linear_0_1)"/>
<path d="M6.51938 6.31874C6.0932 5.84952 5.76729 5.42972 5.56673 5.08399C6.34388 4.09618 6.77009 3.55288 7.82302 2.68856C8.57512 2.36752 9.45256 2.02179 10.7562 1.70076C10.9066 1.97241 11.1573 2.29343 11.5083 2.66386C10.7061 3.42941 10.2548 3.84922 9.55284 4.91112C8.65033 5.33093 7.6726 5.70135 6.51938 6.31874Z" fill="url(#paint11_linear_0_1)"/>
<path d="M27.3024 5.40521C27.7285 4.93602 28.0545 4.51618 28.255 4.17046C27.478 3.18265 27.0516 2.63937 25.9987 1.77503C25.2467 1.454 24.3692 1.10827 23.0656 0.787231C22.9152 1.05888 22.6645 1.37991 22.3135 1.75034C23.1157 2.51588 23.567 2.93571 24.2689 3.99759C25.1965 4.39272 26.1743 4.76314 27.3024 5.40521Z" fill="url(#paint12_linear_0_1)"/>
<path d="M10.5308 18.0239C9.55305 17.4312 8.60041 16.8138 7.69789 16.1964C7.69789 15.0111 7.67281 13.9986 7.84831 12.4922C8.72575 11.9489 9.50292 11.4797 10.9319 10.7141C11.8093 11.3068 12.762 11.9242 13.7147 12.4922C13.6394 13.6035 13.5893 14.4184 13.5642 16.147C12.5614 16.7891 11.5587 17.4065 10.5308 18.0239Z" fill="#87F2E7"/>
<path d="M2.78357 12.221C2.33231 11.7518 2.00641 11.3073 1.80585 10.9616C2.05655 9.94905 2.30724 8.91185 2.95906 7.57832C3.5106 6.93625 4.06214 6.29417 5.11508 5.55331C5.31563 5.89906 5.61647 6.31887 6.06773 6.78808C5.6666 7.70179 5.2655 8.64021 4.93958 10.1219C4.23762 10.7393 3.5106 11.3567 2.78357 12.221Z" fill="url(#paint13_linear_0_1)"/>
<path d="M8.27412 23.1607C7.4719 22.6668 6.69472 22.1729 5.9677 21.679C5.74208 20.7653 5.51645 19.8269 5.29082 18.4933C5.81728 17.9994 6.36883 17.5055 7.42177 16.74C8.2992 17.3326 9.25185 17.95 10.2296 18.5427C10.3048 19.654 10.3299 20.3208 10.4552 21.8025C9.67805 22.2964 8.97609 22.7162 8.27412 23.1607Z" fill="url(#paint14_linear_0_1)"/>
<path d="M2.00678 18.468C1.63073 18.0729 1.38003 17.7271 1.22961 17.4308C1.05412 16.443 0.903699 15.4552 0.928769 14.0722C1.05412 13.3314 1.17947 12.5659 1.6558 11.5781C1.85636 11.9485 2.18226 12.3436 2.60845 12.8375C2.58338 13.8006 2.53324 14.9119 2.70873 16.3936C2.40789 16.9863 2.10705 17.6037 2.00678 18.468Z" fill="url(#paint15_linear_0_1)"/>
<path d="M20.634 23.0866C19.6814 22.7162 18.6786 22.2964 17.6758 21.8272C17.7009 21.037 17.7259 19.9257 17.7259 18.3946C18.7037 17.7278 19.6563 17.1104 20.7343 16.2708C21.7371 16.74 22.7148 17.1598 23.6675 17.5302C23.7176 18.6415 23.7928 19.6787 23.7176 20.9629C22.9154 21.5802 22.0129 22.2717 20.634 23.0866Z" fill="url(#paint16_linear_0_1)"/>
<path d="M16.4975 27.2862C15.7203 26.9898 14.9181 26.6442 14.0908 26.249C14.166 25.6563 14.2412 25.0143 14.2913 23.8289C15.2691 23.3844 16.1716 22.9646 17.3498 22.3225C18.3526 22.7917 19.3554 23.2115 20.283 23.5819C20.1577 24.3968 20.0323 25.2613 19.7064 26.1503C17.3248 27.1135 16.4975 27.2862 16.4975 27.2862Z" fill="url(#paint17_linear_0_1)"/>
<path d="M27.141 23.5022L26.6616 23.6946L27.4078 24.203L27.4206 22.7856L27.141 23.5022ZM26.9639 23.7242L27.1908 23.6331L27.3232 23.2939L27.3173 23.9649L26.9639 23.7242Z" fill="white"/>
<path d="M27.3614 22.6758L26.6424 22.1903L26.6278 23.5543L27.0907 23.3673L27.3614 22.6758ZM26.7326 22.4272L27.1427 22.7042L26.8786 22.8108L26.7242 23.2052L26.7326 22.4272ZM26.9287 22.9417L27.1989 22.8324L27.0409 23.2365L26.7704 23.3458L26.9287 22.9417Z" fill="white"/>
<path d="M3.56157 9.19414L3.06358 9.05535L3.33428 9.9083L4.22963 8.79865L3.56157 9.19414ZM3.28332 9.26186L3.51911 9.32757L3.83541 9.14031L3.41149 9.66571L3.28332 9.26186Z" fill="white"/>
<path d="M4.25053 8.67554L3.98705 7.85708L3.12366 8.92362L3.60528 9.05663L4.25053 8.67554ZM3.91021 8.09855L4.06048 8.56538L3.78576 8.48953L3.41777 8.70688L3.91021 8.09855ZM3.74334 8.62285L4.0248 8.70058L3.64772 8.9233L3.36625 8.84557L3.74334 8.62285Z" fill="white"/>
<path d="M26.3969 2.95601C26.2326 2.67652 25.9865 2.42677 25.7042 2.25273C25.4218 2.07869 25.1369 2.00118 24.9018 2.03451C24.6668 2.06786 24.5098 2.20801 24.4597 2.4292C24.4097 2.65036 24.4727 2.92608 24.637 3.20557C24.8013 3.48503 25.0473 3.73478 25.3297 3.90882C25.4238 3.9668 25.5192 4.01463 25.6132 4.05096C25.6305 4.05762 25.6431 4.05038 25.6416 4.03481C25.6401 4.01924 25.6248 4.00122 25.6078 3.99459C25.5191 3.96036 25.4293 3.9153 25.3406 3.86065C25.0747 3.69674 24.8429 3.46151 24.6882 3.1983C24.5334 2.93509 24.4741 2.67541 24.5212 2.46709C24.5683 2.25878 24.7162 2.12676 24.9376 2.09538C25.159 2.064 25.4274 2.13697 25.6934 2.3009C25.9594 2.46481 26.191 2.70006 26.3458 2.96325C26.5007 3.22646 26.5599 3.48614 26.5128 3.69446C26.4657 3.90277 26.3177 4.03479 26.0963 4.06617C25.9893 4.08135 25.8714 4.07241 25.7461 4.03957C25.7294 4.03517 25.7188 4.04484 25.7227 4.06119C25.7266 4.07754 25.7434 4.09435 25.7602 4.09874C25.8933 4.13362 26.0186 4.14314 26.1323 4.12704C26.3673 4.09371 26.5241 3.95354 26.5742 3.73237C26.6242 3.51119 26.5613 3.23547 26.3969 2.95601Z" fill="white"/>
<path d="M26.3969 2.95601C26.2326 2.67652 25.9865 2.42677 25.7042 2.25273C25.4218 2.07869 25.1369 2.00118 24.9018 2.03451C24.6668 2.06786 24.5098 2.20801 24.4597 2.4292C24.4097 2.65036 24.4727 2.92608 24.637 3.20557C24.8013 3.48503 25.0473 3.73478 25.3297 3.90882C25.4238 3.9668 25.5192 4.01463 25.6132 4.05096C25.6305 4.05762 25.6431 4.05038 25.6416 4.03481C25.6401 4.01924 25.6248 4.00122 25.6078 3.99459C25.5191 3.96036 25.4293 3.9153 25.3406 3.86065C25.0747 3.69674 24.8429 3.46151 24.6882 3.1983C24.5334 2.93509 24.4741 2.67541 24.5212 2.46709C24.5683 2.25878 24.7162 2.12676 24.9376 2.09538C25.159 2.064 25.4274 2.13697 25.6934 2.3009C25.9594 2.46481 26.191 2.70006 26.3458 2.96325C26.5007 3.22646 26.5599 3.48614 26.5128 3.69446C26.4657 3.90277 26.3177 4.03479 26.0963 4.06617C25.9893 4.08135 25.8714 4.07241 25.7461 4.03957C25.7294 4.03517 25.7188 4.04484 25.7227 4.06119C25.7266 4.07754 25.7434 4.09435 25.7602 4.09874C25.8933 4.13362 26.0186 4.14314 26.1323 4.12704C26.3673 4.09371 26.5241 3.95354 26.5742 3.73237C26.6242 3.51119 26.5613 3.23547 26.3969 2.95601Z" fill="white"/>
<path d="M24.9404 2.24312C24.9286 2.22677 24.9088 2.21708 24.8962 2.22145C24.7524 2.27146 24.6582 2.37827 24.6239 2.5303C24.5366 2.91608 24.8664 3.47687 25.3589 3.78042C25.8515 4.08398 26.3233 4.01711 26.4103 3.63133C26.4976 3.24558 26.1679 2.68476 25.6752 2.38121C25.4444 2.23887 25.2095 2.1728 25.0139 2.19514C24.9996 2.1968 24.9957 2.21178 25.0053 2.22862C25.0149 2.24545 25.0343 2.25779 25.0486 2.25616C25.2307 2.23535 25.4494 2.29685 25.6644 2.42938C26.123 2.71204 26.43 3.23423 26.3489 3.59344C26.2675 3.95264 25.8283 4.01492 25.3698 3.73225C24.9112 3.44961 24.6041 2.9274 24.6854 2.56819C24.7174 2.42665 24.8051 2.32721 24.939 2.28065C24.9515 2.27627 24.9522 2.25947 24.9404 2.24312Z" fill="white"/>
<path d="M24.9404 2.24312C24.9286 2.22677 24.9088 2.21708 24.8962 2.22145C24.7524 2.27146 24.6582 2.37827 24.6239 2.5303C24.5366 2.91608 24.8664 3.47687 25.3589 3.78042C25.8515 4.08398 26.3233 4.01711 26.4103 3.63133C26.4976 3.24558 26.1679 2.68476 25.6752 2.38121C25.4444 2.23887 25.2095 2.1728 25.0139 2.19514C24.9996 2.1968 24.9957 2.21178 25.0053 2.22862C25.0149 2.24545 25.0343 2.25779 25.0486 2.25616C25.2307 2.23535 25.4494 2.29685 25.6644 2.42938C26.123 2.71204 26.43 3.23423 26.3489 3.59344C26.2675 3.95264 25.8283 4.01492 25.3698 3.73225C24.9112 3.44961 24.6041 2.9274 24.6854 2.56819C24.7174 2.42665 24.8051 2.32721 24.939 2.28065C24.9515 2.27627 24.9522 2.25947 24.9404 2.24312Z" fill="white"/>
<path d="M24.9763 3.08325C24.9888 3.10883 25.0107 3.13259 25.0363 3.1484L25.6115 3.50289C25.6877 3.54984 25.7671 3.57535 25.835 3.57474C25.9028 3.57411 25.9568 3.54739 25.9866 3.49947L26.0815 3.34717C26.1183 3.28838 26.1131 3.20121 26.0677 3.10803C26.0221 3.01485 25.9425 2.92835 25.849 2.87074L25.3492 2.56271C25.3096 2.5383 25.2711 2.53867 25.2555 2.56356L25.1532 2.72774L25.0186 2.64481C24.9876 2.62565 24.9568 2.62553 24.9439 2.6445L24.8944 2.71744C24.8871 2.7282 24.8877 2.74443 24.8961 2.76199C24.9045 2.77953 24.9194 2.79583 24.937 2.80668L25.0576 2.88104L24.9725 3.0176C24.9624 3.03375 24.9638 3.05768 24.9763 3.08325ZM25.0009 2.69296C25.0021 2.69123 25.0049 2.69123 25.0077 2.69298L25.5723 3.04101L25.5254 3.11029C25.5242 3.11201 25.5214 3.11199 25.5186 3.11026L24.9539 2.76223L25.0009 2.69296ZM25.3013 3.03125L25.5077 3.15841C25.5388 3.17757 25.5694 3.17772 25.5824 3.15875L25.632 3.08578C25.6392 3.07504 25.6387 3.05879 25.6303 3.04126C25.6219 3.02369 25.6069 3.0074 25.5894 2.99654L25.3969 2.87795L25.4301 2.82478L25.8046 3.05561C25.8266 3.06909 25.8448 3.0885 25.8552 3.10888C25.8658 3.13011 25.867 3.14995 25.8589 3.16336L25.7639 3.31564C25.7454 3.34496 25.7003 3.34537 25.6537 3.31663L25.2706 3.08058L25.3013 3.03125ZM25.2383 2.99241L25.2019 3.05078C25.1972 3.05826 25.1979 3.06933 25.2037 3.08119C25.2095 3.09304 25.2196 3.10405 25.2315 3.11138L25.6426 3.3648C25.7183 3.41139 25.7918 3.41073 25.8214 3.36317L25.9163 3.2109C25.9324 3.18547 25.9296 3.14774 25.9094 3.10742C25.8899 3.06873 25.8559 3.03227 25.8155 3.00744L25.4229 2.76549C25.4046 2.75417 25.3867 2.75434 25.3795 2.76588L25.3339 2.83911L25.2162 2.76658L25.3131 2.6111C25.3173 2.60442 25.3276 2.60435 25.3383 2.61088L25.8382 2.91891C25.9129 2.96496 25.9765 3.03407 26.0127 3.10854C26.0492 3.18299 26.0532 3.25265 26.0238 3.29963L25.9289 3.45193C25.9045 3.49109 25.8606 3.51295 25.8051 3.51346C25.7496 3.51394 25.6848 3.4931 25.6224 3.45472L25.0472 3.10023C25.0378 3.09443 25.0331 3.0868 25.0311 3.08277C25.0292 3.07874 25.0264 3.07108 25.0301 3.06516L25.1207 2.91988L25.2383 2.99241Z" fill="white"/>
<path d="M24.9763 3.08325C24.9888 3.10883 25.0107 3.13259 25.0363 3.1484L25.6115 3.50289C25.6877 3.54984 25.7671 3.57535 25.835 3.57474C25.9028 3.57411 25.9568 3.54739 25.9866 3.49947L26.0815 3.34717C26.1183 3.28838 26.1131 3.20121 26.0677 3.10803C26.0221 3.01485 25.9425 2.92835 25.849 2.87074L25.3492 2.56271C25.3096 2.5383 25.2711 2.53867 25.2555 2.56356L25.1532 2.72774L25.0186 2.64481C24.9876 2.62565 24.9568 2.62553 24.9439 2.6445L24.8944 2.71744C24.8871 2.7282 24.8877 2.74443 24.8961 2.76199C24.9045 2.77953 24.9194 2.79583 24.937 2.80668L25.0576 2.88104L24.9725 3.0176C24.9624 3.03375 24.9638 3.05768 24.9763 3.08325ZM25.0009 2.69296C25.0021 2.69123 25.0049 2.69123 25.0077 2.69298L25.5723 3.04101L25.5254 3.11029C25.5242 3.11201 25.5214 3.11199 25.5186 3.11026L24.9539 2.76223L25.0009 2.69296ZM25.3013 3.03125L25.5077 3.15841C25.5388 3.17757 25.5694 3.17772 25.5824 3.15875L25.632 3.08578C25.6392 3.07504 25.6387 3.05879 25.6303 3.04126C25.6219 3.02369 25.6069 3.0074 25.5894 2.99654L25.3969 2.87795L25.4301 2.82478L25.8046 3.05561C25.8266 3.06909 25.8448 3.0885 25.8552 3.10888C25.8658 3.13011 25.867 3.14995 25.8589 3.16336L25.7639 3.31564C25.7454 3.34496 25.7003 3.34537 25.6537 3.31663L25.2706 3.08058L25.3013 3.03125ZM25.2383 2.99241L25.2019 3.05078C25.1972 3.05826 25.1979 3.06933 25.2037 3.08119C25.2095 3.09304 25.2196 3.10405 25.2315 3.11138L25.6426 3.3648C25.7183 3.41139 25.7918 3.41073 25.8214 3.36317L25.9163 3.2109C25.9324 3.18547 25.9296 3.14774 25.9094 3.10742C25.8899 3.06873 25.8559 3.03227 25.8155 3.00744L25.4229 2.76549C25.4046 2.75417 25.3867 2.75434 25.3795 2.76588L25.3339 2.83911L25.2162 2.76658L25.3131 2.6111C25.3173 2.60442 25.3276 2.60435 25.3383 2.61088L25.8382 2.91891C25.9129 2.96496 25.9765 3.03407 26.0127 3.10854C26.0492 3.18299 26.0532 3.25265 26.0238 3.29963L25.9289 3.45193C25.9045 3.49109 25.8606 3.51295 25.8051 3.51346C25.7496 3.51394 25.6848 3.4931 25.6224 3.45472L25.0472 3.10023C25.0378 3.09443 25.0331 3.0868 25.0311 3.08277C25.0292 3.07874 25.0264 3.07108 25.0301 3.06516L25.1207 2.91988L25.2383 2.99241Z" fill="white"/>
<path d="M4.3254 19.8992C4.26622 19.6251 4.14801 19.3805 3.99256 19.2105C3.83711 19.0405 3.66304 18.9653 3.50239 18.999C3.34174 19.0327 3.21376 19.1711 3.14203 19.3887C3.07029 19.6063 3.06338 19.8771 3.12257 20.1512C3.18176 20.4253 3.29997 20.6699 3.45541 20.8399C3.5072 20.8966 3.56159 20.9432 3.61713 20.9786C3.62728 20.9851 3.63693 20.9779 3.63865 20.9626C3.64038 20.9473 3.63355 20.9297 3.62341 20.9232C3.57109 20.8899 3.51982 20.8459 3.47102 20.7926C3.32463 20.6324 3.2133 20.4021 3.15755 20.1439C3.1018 19.8857 3.10831 19.6307 3.17588 19.4257C3.24344 19.2207 3.36398 19.0904 3.51528 19.0587C3.66659 19.027 3.83052 19.0977 3.97695 19.2579C4.12335 19.418 4.23468 19.6484 4.29041 19.9065C4.34617 20.1647 4.33966 20.4198 4.27209 20.6247C4.20452 20.8297 4.08399 20.96 3.93268 20.9917C3.85952 21.007 3.78347 20.9987 3.70666 20.9669C3.69635 20.9626 3.68777 20.9722 3.68748 20.9882C3.68718 21.0043 3.69529 21.0208 3.70558 21.025C3.7872 21.0588 3.86793 21.0677 3.94558 21.0514C4.10623 21.0178 4.23421 20.8794 4.30595 20.6617C4.37768 20.4441 4.38458 20.1733 4.3254 19.8992Z" fill="white"/>
<path d="M3.49139 19.2027C3.48651 19.1867 3.47519 19.1772 3.46614 19.1816C3.36265 19.2313 3.28189 19.3366 3.23257 19.4862C3.10745 19.8658 3.22623 20.4159 3.49736 20.7124C3.76846 21.0089 4.09082 20.9414 4.21594 20.5618C4.34108 20.1823 4.2223 19.6322 3.95118 19.3357C3.82406 19.1966 3.68097 19.1325 3.54825 19.1553C3.53854 19.1569 3.53336 19.1717 3.53671 19.1882C3.54004 19.2047 3.55064 19.2168 3.56038 19.2151C3.68395 19.194 3.81721 19.2536 3.93554 19.3831C4.188 19.6592 4.2986 20.1713 4.18211 20.5248C4.06559 20.8782 3.76542 20.9411 3.51296 20.665C3.26052 20.3889 3.14992 19.8767 3.26642 19.5233C3.31233 19.384 3.38752 19.2859 3.48387 19.2396C3.49292 19.2352 3.49629 19.2187 3.49139 19.2027Z" fill="white"/>
<path d="M3.36777 20.0277C3.37149 20.0528 3.38175 20.076 3.39588 20.0915L3.71248 20.4378C3.75442 20.4837 3.80219 20.5084 3.84704 20.5076C3.89187 20.5067 3.93202 20.4802 3.9601 20.433L4.04934 20.2829C4.08379 20.225 4.09575 20.1393 4.08214 20.0479C4.06853 19.9565 4.03122 19.8717 3.97975 19.8154L3.70464 19.5145C3.68284 19.4907 3.65744 19.4912 3.64284 19.5157L3.54662 19.6775L3.47257 19.5965C3.45546 19.5778 3.43524 19.5778 3.42343 19.5965L3.378 19.6684C3.3713 19.679 3.36887 19.6949 3.3713 19.7122C3.37374 19.7294 3.38069 19.7453 3.39041 19.7559L3.45681 19.8286L3.37677 19.9631C3.36731 19.9791 3.36403 20.0026 3.36777 20.0277ZM3.45247 19.6439C3.45356 19.6422 3.45538 19.6422 3.45694 19.6439L3.76776 19.9839L3.72463 20.0522C3.72355 20.0539 3.72172 20.0539 3.72017 20.0522L3.40932 19.7122L3.45247 19.6439ZM3.59096 19.9753L3.70454 20.0996C3.72165 20.1183 3.74185 20.1183 3.75368 20.0996L3.7991 20.0277C3.80581 20.0171 3.80823 20.0011 3.80579 19.9839C3.80337 19.9667 3.79639 19.9507 3.7867 19.9401L3.68079 19.8243L3.71193 19.7719L3.91811 19.9973C3.93017 20.0105 3.93887 20.0295 3.94203 20.0495C3.94533 20.0704 3.94272 20.0899 3.93488 20.1031L3.84564 20.2531C3.82845 20.282 3.79854 20.2826 3.77289 20.2545L3.56203 20.0239L3.59096 19.9753ZM3.55626 19.9374L3.52206 19.9949C3.51767 20.0023 3.51614 20.0132 3.51789 20.0248C3.51962 20.0364 3.52438 20.0472 3.53091 20.0544L3.75726 20.3019C3.79888 20.3474 3.84739 20.3465 3.87525 20.2997L3.96449 20.1496C3.97938 20.1245 3.98434 20.0875 3.9781 20.0479C3.97209 20.0099 3.95591 19.9742 3.93374 19.95L3.71763 19.7136C3.70755 19.7025 3.69576 19.7028 3.689 19.7141L3.6461 19.7863L3.58132 19.7155L3.67243 19.5623C3.67635 19.5557 3.68316 19.5555 3.689 19.5619L3.96412 19.8629C4.00525 19.9078 4.03509 19.9755 4.04596 20.0486C4.05684 20.1216 4.04727 20.1901 4.01973 20.2364L3.93049 20.3865C3.90755 20.4251 3.87473 20.4467 3.83809 20.4474C3.80145 20.4482 3.76239 20.4279 3.72811 20.3904L3.41149 20.0441C3.40631 20.0384 3.40454 20.0309 3.40395 20.027C3.40338 20.023 3.40291 20.0155 3.40636 20.0097L3.49148 19.8665L3.55626 19.9374Z" fill="white"/>
<path d="M27.0009 12.0888L27.122 11.8986C27.1775 11.8111 27.1826 11.6661 27.1336 11.5749C27.0843 11.4837 26.9994 11.4807 26.9439 11.5682L26.8231 11.7585C26.8118 11.776 26.8108 11.805 26.8207 11.8232L26.9632 12.0875C26.9728 12.1058 26.9898 12.1064 27.0009 12.0888ZM26.8788 11.7929L26.9795 11.6343C27.0127 11.5818 27.0638 11.5836 27.0934 11.6383C27.1227 11.6931 27.1195 11.78 27.0862 11.8325L26.9856 11.9911L26.8788 11.7929Z" fill="white"/>
<path d="M27.2695 11.6306C27.2665 11.6076 27.2623 11.5852 27.2571 11.5636C27.2071 11.3561 27.066 11.2639 26.942 11.3577L26.8974 11.2748C26.8875 11.2566 26.8705 11.256 26.8594 11.2735L26.779 11.4003C26.7679 11.4178 26.7667 11.4468 26.7765 11.4651L26.8123 11.5311L26.7718 11.5945L26.7363 11.5285C26.7265 11.5102 26.7095 11.5096 26.6984 11.5271L26.6177 11.654C26.6066 11.6715 26.6056 11.7005 26.6155 11.7187L26.651 11.7848L26.6108 11.8482C26.5997 11.8657 26.5987 11.8947 26.6084 11.9129L26.6796 12.0451C26.6895 12.0633 26.7065 12.0639 26.7176 12.0464L26.7578 11.983L27.0784 12.5776L27.0382 12.641C27.0271 12.6585 27.0258 12.6875 27.0357 12.7058L27.107 12.8379C27.1168 12.8561 27.1338 12.8567 27.1449 12.8392L27.1851 12.7758L27.2209 12.8419C27.2308 12.8601 27.2475 12.8607 27.2589 12.8432L27.3393 12.7164C27.3503 12.6989 27.3516 12.6699 27.3417 12.6516L27.306 12.5856L27.3464 12.5222L27.3819 12.5882C27.3918 12.6065 27.4088 12.6071 27.4199 12.5896L27.5005 12.4627C27.5116 12.4452 27.5126 12.4162 27.5027 12.398L27.4672 12.3319C27.5289 12.2346 27.5585 12.0923 27.5459 11.9545C27.5252 11.7312 27.4014 11.5862 27.2695 11.6306ZM27.4315 12.2658L27.4115 12.2975C27.4002 12.3151 27.3992 12.3441 27.409 12.3623L27.4445 12.4284L27.4044 12.4918L27.3688 12.4257C27.359 12.4075 27.342 12.4069 27.3309 12.4244L27.2502 12.5512C27.2391 12.5687 27.2381 12.5977 27.248 12.6159L27.2835 12.682L27.2433 12.7454L27.2076 12.6794C27.198 12.6611 27.1809 12.6605 27.1698 12.678L27.1294 12.7414L27.0939 12.6754L27.1341 12.612C27.1452 12.5944 27.1462 12.5655 27.1366 12.5472L26.7805 11.8865C26.7706 11.8683 26.7536 11.8677 26.7425 11.8852L26.7021 11.9486L26.6666 11.8825L26.7068 11.8191C26.7178 11.8016 26.7191 11.7726 26.7092 11.7544L26.6735 11.6883L26.7139 11.6249L26.7494 11.691C26.7593 11.7092 26.7763 11.7098 26.7874 11.6923L26.868 11.5655C26.8791 11.548 26.8801 11.519 26.8702 11.5007L26.8347 11.4347L26.8749 11.3713L26.9151 11.4456C26.923 11.4606 26.9363 11.464 26.9474 11.4538C26.9691 11.4334 26.9928 11.4203 27.017 11.4151C27.1205 11.393 27.2115 11.5174 27.2204 11.6931C27.2204 11.696 27.2209 11.699 27.2214 11.7018C27.2253 11.7258 27.2404 11.7387 27.2547 11.7307C27.3245 11.6915 27.3997 11.7234 27.4477 11.8127C27.5165 11.9403 27.5094 12.1432 27.4315 12.2658Z" fill="white"/>
<path d="M27.218 11.8681L27.0368 12.1534C27.0257 12.171 27.0245 12.1999 27.0343 12.2182L27.1768 12.4825C27.1867 12.5007 27.2037 12.5013 27.2148 12.4838L27.3961 12.1984C27.4515 12.1109 27.4567 11.966 27.4077 11.8747C27.3586 11.7835 27.2735 11.7805 27.218 11.8681ZM27.3603 12.1324L27.1993 12.386L27.0925 12.1878L27.2535 11.9342C27.2868 11.8816 27.3379 11.8834 27.3675 11.9381C27.3968 11.9929 27.3938 12.0798 27.3603 12.1324Z" fill="white"/>
<path d="M26.5852 10.9706C26.2516 11.4959 26.2202 12.3655 26.5152 12.9128C26.8101 13.4601 27.3198 13.478 27.6534 12.9526C27.9866 12.4269 28.0179 11.5581 27.7235 11.0104C27.4285 10.4631 26.9188 10.4452 26.5852 10.9706ZM27.6177 12.8866C27.3062 13.3769 26.8308 13.3602 26.5554 12.8494C26.2802 12.3386 26.3093 11.5269 26.6207 11.0366C26.9324 10.5471 27.4076 10.5638 27.6833 11.0738C27.9585 11.5847 27.9291 12.3963 27.6177 12.8866Z" fill="white"/>
<path d="M26.6567 11.1027C26.3675 11.558 26.3404 12.3116 26.5961 12.7859C26.8515 13.2603 27.2934 13.2758 27.5824 12.8205C27.8712 12.3648 27.8983 11.6118 27.6431 11.1372C27.3876 10.6628 26.946 10.6474 26.6567 11.1027ZM27.5469 12.7544C27.2799 13.1747 26.8723 13.1604 26.6363 12.7225C26.4003 12.2847 26.4254 11.589 26.6923 11.1687C26.9593 10.7492 27.3667 10.7635 27.6029 11.2006C27.8389 11.6385 27.8137 12.3341 27.5469 12.7544Z" fill="white"/>
<path d="M11.6185 25.9643C11.5699 25.9968 11.4584 25.9332 11.4637 25.8756C11.4602 25.829 11.5282 25.813 11.5836 25.8458C11.6406 25.8771 11.6609 25.9434 11.6185 25.9643ZM12.267 25.864C12.2356 25.88 12.1712 25.8513 12.1563 25.8142C12.1319 25.7741 12.1726 25.7418 12.2215 25.7588C12.2824 25.7739 12.3142 25.8487 12.267 25.864ZM10.8179 25.8307C10.8812 25.8341 10.9331 25.9169 10.8837 25.9368C10.8486 25.9585 10.789 25.9245 10.7634 25.887C10.7565 25.8545 10.7721 25.8236 10.8179 25.8307ZM11.9823 25.616C11.9362 25.6553 11.8173 25.6067 11.7937 25.5402C11.7633 25.4734 11.844 25.4297 11.9234 25.4717C11.996 25.5042 12.0288 25.5858 11.9823 25.616ZM10.9809 25.6291C10.9853 25.6959 10.87 25.7039 10.8051 25.6422C10.7477 25.5943 10.7564 25.531 10.8054 25.5113C10.8753 25.4948 10.9845 25.5637 10.9809 25.6291ZM11.4579 25.4812C11.4869 25.537 11.4502 25.582 11.3917 25.589C11.348 25.5839 11.2967 25.571 11.2614 25.5363C11.2045 25.4887 11.1986 25.4195 11.245 25.394C11.2648 25.3794 11.2986 25.3828 11.3282 25.3828C11.382 25.3995 11.4381 25.435 11.4579 25.4812ZM12.4297 25.3463C12.3871 25.3813 12.2783 25.3274 12.272 25.2698C12.2596 25.2205 12.3238 25.1967 12.382 25.2256C12.442 25.2523 12.4704 25.323 12.4297 25.3463ZM10.2539 25.46C10.2214 25.4967 10.1192 25.462 10.097 25.4059C10.068 25.3556 10.1198 25.3136 10.1825 25.3371C10.248 25.3558 10.291 25.4297 10.2539 25.46ZM11.0804 25.3133C11.0114 25.3437 10.8978 25.3177 10.8181 25.2553C10.7162 25.1795 10.688 25.0571 10.761 25.0068C10.8332 24.9477 11.0016 24.9856 11.088 25.0818C11.1741 25.1676 11.169 25.2805 11.0804 25.3133ZM11.5588 25.2795C11.4869 25.3223 11.348 25.2968 11.2623 25.2169C11.1698 25.1394 11.1533 25.0257 11.225 24.9796C11.2943 24.9281 11.4431 24.9565 11.5316 25.0403C11.624 25.1209 11.6366 25.2361 11.5588 25.2795ZM11.9683 25.1085C11.9876 25.1608 11.9493 25.1974 11.8952 25.2038C11.8317 25.2004 11.7626 25.1617 11.7288 25.1083C11.7057 25.0546 11.726 25.0002 11.7901 24.9973C11.8578 24.9881 11.9508 25.0468 11.9683 25.1085ZM10.58 25.2608C10.5265 25.3017 10.3988 25.2528 10.3649 25.1795C10.3206 25.102 10.4039 25.0415 10.4989 25.0833C10.5929 25.1173 10.6412 25.2244 10.58 25.2608ZM11.5822 24.9276C11.5081 24.9526 11.3936 24.9225 11.3175 24.8562C11.2371 24.7894 11.2071 24.6927 11.2519 24.6383C11.3048 24.5593 11.4866 24.5805 11.5861 24.6793C11.6885 24.7692 11.6844 24.8972 11.5822 24.9276ZM10.6667 24.9759C10.5951 25.0009 10.4844 24.9779 10.4068 24.9142C10.3101 24.8416 10.2809 24.7274 10.3431 24.6742C10.4055 24.613 10.5616 24.6354 10.6565 24.7211C10.7636 24.8095 10.768 24.9419 10.6667 24.9759ZM12.0822 24.8134C12.0216 24.8416 11.9046 24.7748 11.9019 24.7095C11.8904 24.6502 11.9725 24.624 12.0422 24.6643C12.1188 24.7017 12.1434 24.7925 12.0822 24.8134ZM10.0567 24.8241C10.0858 24.8773 10.0655 24.9269 10.005 24.9329C9.95149 24.9286 9.88483 24.8955 9.86444 24.8474C9.82772 24.7843 9.89248 24.7364 9.96882 24.7631C10.0041 24.7746 10.0319 24.7998 10.0567 24.8241ZM12.4253 24.7634C12.3899 24.7828 12.3186 24.752 12.3068 24.7085C12.2845 24.6594 12.3565 24.6366 12.4071 24.6757C12.4479 24.7027 12.4541 24.7471 12.4253 24.7634ZM9.65674 24.9089C9.63565 24.9298 9.57896 24.9186 9.55056 24.8873C9.51211 24.8535 9.52604 24.8037 9.57344 24.8073C9.63324 24.7991 9.69592 24.8819 9.65674 24.9089ZM11.1662 24.5899C11.0641 24.6225 10.8968 24.544 10.8429 24.4389C10.7816 24.3332 10.8562 24.2329 10.9869 24.2511C11.0849 24.2594 11.1961 24.3334 11.2344 24.4151C11.2742 24.493 11.2443 24.5691 11.1662 24.5899ZM10.7087 24.614C10.6061 24.6492 10.4343 24.5693 10.3817 24.4617C10.3227 24.3577 10.3952 24.2608 10.5215 24.2754C10.6368 24.2822 10.7707 24.3835 10.7876 24.4785C10.8038 24.5416 10.7705 24.5953 10.7087 24.614ZM11.5583 24.5035C11.4834 24.52 11.3668 24.444 11.3652 24.3743C11.3525 24.3004 11.4621 24.2747 11.5449 24.331C11.6357 24.3847 11.6421 24.4911 11.5583 24.5035ZM10.2146 24.5703C10.1558 24.6006 10.0389 24.5501 10.0094 24.4804C9.96778 24.4044 10.0508 24.3461 10.1441 24.3869C10.2446 24.4226 10.2896 24.5411 10.2146 24.5703ZM9.67116 24.2577C9.72312 24.3028 9.70297 24.3672 9.63995 24.3616C9.61097 24.3636 9.58027 24.3444 9.55295 24.3283C9.53509 24.3009 9.51197 24.2683 9.52715 24.2458C9.54247 24.2045 9.62811 24.2115 9.67116 24.2577ZM11.8655 24.2324C11.827 24.2674 11.7237 24.2234 11.7074 24.1663C11.6886 24.116 11.7455 24.0835 11.8069 24.1095C11.8705 24.1328 11.9058 24.2062 11.8655 24.2324ZM10.7294 24.1841C10.6718 24.2159 10.5525 24.1654 10.5239 24.0954C10.4796 24.0184 10.5656 23.9591 10.6592 24.0019C10.7573 24.0376 10.8035 24.1552 10.7294 24.1841ZM11.1787 24.0546C11.132 24.0862 11.0251 24.0415 11.0001 23.9808C10.9731 23.9314 11.0065 23.8863 11.0656 23.8906C11.112 23.8892 11.1603 23.9239 11.1926 23.9577C11.2109 23.9953 11.2146 24.0383 11.1787 24.0546ZM10.1622 24.1068C10.1168 24.1442 10.0025 24.0998 9.9757 24.0349C9.9399 23.9674 10.019 23.9191 10.1 23.9603C10.1742 23.9922 10.2096 24.076 10.1622 24.1068ZM9.79022 23.7306C9.83709 23.7663 9.82698 23.8131 9.7859 23.8238C9.74605 23.8192 9.69518 23.7971 9.68394 23.7592C9.66364 23.7085 9.73954 23.6885 9.79022 23.7306ZM11.2092 23.6898C11.213 23.7199 11.201 23.7507 11.1576 23.7451C11.0982 23.7444 11.0424 23.6689 11.0808 23.6426C11.1124 23.6134 11.1836 23.6475 11.2092 23.6898ZM10.5153 23.6912C10.5265 23.7354 10.4731 23.7602 10.419 23.7391C10.3857 23.7298 10.3635 23.7026 10.3444 23.6796C10.3421 23.6672 10.3393 23.6548 10.3365 23.6424C10.3446 23.6234 10.3577 23.6041 10.3869 23.6032C10.4376 23.5949 10.5131 23.6458 10.5153 23.6912Z" fill="white"/>
<path d="M19.0718 9.2352C19.0375 9.18416 19.1063 9.0767 19.1677 9.08615C19.2174 9.08591 19.234 9.15526 19.1986 9.20855C19.1649 9.26352 19.0937 9.27916 19.0718 9.2352ZM19.1742 9.89298C19.1573 9.86035 19.1883 9.79768 19.2282 9.78542C19.271 9.76373 19.3054 9.80687 19.2868 9.85472C19.2703 9.91481 19.1902 9.94141 19.1742 9.89298ZM19.2203 8.44132C19.2163 8.50469 19.1274 8.55077 19.1066 8.49981C19.0837 8.46306 19.1206 8.40571 19.1605 8.38266C19.1953 8.37811 19.2282 8.39589 19.2203 8.44132ZM19.4408 9.62488C19.3993 9.57579 19.4521 9.45995 19.5233 9.44108C19.5948 9.41531 19.6409 9.49935 19.5954 9.57599C19.5602 9.6465 19.4729 9.67366 19.4408 9.62488ZM19.4343 8.61917C19.3629 8.61883 19.3552 8.50258 19.4217 8.44188C19.4731 8.38771 19.5407 8.40092 19.5615 8.45149C19.5786 8.52276 19.5042 8.62745 19.4343 8.61917ZM19.5889 9.10825C19.5288 9.13344 19.4812 9.09341 19.4742 9.03424C19.4799 8.99076 19.4939 8.94019 19.5313 8.90725C19.5825 8.85345 19.6565 8.85243 19.6835 8.90086C19.6988 8.9218 19.6951 8.95547 19.6948 8.98518C19.6765 9.03791 19.6382 9.09166 19.5889 9.10825ZM19.7254 10.0929C19.6884 10.0477 19.7469 9.94236 19.8083 9.94012C19.8611 9.93114 19.8859 9.99721 19.8547 10.0536C19.8256 10.1119 19.7502 10.1354 19.7254 10.0929ZM19.6202 7.90176C19.5812 7.86649 19.6193 7.76649 19.679 7.74817C19.7331 7.72264 19.7775 7.77756 19.752 7.83882C19.7314 7.90317 19.6524 7.94116 19.6202 7.90176ZM19.7707 8.74145C19.7387 8.66999 19.7675 8.55791 19.8345 8.48237C19.9164 8.38545 20.0471 8.36585 20.1003 8.44265C20.1627 8.51934 20.1209 8.68553 20.0177 8.76542C19.9257 8.84582 19.8051 8.83268 19.7707 8.74145ZM19.8032 9.22383C19.7581 9.14863 19.7863 9.01109 19.8724 8.93072C19.9557 8.84344 20.0772 8.83499 20.126 8.91022C20.1803 8.98331 20.1488 9.13055 20.0588 9.21343C19.9721 9.30054 19.8489 9.30496 19.8032 9.22383ZM19.9828 9.64682C19.9269 9.66251 19.8881 9.62146 19.8816 9.56668C19.8856 9.50319 19.9275 9.43666 19.9848 9.40651C20.0421 9.38718 20.1001 9.41137 20.1029 9.47594C20.112 9.54448 20.0488 9.63365 19.9828 9.64682ZM19.8305 8.24304C19.7873 8.18651 19.8403 8.06183 19.9189 8.033C20.0018 7.99406 20.0658 8.08194 20.0205 8.17432C19.9835 8.26618 19.8688 8.30702 19.8305 8.24304ZM20.1786 9.27221C20.1526 9.19609 20.1856 9.08341 20.257 9.01168C20.3287 8.93577 20.4323 8.91252 20.4899 8.96137C20.5738 9.01998 20.5499 9.20097 20.4437 9.29378C20.3469 9.39012 20.2103 9.37691 20.1786 9.27221ZM20.134 8.35028C20.1078 8.2766 20.1331 8.1672 20.2017 8.09382C20.2799 8.00198 20.4019 7.98075 20.4583 8.04699C20.5232 8.11393 20.4982 8.26898 20.4059 8.35812C20.3109 8.45932 20.1695 8.45431 20.134 8.35028ZM20.2968 9.78204C20.2672 9.71918 20.3394 9.60659 20.4092 9.60844C20.4725 9.60115 20.5 9.68532 20.4563 9.75243C20.4159 9.82661 20.3189 9.84491 20.2968 9.78204ZM20.3006 7.74897C20.2435 7.77443 20.1907 7.75055 20.1846 7.68939C20.1896 7.636 20.2254 7.57146 20.2771 7.55443C20.3448 7.52205 20.3952 7.59043 20.3662 7.66512C20.3538 7.69966 20.3267 7.72587 20.3006 7.74897ZM20.3477 10.1298C20.3274 10.093 20.3608 10.0235 20.4074 10.0148C20.4597 9.99587 20.4837 10.0698 20.4416 10.1177C20.4125 10.1568 20.365 10.1599 20.3477 10.1298ZM20.213 7.34165C20.1907 7.31901 20.2032 7.26295 20.2368 7.23664C20.2731 7.2005 20.326 7.21799 20.3219 7.26528C20.3303 7.32588 20.2414 7.38287 20.213 7.34165ZM20.5422 8.87883C20.5082 8.77404 20.5933 8.61174 20.7057 8.56508C20.8191 8.51105 20.9258 8.59308 20.9052 8.72294C20.8957 8.82071 20.8159 8.92695 20.7284 8.95965C20.6449 8.99402 20.564 8.95858 20.5422 8.87883ZM20.5198 8.41805C20.4832 8.31258 20.5698 8.14588 20.6849 8.10074C20.7962 8.04893 20.8993 8.12851 20.8828 8.25419C20.8747 8.36939 20.7654 8.49663 20.664 8.50683C20.5966 8.51856 20.5395 8.4814 20.5198 8.41805ZM20.6317 9.27836C20.6147 9.20199 20.6966 9.09038 20.7711 9.09378C20.8499 9.08625 20.8767 9.19801 20.8158 9.27712C20.7579 9.3644 20.6443 9.36328 20.6317 9.27836ZM20.5703 7.92537C20.5382 7.86421 20.5931 7.75058 20.6676 7.72585C20.7492 7.68953 20.8109 7.77695 20.7666 7.8677C20.7276 7.96593 20.6008 8.00273 20.5703 7.92537ZM20.908 7.4023C20.8594 7.45125 20.7907 7.42645 20.7971 7.36361C20.7952 7.33439 20.816 7.30495 20.8333 7.27866C20.8628 7.26273 20.8977 7.24182 20.9218 7.25867C20.9657 7.27696 20.9575 7.36237 20.908 7.4023ZM20.9188 9.60574C20.8816 9.56462 20.9293 9.46418 20.9904 9.45184C21.0443 9.43656 21.0784 9.49595 21.0503 9.55573C21.0251 9.61782 20.9464 9.64806 20.9188 9.60574ZM20.9786 8.46935C20.9453 8.4093 20.9999 8.29312 21.075 8.26944C21.1573 8.23036 21.2199 8.32089 21.1737 8.4118C21.1349 8.50768 21.009 8.54574 20.9786 8.46935ZM21.1135 8.92928C21.0801 8.88015 21.1287 8.77611 21.1936 8.75529C21.2466 8.73173 21.2946 8.76846 21.2894 8.82748C21.2907 8.8741 21.2532 8.92013 21.2169 8.95005C21.1765 8.96577 21.1308 8.96642 21.1135 8.92928ZM21.0654 7.90574C21.0256 7.85743 21.0741 7.74594 21.1435 7.72366C21.2157 7.69252 21.2669 7.77528 21.2222 7.85361C21.1878 7.92588 21.0979 7.95544 21.0654 7.90574ZM21.4698 7.55914C21.4312 7.60362 21.3814 7.59016 21.3701 7.54816C21.3753 7.50855 21.3994 7.45907 21.4398 7.45045C21.4942 7.43371 21.5149 7.51127 21.4698 7.55914ZM21.5028 8.98573C21.4705 8.98748 21.4377 8.97318 21.4441 8.93006C21.4452 8.87055 21.5263 8.81986 21.554 8.86025C21.5851 8.89406 21.5481 8.96312 21.5028 8.98573ZM21.5065 8.28948C21.4591 8.29754 21.4332 8.24219 21.456 8.1894C21.466 8.15661 21.4952 8.1363 21.52 8.11882C21.5333 8.11733 21.5466 8.11541 21.5598 8.11347C21.5801 8.12299 21.6005 8.13747 21.6012 8.16679C21.6098 8.21833 21.5548 8.2904 21.5065 8.28948Z" fill="white"/>
<path d="M22.0369 20.7962L22.0361 20.795L21.6072 20.4735L21.9419 19.6855L21.9429 19.6832L21.9455 19.6643L21.8107 18.9762C21.8107 18.9742 21.8102 18.9724 21.8094 18.9709L21.8096 18.969L21.8041 18.9642C21.8028 18.961 21.8001 18.9589 21.7965 18.9585L21.2317 18.6572L21.2283 18.6555L20.4332 18.8599C20.4285 18.8611 20.4273 18.8621 20.4164 18.8718C20.4112 18.8764 20.4035 18.8832 20.3938 18.8919C20.3755 18.9082 20.3486 18.9322 20.3139 18.9632C20.2555 19.0154 20.1743 19.0881 20.0723 19.1793C19.8987 19.3347 19.7231 19.492 19.7214 19.4936L19.7203 19.4945L19.7066 19.5098L19.7054 19.5183L19.3614 20.3267L19.3604 20.329L19.3577 20.348L19.4948 21.0347L19.4948 21.0349C19.4944 21.0374 19.4944 21.0398 19.495 21.0419C19.4956 21.0441 19.4967 21.0458 19.4982 21.0472L19.504 21.0523L20.0679 21.3488C20.0688 21.3507 20.0703 21.3521 20.0722 21.3529C20.0741 21.3537 20.0765 21.3539 20.0789 21.3534C20.0816 21.3543 20.0847 21.3543 20.088 21.3534L20.8769 21.1506L20.8802 21.147C20.8819 21.1462 20.8837 21.1451 20.8853 21.1437L20.8859 21.1436L21.5583 20.5405L21.9799 20.8586C21.9826 20.8608 21.9861 20.8622 21.9901 20.8624C21.9981 20.8629 22.0071 20.8606 22.0158 20.8558C22.0216 20.8524 22.0268 20.8473 22.0304 20.8413C22.0362 20.834 22.0399 20.8256 22.0407 20.8178C22.0419 20.8095 22.0406 20.8019 22.0369 20.7962ZM21.6657 19.7131L21.7724 19.1718L21.8676 19.6612L21.6657 19.7131ZM21.8583 19.7281L21.6149 20.3046L21.6563 19.7801L21.8583 19.7281ZM19.8884 20.8171L20.0257 21.2385L19.5944 21.01L19.8884 20.8171ZM20.8117 19.2879L21.1931 18.7637L21.3413 19.2178L20.8117 19.2879ZM21.4149 19.1952L21.2776 18.7737L21.7089 19.0023L21.4149 19.1952ZM21.4377 19.2488L21.7298 19.0563L21.6167 19.6318L21.6156 19.638L21.4377 19.2488ZM19.7224 20.1248L19.723 20.119L19.7673 19.561L19.9199 19.5916L20.0256 19.6119L19.7224 20.1248ZM21.1373 18.7458L20.7549 19.2715L20.4934 18.9113L21.1373 18.7458ZM21.5652 19.8035L21.2411 20.351L21.1425 20.0831L21.0878 19.9263L21.5652 19.8035L21.5652 19.8035ZM21.0973 19.8592L21.3843 19.3214L21.5745 19.7365L21.0973 19.8592ZM20.803 19.3574L21.3382 19.286L21.0461 19.8332L20.803 19.3574ZM20.7101 20.4902L21.0255 19.9816L21.1815 20.4135L20.6274 20.6221L20.7101 20.4902ZM20.3286 20.0569L20.7371 19.3988L20.8594 19.6438L20.984 19.8884L20.3286 20.0569ZM20.9747 19.9553L20.5684 20.6129L20.4439 20.3684L20.3193 20.1239L20.9747 19.9553ZM20.6016 19.5107L20.2802 20.03L20.1242 19.5982L20.6762 19.39L20.6016 19.5107ZM20.5003 20.6549L19.9674 20.7257L20.1874 20.3124L20.2594 20.1785L20.5003 20.6549ZM19.7405 20.2081L20.0644 19.6609L20.1622 19.9357L20.2175 20.0854L19.7405 20.2081ZM20.2083 20.1524L19.9214 20.6902L19.7312 20.2751L20.2083 20.1524ZM21.5811 19.887L21.5809 19.8885L21.5359 20.4512L21.3833 20.4206L21.2776 20.4003L21.5811 19.887ZM19.8054 19.4917L20.3346 19.0162L20.0656 19.5421L19.8054 19.4917ZM19.8656 20.7635L19.5735 20.9559L19.6873 20.3756L19.6876 20.3739L19.8656 20.7635ZM20.5507 20.7401L20.81 21.1009L20.1661 21.2664L20.5507 20.7401ZM21.4979 20.5205L20.9687 20.996L21.2377 20.4702L21.4979 20.5205ZM20.1381 19.5272L20.4282 18.9604L20.6867 19.32L20.1381 19.5272ZM19.445 20.2841L19.6883 19.7076L19.6469 20.2322L19.445 20.2841ZM19.6376 20.2992L19.5309 20.8405L19.4356 20.3511L19.6376 20.2992H19.6376ZM20.4915 20.7244L20.1102 21.2485L19.962 20.7944L20.4915 20.7244ZM21.1651 20.4851L20.875 21.0519L20.6165 20.6922L21.1651 20.4851Z" fill="white"/>
<defs>
<linearGradient id="paint0_linear_0_1" x1="2.40613" y1="-0.702907" x2="25.5987" y2="10.0566" gradientUnits="userSpaceOnUse">
<stop stop-color="#87F2E7"/>
<stop offset="1" stop-color="#2E37F2"/>
</linearGradient>
<linearGradient id="paint1_linear_0_1" x1="-0.120008" y1="4.74309" x2="23.0724" y2="15.5027" gradientUnits="userSpaceOnUse">
<stop stop-color="#87F2E7"/>
<stop offset="1" stop-color="#2E37F2"/>
</linearGradient>
<linearGradient id="paint2_linear_0_1" x1="-2.92106" y1="10.7784" x2="20.2715" y2="21.538" gradientUnits="userSpaceOnUse">
<stop stop-color="#87F2E7"/>
<stop offset="1" stop-color="#2E37F2"/>
</linearGradient>
<linearGradient id="paint3_linear_0_1" x1="-3.01193" y1="10.3547" x2="27.9047" y2="12.0512" gradientUnits="userSpaceOnUse">
<stop stop-color="#87F2E7"/>
<stop offset="1" stop-color="#2E37F2"/>
</linearGradient>
<linearGradient id="paint4_linear_0_1" x1="-5.30463" y1="15.9194" x2="17.8878" y2="26.6789" gradientUnits="userSpaceOnUse">
<stop stop-color="#87F2E7"/>
<stop offset="1" stop-color="#2E37F2"/>
</linearGradient>
<linearGradient id="paint5_linear_0_1" x1="1.91696" y1="0.351238" x2="25.1095" y2="11.1108" gradientUnits="userSpaceOnUse">
<stop stop-color="#87F2E7"/>
<stop offset="1" stop-color="#2E37F2"/>
</linearGradient>
<linearGradient id="paint6_linear_0_1" x1="-0.764513" y1="6.13195" x2="22.428" y2="16.8915" gradientUnits="userSpaceOnUse">
<stop stop-color="#87F2E7"/>
<stop offset="1" stop-color="#2E37F2"/>
</linearGradient>
<linearGradient id="paint7_linear_0_1" x1="-3.58476" y1="12.2119" x2="19.6077" y2="22.9715" gradientUnits="userSpaceOnUse">
<stop stop-color="#87F2E7"/>
<stop offset="1" stop-color="#2E37F2"/>
</linearGradient>
<linearGradient id="paint8_linear_0_1" x1="-5.8479" y1="17.0883" x2="17.3446" y2="27.8479" gradientUnits="userSpaceOnUse">
<stop stop-color="#87F2E7"/>
<stop offset="1" stop-color="#2E37F2"/>
</linearGradient>
<linearGradient id="paint9_linear_0_1" x1="-2.96602" y1="11.9253" x2="28.1664" y2="24.0094" gradientUnits="userSpaceOnUse">
<stop stop-color="#87F2E7"/>
<stop offset="1" stop-color="#2E37F2"/>
</linearGradient>
<linearGradient id="paint10_linear_0_1" x1="0.860623" y1="2.62954" x2="24.0531" y2="13.3891" gradientUnits="userSpaceOnUse">
<stop stop-color="#87F2E7"/>
<stop offset="1" stop-color="#2E37F2"/>
</linearGradient>
<linearGradient id="paint11_linear_0_1" x1="1.67375" y1="0.875719" x2="24.8662" y2="11.6352" gradientUnits="userSpaceOnUse">
<stop stop-color="#87F2E7"/>
<stop offset="1" stop-color="#2E37F2"/>
</linearGradient>
<linearGradient id="paint12_linear_0_1" x1="-2.53209" y1="1.61536" x2="28.3847" y2="3.31191" gradientUnits="userSpaceOnUse">
<stop stop-color="#87F2E7"/>
<stop offset="1" stop-color="#2E37F2"/>
</linearGradient>
<linearGradient id="paint13_linear_0_1" x1="-1.00963" y1="6.65893" x2="22.1829" y2="17.4185" gradientUnits="userSpaceOnUse">
<stop stop-color="#87F2E7"/>
<stop offset="1" stop-color="#2E37F2"/>
</linearGradient>
<linearGradient id="paint14_linear_0_1" x1="-4.58248" y1="14.3607" x2="18.61" y2="25.1203" gradientUnits="userSpaceOnUse">
<stop stop-color="#87F2E7"/>
<stop offset="1" stop-color="#2E37F2"/>
</linearGradient>
<linearGradient id="paint15_linear_0_1" x1="-3.73148" y1="12.5258" x2="19.4611" y2="23.2854" gradientUnits="userSpaceOnUse">
<stop stop-color="#87F2E7"/>
<stop offset="1" stop-color="#2E37F2"/>
</linearGradient>
<linearGradient id="paint16_linear_0_1" x1="-2.25664" y1="9.34834" x2="20.9358" y2="20.1079" gradientUnits="userSpaceOnUse">
<stop stop-color="#87F2E7"/>
<stop offset="1" stop-color="#2E37F2"/>
</linearGradient>
<linearGradient id="paint17_linear_0_1" x1="-4.87793" y1="14.9999" x2="18.3145" y2="25.7594" gradientUnits="userSpaceOnUse">
<stop stop-color="#87F2E7"/>
<stop offset="1" stop-color="#2E37F2"/>
</linearGradient>
</defs>
</svg>
