<svg width="39" height="38" viewBox="0 0 39 38" fill="none" xmlns="http://www.w3.org/2000/svg">
<circle cx="19.5" cy="19" r="19" fill="#3DBAA2"/>
<path fill-rule="evenodd" clip-rule="evenodd" d="M21.7823 13.5697V16.3793C26.999 16.6203 30.919 17.6547 30.919 18.8932C30.919 20.1318 26.999 21.1661 21.7823 21.406V30.412H17.1356V21.4083C11.9106 21.1673 7.9812 20.133 7.9812 18.8932C7.9812 17.6535 11.9106 16.618 17.1356 16.3781V13.5697H10.7065V9.28516H28.2115V13.5697H21.7823ZM21.7823 20.64V20.6424C26.3898 20.4382 29.8276 19.6366 29.8276 18.6747C29.8276 17.7152 26.3898 16.9113 21.7823 16.7058V19.8444C21.6481 19.8563 20.9297 19.9157 19.4964 19.9157C18.3018 19.9157 17.4373 19.8646 17.1356 19.8432V16.7035C12.5186 16.9101 9.07251 17.714 9.07251 18.6747C9.07251 19.6366 12.5186 20.4405 17.1356 20.6436V20.64C17.4325 20.6543 18.2768 20.6899 19.4762 20.6899C20.9784 20.6899 21.6517 20.6495 21.7823 20.64Z" fill="white"/>
</svg>
